<svg xmlns="http://www.w3.org/2000/svg" viewBox="0 0 293.62 94.76"><path d="M92.48,35.8l-16-23.14L51,0,51,0,20.57,8.83H20.4L4.52,27.7l-.06.06v.16L0,58.81V59L16,82.1,41.5,94.73l.24,0,30-8.83h.17L87.82,67.06l.06-.07v-.24l4.55-30.14m-8.29,3.88-8.26-24L91.43,35.88ZM13.38,57.83,5,34.26l20.07-5.1Zm.24.73.16-.15.32-.33L25.86,29.43l13,24.46Zm25.5-3.72L38.5,80.21,14.39,59.43ZM26.63,29l31.58,2.89L39.62,53.44Zm32.69,1.78L47.12,9.43l26.55,5ZM74.42,15l8.79,25.37L60.07,31.29ZM66.54,63.34,40.28,54.05,59,32.48ZM58.35,31,26.94,28.12,46.11,9.58ZM40,54.89l26.22,9.28L39.46,80.29ZM66.79,65l-1.7,21-24.83-5ZM59.92,32.27l23.31,9.18L67.57,63ZM76.05,13.53l9.75,14L75.25,14.15ZM75.18,13l-.69.57L61.22,6ZM72,13.12,46.93,8.43l4-7.46Zm-22.24-12L45.92,8.37,24,8.71ZM45.07,9.25,26.13,27.57l-4.91-18ZM20.42,10.34l4.9,17.8L5.46,33.22ZM5.24,28.15l12-14.36L4.77,32.47Zm-.62,7.69,8.1,22.8L.92,58.38ZM1.21,59.35l11.65.27,2.71,20.5Zm12.67.92L37.71,80.8l-21.06.71Zm4.2,22.09,20.45-.7,2.46,12ZM42,94,39.52,81.81l24.09,4.86Zm29.52-8.74-4.72.63L84.18,70.29Zm-5.61.1,1.78-20.77,18.81,2.59Zm2.19-21.62L83.56,42.45,87,66.32Zm19.41.06-3-22.33,7.11-4.54Z" fill="#ffc0a9"/><path d="M16.73,57.79a3.88,3.88,0,0,0-2.15-2.08,3.9,3.9,0,0,0-5,5.18A3.87,3.87,0,0,0,11.71,63a3.94,3.94,0,0,0,3,0,3.9,3.9,0,0,0,2-5.13Z" fill="#d63d4f"/><path d="M62.45,28.29a4.7,4.7,0,0,0-6.1,7.14,4.6,4.6,0,0,0,3,1.12l.39,0a4.7,4.7,0,0,0,2.7-8.24Z" fill="#d63d4f"/><path d="M77.36,13.42a3.11,3.11,0,1,0-2.85,4.35,3,3,0,0,0,1.24-.26A3.11,3.11,0,0,0,77.36,13.42Z" fill="#d63d4f"/><path d="M42.87,52.81a3.12,3.12,0,0,0-4.1-1.61,3.12,3.12,0,0,0,.1,5.75,3.21,3.21,0,0,0,1.14.22,3.17,3.17,0,0,0,1.24-.26A3.13,3.13,0,0,0,42.87,52.81Z" fill="#d63d4f"/><path d="M86.8,39.7a3.11,3.11,0,1,0-4,4.13,3.05,3.05,0,0,0,1.15.22,3.17,3.17,0,0,0,1.24-.26A3.12,3.12,0,0,0,86.8,39.7Z" fill="#d63d4f"/><path d="M129.28,18.39a1.49,1.49,0,0,1-.28.78,1.08,1.08,0,0,1-.89.43,1.18,1.18,0,0,1-.63-.19,12.08,12.08,0,0,0-6.82-2.07,11.19,11.19,0,0,0-5.72,1.48,10.56,10.56,0,0,0-4,4.16A12.35,12.35,0,0,0,109.46,29,12.43,12.43,0,0,0,111,35.18a10.56,10.56,0,0,0,4,4.14,11.28,11.28,0,0,0,5.68,1.46,12.08,12.08,0,0,0,6.78-2,1.24,1.24,0,0,1,.67-.19A1.06,1.06,0,0,1,129,39a1.12,1.12,0,0,1,.28.75,1,1,0,0,1-.55.93A14.27,14.27,0,0,1,125,42.4a14.94,14.94,0,0,1-4.33.68,13.74,13.74,0,0,1-6.85-1.77,13.18,13.18,0,0,1-5-5A14.22,14.22,0,0,1,107,29a14.23,14.23,0,0,1,1.83-7.16A13.38,13.38,0,0,1,120.66,15a15.05,15.05,0,0,1,4.27.62,13.68,13.68,0,0,1,3.76,1.76A1.09,1.09,0,0,1,129.28,18.39Z" fill="#404041"/><path d="M137.7,42.34a1.18,1.18,0,0,1-.86.35,1.2,1.2,0,0,1-.88-.33,1.18,1.18,0,0,1-.33-.88V16.6a1.17,1.17,0,0,1,.35-.88,1.28,1.28,0,0,1,.9-.33,1.2,1.2,0,0,1,1.21,1.21V41.48A1.35,1.35,0,0,1,137.7,42.34Z" fill="#404041"/><path d="M169.45,36.26a12.83,12.83,0,0,1-22.78,0A15.31,15.31,0,0,1,145,29a15.35,15.35,0,0,1,1.68-7.25,12.52,12.52,0,0,1,4.64-5,13.6,13.6,0,0,1,13.49,0,12.54,12.54,0,0,1,4.65,5A15.47,15.47,0,0,1,171.12,29,15.43,15.43,0,0,1,169.45,36.26ZM167.28,23a10.28,10.28,0,0,0-18.45,0A13.37,13.37,0,0,0,147.49,29a13.37,13.37,0,0,0,1.34,6.06,10,10,0,0,0,9.23,5.64,10.2,10.2,0,0,0,5.48-1.48,10.08,10.08,0,0,0,3.74-4.16A13.24,13.24,0,0,0,168.63,29,13.24,13.24,0,0,0,167.28,23Z" fill="#404041"/><path d="M200.72,36.26a12.82,12.82,0,0,1-22.77,0A15.31,15.31,0,0,1,176.27,29,15.35,15.35,0,0,1,178,21.79a12.52,12.52,0,0,1,4.64-5,13.6,13.6,0,0,1,13.49,0,12.45,12.45,0,0,1,4.64,5A15.35,15.35,0,0,1,202.4,29,15.31,15.31,0,0,1,200.72,36.26ZM198.56,23a10.28,10.28,0,0,0-18.45,0A13.24,13.24,0,0,0,178.77,29a13.24,13.24,0,0,0,1.34,6.06,10.28,10.28,0,0,0,18.45,0A13.24,13.24,0,0,0,199.9,29,13.24,13.24,0,0,0,198.56,23Z" fill="#404041"/><path d="M211.74,42.14a13.8,13.8,0,0,1-4.19-2.92,1.17,1.17,0,0,1-.1-1.79,1.14,1.14,0,0,1,.84-.39,1.2,1.2,0,0,1,.86.39,9.85,9.85,0,0,0,7.6,3.35,7.76,7.76,0,0,0,4.66-1.33A4.07,4.07,0,0,0,223.27,36a4.26,4.26,0,0,0-.92-2.79,6.85,6.85,0,0,0-2.4-1.81,31.18,31.18,0,0,0-3.78-1.44A23.19,23.19,0,0,1,212,28.3a7.63,7.63,0,0,1-2.75-2.4,6.41,6.41,0,0,1-1.06-3.8,6.29,6.29,0,0,1,1.11-3.67,7.55,7.55,0,0,1,3.12-2.51A11.06,11.06,0,0,1,217,15a12.43,12.43,0,0,1,4.46.8,8,8,0,0,1,3.34,2.28,1.87,1.87,0,0,1,.58,1.13,1.09,1.09,0,0,1-.39.8,1.22,1.22,0,0,1-.86.37.9.9,0,0,1-.66-.27,7.69,7.69,0,0,0-2.81-2A8.92,8.92,0,0,0,217,17.3a7.86,7.86,0,0,0-4.65,1.27A4,4,0,0,0,210.59,22a4,4,0,0,0,1.72,3.47,17.93,17.93,0,0,0,4.91,2.22,29.66,29.66,0,0,1,4.52,1.68,7.46,7.46,0,0,1,2.87,2.44A7.07,7.07,0,0,1,225.72,36a6.06,6.06,0,0,1-1.15,3.61,7.74,7.74,0,0,1-3.2,2.55,11,11,0,0,1-4.66.94A12.31,12.31,0,0,1,211.74,42.14Z" fill="#404041"/><path d="M129.2,81.6a1.06,1.06,0,0,1-.35.82,1.2,1.2,0,0,1-.82.31,1.12,1.12,0,0,1-.69-.22,1.36,1.36,0,0,1-.44-.56L124,74.81H111.3L108.41,82a1.08,1.08,0,0,1-1,.78,1.11,1.11,0,0,1-.82-.27,1.14,1.14,0,0,1-.31-.74V81.6a1,1,0,0,1,0-.35l10.29-25.2a1.16,1.16,0,0,1,1.17-.78,1.13,1.13,0,0,1,.68.22,1.31,1.31,0,0,1,.45.56l10.26,25.08A2.38,2.38,0,0,1,129.2,81.6Zm-17-9.09H123l-5.46-13.34Z" fill="#404041"/><path d="M151.68,55.7a1.08,1.08,0,0,1,.33.82,1,1,0,0,1-.33.8,1.19,1.19,0,0,1-.84.29h-8.07V81.52a1.12,1.12,0,0,1-.35.84,1.31,1.31,0,0,1-1.74,0,1.14,1.14,0,0,1-.33-.84V57.61h-8.07a1.16,1.16,0,0,1-.84-.31,1.08,1.08,0,0,1-.33-.82,1,1,0,0,1,.33-.78,1.21,1.21,0,0,1,.84-.31h18.56A1.21,1.21,0,0,1,151.68,55.7Z" fill="#404041"/><path d="M174.34,80.7a1.08,1.08,0,0,1,.33.82,1.13,1.13,0,0,1-1.17,1.17H159.58a1.13,1.13,0,0,1-1.17-1.17v-25a1.12,1.12,0,0,1,.35-.84,1.25,1.25,0,0,1,.9-.33,1.19,1.19,0,0,1,.85.33,1.09,1.09,0,0,1,.36.84V80.39H173.5A1.16,1.16,0,0,1,174.34,80.7Z" fill="#404041"/><path d="M201,81.6a1.06,1.06,0,0,1-.35.82,1.2,1.2,0,0,1-.82.31,1.12,1.12,0,0,1-.69-.22,1.36,1.36,0,0,1-.44-.56l-2.93-7.14H183.1L180.21,82a1.08,1.08,0,0,1-1.05.78,1.11,1.11,0,0,1-.82-.27,1.14,1.14,0,0,1-.31-.74V81.6a1.5,1.5,0,0,1,0-.35l10.3-25.2a1.16,1.16,0,0,1,1.17-.78,1.13,1.13,0,0,1,.68.22,1.31,1.31,0,0,1,.45.56l10.26,25.08A2.38,2.38,0,0,1,201,81.6Zm-17-9.09h10.84l-5.46-13.34Z" fill="#404041"/><path d="M228,55.7a1.09,1.09,0,0,1,.3.78v25a1.17,1.17,0,0,1-1.21,1.25,1.24,1.24,0,0,1-.53-.12,1.39,1.39,0,0,1-.41-.27L209.38,59.76V81.64a1,1,0,0,1-.33.74,1.11,1.11,0,0,1-1.54,0,1,1,0,0,1-.31-.74V56.56a1.14,1.14,0,0,1,.33-.86,1.16,1.16,0,0,1,.8-.31,1.06,1.06,0,0,1,.93.43l16.81,22.66v-22a1.06,1.06,0,0,1,1.09-1.09A1.06,1.06,0,0,1,228,55.7Z" fill="#404041"/><path d="M255.22,55.7a1.05,1.05,0,0,1,.34.82,1,1,0,0,1-.34.8,1.19,1.19,0,0,1-.83.29h-8.08V81.52a1.08,1.08,0,0,1-.35.84,1.2,1.2,0,0,1-.86.33,1.18,1.18,0,0,1-.87-.33,1.14,1.14,0,0,1-.33-.84V57.61h-8.08a1.16,1.16,0,0,1-.84-.31,1.08,1.08,0,0,1-.33-.82,1,1,0,0,1,.33-.78,1.21,1.21,0,0,1,.84-.31h18.57A1.2,1.2,0,0,1,255.22,55.7Z" fill="#404041"/><path d="M264,82.34a1.19,1.19,0,0,1-2.07-.86V56.6a1.17,1.17,0,0,1,.35-.88,1.28,1.28,0,0,1,.9-.33,1.2,1.2,0,0,1,1.21,1.21V81.48A1.35,1.35,0,0,1,264,82.34Z" fill="#404041"/><path d="M293.62,58.39a1.47,1.47,0,0,1-.27.78,1.14,1.14,0,0,1-1.52.24A12.11,12.11,0,0,0,285,57.34a11.15,11.15,0,0,0-5.71,1.48,10.59,10.59,0,0,0-4,4.16,13.39,13.39,0,0,0,0,12.2,10.59,10.59,0,0,0,4,4.14A11.24,11.24,0,0,0,285,80.78a12.13,12.13,0,0,0,6.79-2,1.21,1.21,0,0,1,.66-.19,1.09,1.09,0,0,1,.9.46,1.11,1.11,0,0,1,.27.75,1,1,0,0,1-.55.93,14.27,14.27,0,0,1-3.74,1.7,14.84,14.84,0,0,1-4.33.68,13.68,13.68,0,0,1-6.84-1.77,13.21,13.21,0,0,1-5-5A14.31,14.31,0,0,1,271.31,69a14.14,14.14,0,0,1,1.84-7.16A13.38,13.38,0,0,1,285,55a15,15,0,0,1,4.27.62A13.54,13.54,0,0,1,293,57.42,1.07,1.07,0,0,1,293.62,58.39Z" fill="#404041"/></svg>