<svg xmlns="http://www.w3.org/2000/svg" viewBox="0 0 825.03 94.76"><path d="M487,35.8,471,12.66,445.52,0l0,0-30.4,8.83h-.17L399,27.7l-.06.06v.16L394.5,58.81V59l16,23.12L436,94.73l.24,0,30-8.83h.17l15.88-18.87.06-.07v-.24l4.55-30.14m-8.29,3.88-8.26-24,15.55,19.38ZM407.88,57.83l-8.34-23.57,20.07-5.1Zm.24.73.16-.15.32-.33,11.76-28.65,13,24.46Zm25.5-3.72L433,80.21,408.89,59.43ZM421.13,29l31.58,2.89L434.12,53.44Zm32.69,1.78L441.62,9.43l26.55,5ZM468.92,15l8.79,25.37-23.14-9.05ZM461,63.34l-26.26-9.29,18.68-21.57ZM452.85,31l-31.41-2.88L440.61,9.58ZM434.5,54.89l26.22,9.28L434,80.29ZM461.29,65l-1.7,21-24.83-5Zm-6.87-32.68,23.31,9.18L462.07,63Zm16.13-18.74,9.75,14L469.75,14.15Zm-.87-.58-.69.57L455.72,6Zm-3.18.17L441.43,8.43l4-7.46Zm-22.24-12-3.84,7.24-21.89.34Zm-4.69,8.12L420.63,27.57l-4.91-18Zm-24.65,1.09,4.9,17.8L400,33.22ZM399.74,28.15l12-14.36L399.27,32.47Zm-.62,7.69,8.1,22.8-11.8-.26Zm-3.41,23.51,11.65.27,2.71,20.5Zm12.67.92L432.21,80.8l-21.06.71Zm4.2,22.09,20.45-.7,2.46,12ZM436.49,94,434,81.81l24.09,4.86ZM466,85.25l-4.72.63,17.39-15.59Zm-5.61.1,1.78-20.77L481,67.17Zm2.19-21.62,15.47-21.28,3.4,23.87Zm19.41.06-3-22.33,7.11-4.54Z" fill="#ffc0a9"/><path d="M411.23,57.79a3.88,3.88,0,0,0-2.15-2.08,3.9,3.9,0,0,0-5,5.18A3.87,3.87,0,0,0,406.21,63a3.94,3.94,0,0,0,3,0,3.9,3.9,0,0,0,2-5.13Z" fill="#d63d4f"/><path d="M457,28.29a4.7,4.7,0,0,0-6.1,7.14,4.6,4.6,0,0,0,3,1.12l.39,0a4.7,4.7,0,0,0,2.7-8.24Z" fill="#d63d4f"/><path d="M471.86,13.42A3.11,3.11,0,1,0,469,17.77a3,3,0,0,0,1.24-.26A3.11,3.11,0,0,0,471.86,13.42Z" fill="#d63d4f"/><path d="M437.37,52.81a3.12,3.12,0,0,0-4.1-1.61,3.12,3.12,0,0,0,.1,5.75,3.21,3.21,0,0,0,1.14.22,3.17,3.17,0,0,0,1.24-.26A3.13,3.13,0,0,0,437.37,52.81Z" fill="#d63d4f"/><path d="M481.3,39.7a3.11,3.11,0,1,0-2.85,4.35,3.17,3.17,0,0,0,1.24-.26A3.11,3.11,0,0,0,481.3,39.7Z" fill="#d63d4f"/><path d="M4.66,42.14A13.8,13.8,0,0,1,.47,39.22a1.17,1.17,0,0,1-.1-1.79A1.14,1.14,0,0,1,1.21,37a1.2,1.2,0,0,1,.86.39,9.84,9.84,0,0,0,7.6,3.35,7.76,7.76,0,0,0,4.66-1.33A4.06,4.06,0,0,0,16.18,36a4.26,4.26,0,0,0-.91-2.79,6.85,6.85,0,0,0-2.4-1.81,31.18,31.18,0,0,0-3.78-1.44,23.62,23.62,0,0,1-4.2-1.64,7.8,7.8,0,0,1-2.75-2.4,6.48,6.48,0,0,1-1-3.8A6.29,6.29,0,0,1,2.2,18.43a7.48,7.48,0,0,1,3.12-2.51A11,11,0,0,1,9.94,15a12.44,12.44,0,0,1,4.47.8,8,8,0,0,1,3.34,2.28,1.93,1.93,0,0,1,.58,1.13,1.09,1.09,0,0,1-.39.8,1.22,1.22,0,0,1-.86.37.9.9,0,0,1-.66-.27,7.69,7.69,0,0,0-2.81-2,8.93,8.93,0,0,0-3.67-.78A7.85,7.85,0,0,0,5.3,18.57,4,4,0,0,0,3.51,22a4,4,0,0,0,1.72,3.47,17.93,17.93,0,0,0,4.91,2.22,30.08,30.08,0,0,1,4.52,1.68,7.46,7.46,0,0,1,2.87,2.44A7.07,7.07,0,0,1,18.64,36a6.06,6.06,0,0,1-1.15,3.61,7.74,7.74,0,0,1-3.2,2.55,11,11,0,0,1-4.66.94A12.31,12.31,0,0,1,4.66,42.14Z" fill="#404041"/><path d="M27.65,42.34a1.27,1.27,0,0,1-1.73,0,1.15,1.15,0,0,1-.34-.88V16.6a1.17,1.17,0,0,1,.35-.88,1.28,1.28,0,0,1,.9-.33,1.18,1.18,0,0,1,.86.35,1.19,1.19,0,0,1,.35.86V41.48A1.35,1.35,0,0,1,27.65,42.34Z" fill="#404041"/><path d="M59.4,36.26a12.83,12.83,0,0,1-22.78,0A15.31,15.31,0,0,1,34.94,29a15.35,15.35,0,0,1,1.68-7.25,12.59,12.59,0,0,1,4.64-5,13.6,13.6,0,0,1,13.49,0,12.54,12.54,0,0,1,4.65,5A15.47,15.47,0,0,1,61.07,29,15.43,15.43,0,0,1,59.4,36.26ZM57.23,23a10.27,10.27,0,0,0-18.44,0A13.24,13.24,0,0,0,37.44,29a13.24,13.24,0,0,0,1.35,6.06,10,10,0,0,0,3.74,4.16,10.89,10.89,0,0,0,11,0,10.08,10.08,0,0,0,3.74-4.16A13.24,13.24,0,0,0,58.58,29,13.24,13.24,0,0,0,57.23,23Z" fill="#404041"/><path d="M90.67,36.26a12.82,12.82,0,0,1-22.77,0A15.31,15.31,0,0,1,66.22,29a15.35,15.35,0,0,1,1.68-7.25,12.52,12.52,0,0,1,4.64-5,13.6,13.6,0,0,1,13.49,0,12.45,12.45,0,0,1,4.64,5A15.35,15.35,0,0,1,92.35,29,15.31,15.31,0,0,1,90.67,36.26ZM88.51,23a10.28,10.28,0,0,0-18.45,0A13.37,13.37,0,0,0,68.72,29a13.37,13.37,0,0,0,1.34,6.06,10,10,0,0,0,9.23,5.64,10.2,10.2,0,0,0,5.48-1.48,10.08,10.08,0,0,0,3.74-4.16A13.24,13.24,0,0,0,89.86,29,13.24,13.24,0,0,0,88.51,23Z" fill="#404041"/><path d="M119.81,18.39a1.47,1.47,0,0,1-.27.78,1.12,1.12,0,0,1-.9.43,1.18,1.18,0,0,1-.63-.19,12.08,12.08,0,0,0-6.82-2.07,11.12,11.12,0,0,0-5.71,1.48,10.52,10.52,0,0,0-4,4.16A12.35,12.35,0,0,0,100,29a12.43,12.43,0,0,0,1.48,6.14,10.63,10.63,0,0,0,4,4.14,11.3,11.3,0,0,0,5.68,1.46,12.08,12.08,0,0,0,6.78-2,1.24,1.24,0,0,1,.67-.19,1.09,1.09,0,0,1,.9.46,1.11,1.11,0,0,1,.27.75,1,1,0,0,1-.55.93,14.27,14.27,0,0,1-3.74,1.7,14.89,14.89,0,0,1-4.33.68,13.74,13.74,0,0,1-6.85-1.77,13.25,13.25,0,0,1-5-5A14.31,14.31,0,0,1,97.5,29a14.23,14.23,0,0,1,1.83-7.16A13.41,13.41,0,0,1,111.19,15a15.05,15.05,0,0,1,4.27.62,13.68,13.68,0,0,1,3.76,1.76A1.09,1.09,0,0,1,119.81,18.39Z" fill="#404041"/><path d="M158.65,41.6a1.06,1.06,0,0,1-.35.82,1.18,1.18,0,0,1-.82.31,1.07,1.07,0,0,1-.68-.22,1.31,1.31,0,0,1-.45-.56l-2.93-7.14H140.75L137.86,42a1.08,1.08,0,0,1-1.05.78,1.13,1.13,0,0,1-.82-.27,1.19,1.19,0,0,1-.31-.74V41.6a1,1,0,0,1,0-.35L146,16.05a1.16,1.16,0,0,1,1.17-.78,1.18,1.18,0,0,1,.69.22,1.47,1.47,0,0,1,.45.56l10.25,25.08A1.81,1.81,0,0,1,158.65,41.6Zm-17-9.09h10.84L147,19.17Z" fill="#404041"/><path d="M181.13,15.7a1.05,1.05,0,0,1,.34.82,1,1,0,0,1-.34.8,1.19,1.19,0,0,1-.83.29h-8.08V41.52a1.08,1.08,0,0,1-.35.84,1.2,1.2,0,0,1-.86.33,1.18,1.18,0,0,1-.87-.33,1.14,1.14,0,0,1-.33-.84V17.61h-8.08a1.16,1.16,0,0,1-.84-.31,1.08,1.08,0,0,1-.33-.82,1,1,0,0,1,.33-.78,1.21,1.21,0,0,1,.84-.31H180.3A1.2,1.2,0,0,1,181.13,15.7Z" fill="#404041"/><path d="M203.79,40.7a1.08,1.08,0,0,1,.34.82,1.15,1.15,0,0,1-.34.84,1.13,1.13,0,0,1-.83.33H189a1.13,1.13,0,0,1-1.17-1.17v-25a1.12,1.12,0,0,1,.35-.84,1.28,1.28,0,0,1,.9-.33,1.22,1.22,0,0,1,.86.33,1.12,1.12,0,0,1,.35.84V40.39H203A1.16,1.16,0,0,1,203.79,40.7Z" fill="#404041"/><path d="M230.45,41.6a1.06,1.06,0,0,1-.35.82,1.2,1.2,0,0,1-.82.31,1.07,1.07,0,0,1-.68-.22,1.31,1.31,0,0,1-.45-.56l-2.93-7.14H212.55L209.66,42a1.08,1.08,0,0,1-1,.78,1.13,1.13,0,0,1-.82-.27,1.14,1.14,0,0,1-.31-.74V41.6a1,1,0,0,1,0-.35l10.29-25.2a1.16,1.16,0,0,1,1.17-.78,1.18,1.18,0,0,1,.69.22,1.36,1.36,0,0,1,.44.56l10.26,25.08A2.38,2.38,0,0,1,230.45,41.6Zm-17-9.09h10.84l-5.46-13.34Z" fill="#404041"/><path d="M257.42,15.7a1.12,1.12,0,0,1,.29.78v25a1.22,1.22,0,0,1-.35.92,1.2,1.2,0,0,1-.86.33,1.24,1.24,0,0,1-.53-.12,1.34,1.34,0,0,1-.4-.27L238.83,19.76V41.64a1,1,0,0,1-.33.74,1.11,1.11,0,0,1-1.54,0,1,1,0,0,1-.31-.74V16.56a1.14,1.14,0,0,1,.33-.86,1.16,1.16,0,0,1,.8-.31,1.08,1.08,0,0,1,.94.43l16.81,22.66v-22a1.06,1.06,0,0,1,.31-.78,1.1,1.1,0,0,1,.78-.31A1.08,1.08,0,0,1,257.42,15.7Z" fill="#404041"/><path d="M284.68,15.7a1.08,1.08,0,0,1,.33.82,1,1,0,0,1-.33.8,1.19,1.19,0,0,1-.84.29h-8.07V41.52a1.12,1.12,0,0,1-.35.84,1.22,1.22,0,0,1-.86.33,1.18,1.18,0,0,1-.88-.33,1.14,1.14,0,0,1-.33-.84V17.61h-8.07a1.16,1.16,0,0,1-.84-.31,1.08,1.08,0,0,1-.33-.82,1,1,0,0,1,.33-.78,1.21,1.21,0,0,1,.84-.31h18.56A1.21,1.21,0,0,1,284.68,15.7Z" fill="#404041"/><path d="M293.47,42.34a1.19,1.19,0,0,1-2.06-.86V16.6a1.14,1.14,0,0,1,.35-.88,1.24,1.24,0,0,1,.89-.33,1.18,1.18,0,0,1,.86.35,1.15,1.15,0,0,1,.35.86V41.48A1.26,1.26,0,0,1,293.47,42.34Z" fill="#404041"/><path d="M329.51,45.19a1,1,0,0,1,.31.74,2.18,2.18,0,0,1-1.15,1.67A9.93,9.93,0,0,1,325.82,49a10.65,10.65,0,0,1-3.14.53A12.33,12.33,0,0,1,319,49a24.91,24.91,0,0,1-3.3-1.39,18.09,18.09,0,0,0-2.45-1.13,7.41,7.41,0,0,0-2.38-.35,3.26,3.26,0,0,0-.92.12,7.62,7.62,0,0,0-1,.39,3.59,3.59,0,0,1-1.25.39,1.08,1.08,0,0,1-.8-.35,1.17,1.17,0,0,1-.33-.82,1,1,0,0,1,.66-1L312.31,43a12.17,12.17,0,0,1-6-2.24,12.84,12.84,0,0,1-4.07-4.93A15.4,15.4,0,0,1,300.77,29a15.35,15.35,0,0,1,1.67-7.25,12.59,12.59,0,0,1,4.64-5,13.62,13.62,0,0,1,13.5,0,12.59,12.59,0,0,1,4.64,5A15.35,15.35,0,0,1,326.9,29a15.77,15.77,0,0,1-1.27,6.36,13,13,0,0,1-3.53,4.79,12,12,0,0,1-5.27,2.58l-4.09,1.36a7.6,7.6,0,0,1,2.05.49c.61.25,1.38.59,2.32,1A19.2,19.2,0,0,0,320,46.88a8.83,8.83,0,0,0,2.81.41,6.43,6.43,0,0,0,2.28-.35,10,10,0,0,0,1.86-.9,3.51,3.51,0,0,0,.74-.58,4.21,4.21,0,0,1,.56-.41,1.09,1.09,0,0,1,.57-.18A1,1,0,0,1,329.51,45.19ZM304.61,35.1a10,10,0,0,0,3.74,4.16,10.89,10.89,0,0,0,11,0,10,10,0,0,0,3.74-4.16A13.24,13.24,0,0,0,324.4,29,13.24,13.24,0,0,0,323.05,23a10.07,10.07,0,0,0-3.74-4.16,10.89,10.89,0,0,0-11,0A10.07,10.07,0,0,0,304.61,23,13.24,13.24,0,0,0,303.26,29,13.24,13.24,0,0,0,304.61,35.1Z" fill="#404041"/><path d="M354.33,15.72a1.14,1.14,0,0,1,.33.84V32.71a10.3,10.3,0,0,1-1.36,5.22,10.22,10.22,0,0,1-17.75,0,10.3,10.3,0,0,1-1.36-5.22V16.56a1.14,1.14,0,0,1,.33-.84,1.25,1.25,0,0,1,.92-.33,1.17,1.17,0,0,1,.82.33,1.12,1.12,0,0,1,.35.84V32.71a8,8,0,0,0,3.92,6.92,7.77,7.77,0,0,0,7.87,0,8.06,8.06,0,0,0,2.89-2.91,7.84,7.84,0,0,0,1.07-4V16.56a1.21,1.21,0,0,1,.31-.84,1.09,1.09,0,0,1,.82-.33A1.14,1.14,0,0,1,354.33,15.72Z" fill="#404041"/><path d="M379.72,40.74a1.16,1.16,0,0,1,.33.82,1.08,1.08,0,0,1-.33.82,1.16,1.16,0,0,1-.84.31H364.57a1.13,1.13,0,0,1-1.17-1.17v-25a1.13,1.13,0,0,1,1.17-1.17h14.31a1.13,1.13,0,0,1,1.17,1.17,1.08,1.08,0,0,1-.33.82,1.16,1.16,0,0,1-.84.31h-13v9.79h11.27a1.13,1.13,0,0,1,.83.33,1.11,1.11,0,0,1,.34.84,1.05,1.05,0,0,1-.34.82,1.16,1.16,0,0,1-.83.31H365.86V40.39h13A1.12,1.12,0,0,1,379.72,40.74Z" fill="#404041"/><path d="M135.24,64.05a3.7,3.7,0,0,1-1.36-.79.91.91,0,0,1-.36-.69.71.71,0,0,1,.23-.52.67.67,0,0,1,.53-.23.71.71,0,0,1,.44.15,3.78,3.78,0,0,0,1,.63,3.19,3.19,0,0,0,1.17.19,2.41,2.41,0,0,0,1.26-.32,1,1,0,0,0,.52-.81,1,1,0,0,0-.51-.91,4.24,4.24,0,0,0-1.66-.5c-1.89-.28-2.84-1.17-2.84-2.66a2.36,2.36,0,0,1,.43-1.42,2.64,2.64,0,0,1,1.17-.92,4,4,0,0,1,1.65-.32,4.87,4.87,0,0,1,1.54.24,3.82,3.82,0,0,1,1.2.66.85.85,0,0,1,.38.68.77.77,0,0,1-.22.53.71.71,0,0,1-.52.23.55.55,0,0,1-.35-.12,3.47,3.47,0,0,0-.95-.5,3.13,3.13,0,0,0-1.08-.23,2.27,2.27,0,0,0-1.27.31,1,1,0,0,0,0,1.64,4.37,4.37,0,0,0,1.45.47,7.71,7.71,0,0,1,1.79.5,2.34,2.34,0,0,1,1,.83,2.61,2.61,0,0,1,.34,1.4,2.32,2.32,0,0,1-.47,1.44,2.88,2.88,0,0,1-1.23,1,4.12,4.12,0,0,1-1.65.33A5.32,5.32,0,0,1,135.24,64.05Z" fill="#808081"/><path d="M148,56.31l-2.72,3.88v3.18a.76.76,0,0,1-.22.56.72.72,0,0,1-.53.23.75.75,0,0,1-.55-.23.73.73,0,0,1-.23-.56V60L141,56.42a1.06,1.06,0,0,1-.23-.61.71.71,0,0,1,.27-.56.8.8,0,0,1,.56-.23.78.78,0,0,1,.64.36l2.29,3.16,2.14-3.13a.75.75,0,0,1,1.2-.16.82.82,0,0,1,.23.58A.92.92,0,0,1,148,56.31Z" fill="#808081"/><path d="M150.23,64.05a3.82,3.82,0,0,1-1.37-.79.93.93,0,0,1-.35-.69.74.74,0,0,1,.22-.52.74.74,0,0,1,1-.08,3.78,3.78,0,0,0,1,.63,3.19,3.19,0,0,0,1.17.19,2.41,2.41,0,0,0,1.26-.32,1,1,0,0,0,.52-.81,1,1,0,0,0-.52-.91,4.13,4.13,0,0,0-1.65-.5c-1.89-.28-2.84-1.17-2.84-2.66a2.43,2.43,0,0,1,.42-1.42,2.76,2.76,0,0,1,1.17-.92,4.06,4.06,0,0,1,1.66-.32,4.87,4.87,0,0,1,1.54.24,3.82,3.82,0,0,1,1.2.66.85.85,0,0,1,.38.68.74.74,0,0,1-.23.53.69.69,0,0,1-.51.23.6.6,0,0,1-.36-.12,3.39,3.39,0,0,0-.94-.5,3.13,3.13,0,0,0-1.08-.23,2.27,2.27,0,0,0-1.27.31,1,1,0,0,0,0,1.64,4.37,4.37,0,0,0,1.45.47,7.71,7.71,0,0,1,1.79.5,2.4,2.4,0,0,1,1,.83,2.61,2.61,0,0,1,.33,1.4,2.32,2.32,0,0,1-.46,1.44,2.94,2.94,0,0,1-1.23,1,4.12,4.12,0,0,1-1.65.33A5.28,5.28,0,0,1,150.23,64.05Z" fill="#808081"/><path d="M163.28,55.27a.7.7,0,0,1,.22.54.67.67,0,0,1-.22.54.8.8,0,0,1-.57.2h-2v6.82a.75.75,0,0,1-.25.56.87.87,0,0,1-.61.23.85.85,0,0,1-.6-.23.77.77,0,0,1-.23-.56V56.55h-2a.77.77,0,0,1-.57-.21.74.74,0,0,1,0-1.07.8.8,0,0,1,.57-.21h5.77A.8.8,0,0,1,163.28,55.27Z" fill="#808081"/><path d="M170.58,62.89a.74.74,0,0,1,.23.53.7.7,0,0,1-.23.53.8.8,0,0,1-.57.21h-4.35a.79.79,0,0,1-.57-.23.76.76,0,0,1-.22-.56V55.85a.77.77,0,0,1,.79-.79H170a.8.8,0,0,1,.57.21.75.75,0,0,1,.23.56.69.69,0,0,1-.22.52.8.8,0,0,1-.58.2h-3.52v2.21h2.94A.78.78,0,0,1,170,59a.71.71,0,0,1,.22.55.68.68,0,0,1-.22.53.84.84,0,0,1-.57.2h-2.94v2.4H170A.78.78,0,0,1,170.58,62.89Zm-3-8.46-1.3-.68a1.09,1.09,0,0,1-.35-.32.6.6,0,0,1-.13-.37.58.58,0,0,1,.22-.46.75.75,0,0,1,.47-.18,1,1,0,0,1,.64.28l1.12,1a.5.5,0,0,1,.18.35.42.42,0,0,1-.15.34.57.57,0,0,1-.4.13A.61.61,0,0,1,167.54,54.43Z" fill="#808081"/><path d="M180.76,55.27a.75.75,0,0,1,.24.57v7.53a.76.76,0,0,1-.22.56.79.79,0,0,1-.59.23.84.84,0,0,1-.59-.22.78.78,0,0,1-.23-.57V58.13l-2.14,3.27a1.22,1.22,0,0,1-.3.26.62.62,0,0,1-.35.08.61.61,0,0,1-.34-.08,1.22,1.22,0,0,1-.3-.26L173.8,58v5.36a.8.8,0,0,1-.21.57.75.75,0,0,1-.55.22.7.7,0,0,1-.53-.23.79.79,0,0,1-.21-.56V55.84a.76.76,0,0,1,.24-.56.8.8,0,0,1,.58-.24.94.94,0,0,1,.39.1.77.77,0,0,1,.3.26l2.83,4.35,2.92-4.35a.78.78,0,0,1,.28-.26.74.74,0,0,1,.35-.1A.81.81,0,0,1,180.76,55.27Z" fill="#808081"/><path d="M188.66,62.89a.74.74,0,0,1,.23.53.7.7,0,0,1-.23.53.79.79,0,0,1-.56.21h-4.36a.77.77,0,0,1-.56-.23.73.73,0,0,1-.23-.56V55.85a.79.79,0,0,1,.79-.79h4.36a.79.79,0,0,1,.56.21.75.75,0,0,1,.23.56.66.66,0,0,1-.22.52.8.8,0,0,1-.57.2h-3.53v2.21h2.94a.77.77,0,0,1,.57.22.71.71,0,0,1,.22.55.68.68,0,0,1-.22.53.81.81,0,0,1-.57.2h-2.94v2.4h3.53A.77.77,0,0,1,188.66,62.89Z" fill="#808081"/><path d="M195.4,63.93a.81.81,0,0,1-.57.23.8.8,0,0,1-.58-.23.77.77,0,0,1-.23-.56V55.85a.74.74,0,0,1,.24-.56.78.78,0,0,1,.6-.23.79.79,0,0,1,.79.79v7.52A.72.72,0,0,1,195.4,63.93Z" fill="#808081"/><path d="M205,55.27a.73.73,0,0,1,.19.52v7.58a.76.76,0,0,1-.22.56.78.78,0,0,1-.57.23,1.13,1.13,0,0,1-.36-.06.52.52,0,0,1-.25-.16L199,57.88v5.55a.73.73,0,0,1-.2.52.71.71,0,0,1-.53.21.66.66,0,0,1-.51-.21.73.73,0,0,1-.19-.52V55.85a.79.79,0,0,1,.79-.79.91.91,0,0,1,.39.08.64.64,0,0,1,.27.2l4.74,6V55.79a.69.69,0,0,1,.2-.52.72.72,0,0,1,1,0Z" fill="#808081"/><path d="M213.71,55.27a.74.74,0,0,1,.22.54.71.71,0,0,1-.22.54.8.8,0,0,1-.58.2h-2v6.82a.74.74,0,0,1-.24.56.9.9,0,0,1-.62.23.81.81,0,0,1-.59-.23.74.74,0,0,1-.24-.56V56.55h-2a.8.8,0,0,1-.57-.21.69.69,0,0,1-.22-.54.66.66,0,0,1,.23-.53.79.79,0,0,1,.56-.21h5.77A.81.81,0,0,1,213.71,55.27Z" fill="#808081"/><path d="M221,62.89a.7.7,0,0,1,.23.53A.67.67,0,0,1,221,64a.78.78,0,0,1-.56.21h-4.36a.79.79,0,0,1-.79-.79V55.85a.77.77,0,0,1,.23-.56.73.73,0,0,1,.56-.23h4.36a.78.78,0,0,1,.56.21.72.72,0,0,1,.23.56.66.66,0,0,1-.22.52.8.8,0,0,1-.57.2h-3.52v2.21h2.93a.77.77,0,0,1,.57.22.76.76,0,0,1,0,1.08.85.85,0,0,1-.58.2h-2.93v2.4h3.52A.75.75,0,0,1,221,62.89Zm-3.09-8.46a.4.4,0,0,1-.15-.33.47.47,0,0,1,.18-.35l1.12-1a1,1,0,0,1,.64-.29.75.75,0,0,1,.47.18.6.6,0,0,1,.22.46.62.62,0,0,1-.13.38.88.88,0,0,1-.35.31l-1.3.69a.6.6,0,0,1-.3.07A.57.57,0,0,1,217.91,54.43Z" fill="#808081"/><path d="M230,59.47a.77.77,0,0,1,.22.57v2.75a.79.79,0,0,1-.4.71,5.25,5.25,0,0,1-2.79.79A4.75,4.75,0,0,1,222.91,62a4.43,4.43,0,0,1-.64-2.34,4.49,4.49,0,0,1,.64-2.35A4.77,4.77,0,0,1,227,54.93a4.51,4.51,0,0,1,2.23.52.79.79,0,0,1,.3.27.74.74,0,0,1,.09.36.84.84,0,0,1-.21.57.68.68,0,0,1-.53.24,1.06,1.06,0,0,1-.43-.1,3.66,3.66,0,0,0-1.45-.3,3,3,0,0,0-1.54.42,3,3,0,0,0-1.11,1.14,3.17,3.17,0,0,0,0,3.12,3.19,3.19,0,0,0,1.11,1.14,3,3,0,0,0,1.54.42,4.42,4.42,0,0,0,.78-.07,4.37,4.37,0,0,0,.73-.17V60.8H227.3a.76.76,0,0,1-.56-.22.74.74,0,0,1-.23-.56.77.77,0,0,1,.23-.56.8.8,0,0,1,.56-.22h2.13A.74.74,0,0,1,230,59.47Z" fill="#808081"/><path d="M239.18,63.16a.74.74,0,0,1,.1.35.72.72,0,0,1-.16.43.75.75,0,0,1-.6.23A1.2,1.2,0,0,1,238,64a2.3,2.3,0,0,1-.94-2.17.94.94,0,0,0-.3-.74,1.26,1.26,0,0,0-.88-.28H233.4v2.53a.84.84,0,0,1-.19.57.64.64,0,0,1-.5.22,1,1,0,0,1-.66-.23.72.72,0,0,1-.28-.56V55.85a.77.77,0,0,1,.23-.56.74.74,0,0,1,.57-.23h3.74a2.46,2.46,0,0,1,1.28.36,2.77,2.77,0,0,1,.95,1,2.87,2.87,0,0,1,.36,1.43,2.56,2.56,0,0,1-.35,1.27,2.86,2.86,0,0,1-.91,1,2,2,0,0,1,.9,1.54,2.8,2.8,0,0,1,0,.4,4,4,0,0,0,.11.58.42.42,0,0,0,.23.26A.81.81,0,0,1,239.18,63.16Zm-2.48-3.88a1.61,1.61,0,0,0,.37-.59,2.32,2.32,0,0,0,.14-.8,1.67,1.67,0,0,0-.14-.67,1.4,1.4,0,0,0-.37-.48.68.68,0,0,0-.45-.19H233.4v3h2.85A.64.64,0,0,0,236.7,59.28Z" fill="#808081"/><path d="M246.42,62.89a.74.74,0,0,1,.23.53.7.7,0,0,1-.23.53.8.8,0,0,1-.57.21H241.5a.78.78,0,0,1-.57-.23.76.76,0,0,1-.22-.56V55.85a.76.76,0,0,1,.22-.56.74.74,0,0,1,.57-.23h4.35a.8.8,0,0,1,.57.21.75.75,0,0,1,.23.56.69.69,0,0,1-.22.52.8.8,0,0,1-.58.2h-3.52v2.21h2.94a.76.76,0,0,1,.56.22.76.76,0,0,1,0,1.08.84.84,0,0,1-.57.2h-2.94v2.4h3.52A.78.78,0,0,1,246.42,62.89Zm-3.09-8.46a.4.4,0,0,1-.15-.33.47.47,0,0,1,.18-.35l1.12-1a1,1,0,0,1,.63-.29.73.73,0,0,1,.47.18.57.57,0,0,1,.22.46.68.68,0,0,1-.12.38.85.85,0,0,1-.36.31l-1.3.69a.6.6,0,0,1-.3.07A.54.54,0,0,1,243.33,54.43Z" fill="#808081"/><path d="M257.78,55.66a3.87,3.87,0,0,1,1.34,1.64,6,6,0,0,1,0,4.62,3.84,3.84,0,0,1-1.34,1.63,3.54,3.54,0,0,1-2.1.61h-3.11a.79.79,0,0,1-.79-.79V55.85a.77.77,0,0,1,.23-.56.73.73,0,0,1,.56-.23h3.11A3.61,3.61,0,0,1,257.78,55.66Zm-.47,6.14a3.84,3.84,0,0,0,.58-2.19,3.8,3.8,0,0,0-.59-2.19,2,2,0,0,0-1.75-.87h-2.14v6.11h2.14A2,2,0,0,0,257.31,61.8Z" fill="#808081"/><path d="M262.7,57.12a2.9,2.9,0,0,1-.57.8,1.09,1.09,0,0,1-.73.34.75.75,0,0,1-.45-.13.43.43,0,0,1-.17-.39.38.38,0,0,1,.1-.3,1,1,0,0,1,.23-.12l.17-.07a.57.57,0,0,0,.37-.51.34.34,0,0,0-.14-.26.57.57,0,0,0-.36-.11.66.66,0,0,0-.36.09.61.61,0,0,1-.24-.17.46.46,0,0,1-.09-.31.77.77,0,0,1,.2-.49,1.44,1.44,0,0,1,.48-.36,1.32,1.32,0,0,1,.56-.14,1.16,1.16,0,0,1,.9.36,1.5,1.5,0,0,1,.32,1A1.75,1.75,0,0,1,262.7,57.12Z" fill="#808081"/><path d="M272.45,62a4.36,4.36,0,0,1-1.58,1.69,4.4,4.4,0,0,1-4.54,0A4.33,4.33,0,0,1,264.76,62a5.25,5.25,0,0,1,0-4.72,4.36,4.36,0,0,1,1.57-1.7,4.47,4.47,0,0,1,4.54,0,4.39,4.39,0,0,1,1.58,1.7,5.17,5.17,0,0,1,0,4.72ZM271,58a2.89,2.89,0,0,0-1-1.13,2.56,2.56,0,0,0-1.41-.41,2.43,2.43,0,0,0-1.41.41,2.77,2.77,0,0,0-1,1.12,3.63,3.63,0,0,0-.34,1.59,3.55,3.55,0,0,0,.34,1.58,2.73,2.73,0,0,0,1,1.13,2.6,2.6,0,0,0,2.82,0,2.79,2.79,0,0,0,1-1.12A3.74,3.74,0,0,0,271,58Z" fill="#808081"/><path d="M281.1,60a2.27,2.27,0,0,1,.44,1.44,2.45,2.45,0,0,1-.89,2.16,3.66,3.66,0,0,1-2.1.61h-3.24a.77.77,0,0,1-.56-.23.73.73,0,0,1-.23-.56V55.85a.79.79,0,0,1,.79-.79h3.28c1.64,0,2.47.77,2.47,2.31a2,2,0,0,1-.28,1,2,2,0,0,1-.8.7A2.62,2.62,0,0,1,281.1,60Zm-2-3.09a1,1,0,0,0-.75-.27h-2.14v2h2.18a1,1,0,0,0,.68-.26.88.88,0,0,0,.3-.7A1.07,1.07,0,0,0,279.1,56.86Zm.4,5.48a1.25,1.25,0,0,0,.35-1,1.08,1.08,0,0,0-.4-1,1.91,1.91,0,0,0-1-.24h-2.25v2.51h2.34A1.35,1.35,0,0,0,279.5,62.34Z" fill="#808081"/><path d="M284.29,64.05a3.78,3.78,0,0,1-1.36-.79.9.9,0,0,1-.35-.69.7.7,0,0,1,.22-.52.72.72,0,0,1,1-.08,3.82,3.82,0,0,0,1,.63,3.19,3.19,0,0,0,1.17.19,2.39,2.39,0,0,0,1.25-.32,1,1,0,0,0,.53-.81,1,1,0,0,0-.52-.91,4.24,4.24,0,0,0-1.65-.5c-1.9-.28-2.85-1.17-2.85-2.66a2.36,2.36,0,0,1,.43-1.42,2.76,2.76,0,0,1,1.17-.92,4,4,0,0,1,1.65-.32,4.82,4.82,0,0,1,1.54.24,3.82,3.82,0,0,1,1.2.66.85.85,0,0,1,.38.68.73.73,0,0,1-.22.53.71.71,0,0,1-.52.23.55.55,0,0,1-.35-.12,3.54,3.54,0,0,0-.94-.5,3.23,3.23,0,0,0-1.09-.23,2.27,2.27,0,0,0-1.27.31,1,1,0,0,0,0,1.64,4.29,4.29,0,0,0,1.45.47,7.61,7.61,0,0,1,1.78.5,2.28,2.28,0,0,1,1,.83,2.52,2.52,0,0,1,.34,1.4,2.38,2.38,0,0,1-.46,1.44,3,3,0,0,1-1.23,1,4.12,4.12,0,0,1-1.65.33A5.34,5.34,0,0,1,284.29,64.05Z" fill="#808081"/><path d="M296.51,62.89a.73.73,0,0,1,.22.53.69.69,0,0,1-.22.53.8.8,0,0,1-.57.21h-4.35a.79.79,0,0,1-.8-.79V55.85a.77.77,0,0,1,.23-.56.74.74,0,0,1,.57-.23h4.35a.8.8,0,0,1,.57.21.75.75,0,0,1,.22.56.66.66,0,0,1-.22.52.76.76,0,0,1-.57.2h-3.52v2.21h2.94a.76.76,0,0,1,.56.22.72.72,0,0,1,.23.55.68.68,0,0,1-.22.53.84.84,0,0,1-.57.2h-2.94v2.4h3.52A.78.78,0,0,1,296.51,62.89Z" fill="#808081"/><path d="M305.63,63.16a.64.64,0,0,1,.1.35.66.66,0,0,1-.16.43.75.75,0,0,1-.59.23,1.27,1.27,0,0,1-.58-.14,2.29,2.29,0,0,1-.93-2.17.91.91,0,0,0-.31-.74,1.21,1.21,0,0,0-.87-.28h-2.44v2.53a.88.88,0,0,1-.18.57.67.67,0,0,1-.5.22,1,1,0,0,1-.66-.23.69.69,0,0,1-.28-.56V55.85a.79.79,0,0,1,.79-.79h3.75a2.42,2.42,0,0,1,1.27.36,2.71,2.71,0,0,1,1,1,3,3,0,0,1,.35,1.43,2.46,2.46,0,0,1-.35,1.27,2.77,2.77,0,0,1-.91,1,2,2,0,0,1,.9,1.54,2.85,2.85,0,0,1,0,.4,4.37,4.37,0,0,0,.1.58.43.43,0,0,0,.24.26A.7.7,0,0,1,305.63,63.16Zm-2.47-3.88a1.75,1.75,0,0,0,.36-.59,2.1,2.1,0,0,0,.14-.8,1.48,1.48,0,0,0-.5-1.15.69.69,0,0,0-.46-.19h-2.85v3h2.85A.64.64,0,0,0,303.16,59.28Z" fill="#808081"/><path d="M314.17,55.25a.71.71,0,0,1,.24.54.77.77,0,0,1-.08.35l-3.21,7.51a.83.83,0,0,1-.76.51A.84.84,0,0,1,310,64a.7.7,0,0,1-.29-.36l-3.22-7.54a.79.79,0,0,1,.2-.89.83.83,0,0,1,.53-.21.72.72,0,0,1,.42.13.83.83,0,0,1,.3.38l2.61,6.14,2.39-6.14a.85.85,0,0,1,.3-.37.8.8,0,0,1,.42-.13A.84.84,0,0,1,314.17,55.25Z" fill="#808081"/><path d="M322.54,63.46a.76.76,0,0,1-.22.55.73.73,0,0,1-.51.21.63.63,0,0,1-.42-.14.91.91,0,0,1-.3-.39l-.67-1.57h-3.88l-.67,1.58a.82.82,0,0,1-.28.39.69.69,0,0,1-.41.13.66.66,0,0,1-.51-.18.67.67,0,0,1-.18-.49.77.77,0,0,1,0-.25l3.24-7.77a.86.86,0,0,1,.31-.41.69.69,0,0,1,.47-.11.75.75,0,0,1,.43.13.72.72,0,0,1,.29.39l3.2,7.61A.81.81,0,0,1,322.54,63.46Zm-5.36-2.84h2.6l-1.31-3Z" fill="#808081"/><path d="M329.54,55.27a.71.71,0,0,1,.23.54.68.68,0,0,1-.23.54.76.76,0,0,1-.57.2h-2v6.82a.72.72,0,0,1-.25.56.85.85,0,0,1-.61.23.81.81,0,0,1-.59-.23.74.74,0,0,1-.24-.56V56.55h-2a.8.8,0,0,1-.57-.21.69.69,0,0,1-.22-.54.68.68,0,0,1,.22-.53.84.84,0,0,1,.57-.21H329A.77.77,0,0,1,329.54,55.27Z" fill="#808081"/><path d="M332.51,63.93a.85.85,0,0,1-.57.23.78.78,0,0,1-.58-.23.77.77,0,0,1-.23-.56V55.85a.77.77,0,0,1,.23-.56.81.81,0,0,1,.6-.23.79.79,0,0,1,.79.79v7.52A.74.74,0,0,1,332.51,63.93Z" fill="#808081"/><path d="M342.51,62a4.43,4.43,0,0,1-1.58,1.69,4.4,4.4,0,0,1-4.54,0A4.26,4.26,0,0,1,334.82,62a5.17,5.17,0,0,1,0-4.72,4.38,4.38,0,0,1,6.11-1.7,4.46,4.46,0,0,1,1.58,1.7,5.17,5.17,0,0,1,0,4.72ZM341,58a2.91,2.91,0,0,0-1-1.13,2.5,2.5,0,0,0-1.4-.41,2.43,2.43,0,0,0-1.41.41,2.62,2.62,0,0,0-1,1.12,3.63,3.63,0,0,0-.35,1.59,3.56,3.56,0,0,0,.35,1.58,2.59,2.59,0,0,0,1,1.13,2.51,2.51,0,0,0,1.41.41,2.43,2.43,0,0,0,1.4-.42,2.81,2.81,0,0,0,1-1.12A3.74,3.74,0,0,0,341,58Z" fill="#808081"/><path d="M352,55.27a.73.73,0,0,1,.2.52v7.58a.79.79,0,0,1-.8.79,1,1,0,0,1-.35-.06.55.55,0,0,1-.26-.16L346,57.88v5.55a.7.7,0,0,1-.73.73.66.66,0,0,1-.5-.21.73.73,0,0,1-.2-.52V55.85a.77.77,0,0,1,.23-.56.74.74,0,0,1,.57-.23.87.87,0,0,1,.38.08.61.61,0,0,1,.28.2l4.73,6V55.79a.73.73,0,0,1,.2-.52.7.7,0,0,1,.52-.21A.66.66,0,0,1,352,55.27Z" fill="#808081"/><path d="M363.77,55.66a3.94,3.94,0,0,1,1.34,1.64,6,6,0,0,1,0,4.62,3.91,3.91,0,0,1-1.34,1.63,3.58,3.58,0,0,1-2.1.61h-3.11a.79.79,0,0,1-.57-.23.76.76,0,0,1-.22-.56V55.85a.77.77,0,0,1,.79-.79h3.11A3.65,3.65,0,0,1,363.77,55.66Zm-.48,6.14a3.84,3.84,0,0,0,.59-2.19,3.8,3.8,0,0,0-.59-2.19,2,2,0,0,0-1.75-.87h-2.15v6.11h2.15A2,2,0,0,0,363.29,61.8Z" fill="#808081"/><path d="M372.78,62.89a.73.73,0,0,1,.22.53.69.69,0,0,1-.22.53.82.82,0,0,1-.57.21h-4.36a.79.79,0,0,1-.79-.79V55.85a.77.77,0,0,1,.23-.56.73.73,0,0,1,.56-.23h4.36a.82.82,0,0,1,.57.21.75.75,0,0,1,.22.56.66.66,0,0,1-.22.52.8.8,0,0,1-.57.2h-3.52v2.21h2.94a.76.76,0,0,1,.56.22.76.76,0,0,1,0,1.08.84.84,0,0,1-.57.2h-2.94v2.4h3.52A.79.79,0,0,1,372.78,62.89Z" fill="#808081"/><path d="M375.76,64.05a3.82,3.82,0,0,1-1.37-.79.93.93,0,0,1-.35-.69.74.74,0,0,1,.22-.52.74.74,0,0,1,1-.08,3.63,3.63,0,0,0,1,.63,3.19,3.19,0,0,0,1.17.19,2.41,2.41,0,0,0,1.26-.32,1,1,0,0,0,.52-.81,1,1,0,0,0-.52-.91,4.13,4.13,0,0,0-1.65-.5c-1.9-.28-2.84-1.17-2.84-2.66a2.43,2.43,0,0,1,.42-1.42,2.76,2.76,0,0,1,1.17-.92,4.06,4.06,0,0,1,1.66-.32,4.87,4.87,0,0,1,1.54.24,3.82,3.82,0,0,1,1.2.66.85.85,0,0,1,.38.68.74.74,0,0,1-.23.53.7.7,0,0,1-.52.23.57.57,0,0,1-.35-.12,3.39,3.39,0,0,0-.94-.5,3.13,3.13,0,0,0-1.08-.23,2.27,2.27,0,0,0-1.27.31,1,1,0,0,0,0,1.64,4.37,4.37,0,0,0,1.45.47,7.71,7.71,0,0,1,1.79.5,2.4,2.4,0,0,1,1,.83,2.61,2.61,0,0,1,.33,1.4A2.32,2.32,0,0,1,380.3,63a3,3,0,0,1-1.23,1,4.12,4.12,0,0,1-1.65.33A5.28,5.28,0,0,1,375.76,64.05Z" fill="#808081"/><path d="M261.39,77.57a4.36,4.36,0,0,1-1.58,1.69,4.4,4.4,0,0,1-4.54,0,4.33,4.33,0,0,1-1.57-1.69,5.17,5.17,0,0,1,0-4.72,4.36,4.36,0,0,1,1.57-1.7,4.47,4.47,0,0,1,4.54,0,4.39,4.39,0,0,1,1.58,1.7,5.17,5.17,0,0,1,0,4.72Zm-1.47-3.94a2.89,2.89,0,0,0-1-1.13,2.56,2.56,0,0,0-1.41-.41,2.43,2.43,0,0,0-1.41.41,2.77,2.77,0,0,0-1,1.12,3.63,3.63,0,0,0-.34,1.59,3.55,3.55,0,0,0,.34,1.58,2.73,2.73,0,0,0,1,1.13,2.6,2.6,0,0,0,2.82,0,2.86,2.86,0,0,0,1-1.12,3.74,3.74,0,0,0,0-3.16Z" fill="#808081"/><path d="M270.23,71.76a.91.91,0,0,1-.19.54.65.65,0,0,1-.54.27.91.91,0,0,1-.44-.12,3.17,3.17,0,0,0-1.38-.3,3.11,3.11,0,0,0-1.58.39,2.52,2.52,0,0,0-1,1.08,3.28,3.28,0,0,0-.37,1.59,3.1,3.1,0,0,0,.83,2.33,3,3,0,0,0,2.16.79,3,3,0,0,0,1.38-.3,1,1,0,0,1,.42-.11.73.73,0,0,1,.57.29.84.84,0,0,1,.19.53.67.67,0,0,1-.4.64,4.74,4.74,0,0,1-2.16.51,5.1,5.1,0,0,1-2.34-.54,4.13,4.13,0,0,1-1.7-1.59,4.83,4.83,0,0,1-.64-2.55,4.61,4.61,0,0,1,.61-2.38,4.34,4.34,0,0,1,1.67-1.65,4.9,4.9,0,0,1,2.4-.59,4.64,4.64,0,0,1,2.15.51A.69.69,0,0,1,270.23,71.76Z" fill="#808081"/><path d="M277.32,78.49a.74.74,0,0,1,.23.53.7.7,0,0,1-.23.53.79.79,0,0,1-.56.21H272.4a.77.77,0,0,1-.56-.23.74.74,0,0,1-.23-.57V71.45a.79.79,0,0,1,.79-.79h4.36a.79.79,0,0,1,.56.21.75.75,0,0,1,.23.55.67.67,0,0,1-.22.53.8.8,0,0,1-.57.2h-3.53v2.21h2.94a.77.77,0,0,1,.57.22.71.71,0,0,1,.22.55.68.68,0,0,1-.22.53.81.81,0,0,1-.57.2h-2.94v2.4h3.53A.77.77,0,0,1,277.32,78.49ZM274.23,70a.41.41,0,0,1-.15-.33.5.5,0,0,1,.18-.36l1.12-1a1,1,0,0,1,.64-.29.7.7,0,0,1,.46.18.58.58,0,0,1,.23.46.7.7,0,0,1-.13.38.85.85,0,0,1-.36.31l-1.3.69a.54.54,0,0,1-.29.07A.57.57,0,0,1,274.23,70Z" fill="#808081"/><path d="M286.25,79.06a.78.78,0,0,1-.22.55.73.73,0,0,1-.51.21.63.63,0,0,1-.42-.14,1,1,0,0,1-.3-.39l-.67-1.57h-3.88l-.67,1.58a.82.82,0,0,1-.28.39.69.69,0,0,1-.41.13.66.66,0,0,1-.51-.18.67.67,0,0,1-.18-.49.77.77,0,0,1,0-.25l3.24-7.77a.81.81,0,0,1,.31-.41.68.68,0,0,1,.46-.11.76.76,0,0,1,.44.13.72.72,0,0,1,.29.39l3.2,7.61A1,1,0,0,1,286.25,79.06Zm-5.36-2.84h2.6l-1.31-3Z" fill="#808081"/><path d="M294.76,70.87a.72.72,0,0,1,.2.52V79a.79.79,0,0,1-.8.8,1,1,0,0,1-.35-.06.51.51,0,0,1-.26-.16l-4.77-6.06V79a.73.73,0,0,1-.2.52.69.69,0,0,1-.53.21.64.64,0,0,1-.5-.21.73.73,0,0,1-.2-.52V71.45a.77.77,0,0,1,.23-.56.73.73,0,0,1,.56-.23.91.91,0,0,1,.39.08.67.67,0,0,1,.28.2l4.73,6V71.39a.72.72,0,0,1,.2-.52.69.69,0,0,1,.51-.21A.66.66,0,0,1,294.76,70.87Z" fill="#808081"/><path d="M298.17,79.65a3.82,3.82,0,0,1-1.37-.79.93.93,0,0,1-.35-.69.75.75,0,0,1,1.2-.6,3.63,3.63,0,0,0,1,.63,3.19,3.19,0,0,0,1.17.19,2.37,2.37,0,0,0,1.25-.32.94.94,0,0,0,.53-.81,1,1,0,0,0-.52-.91,4.33,4.33,0,0,0-1.65-.51c-1.9-.27-2.85-1.16-2.85-2.65a2.43,2.43,0,0,1,.43-1.42,2.76,2.76,0,0,1,1.17-.92,4,4,0,0,1,1.65-.32,4.82,4.82,0,0,1,1.54.24,4,4,0,0,1,1.21.65.87.87,0,0,1,.37.69.73.73,0,0,1-.22.53.71.71,0,0,1-.52.23.57.57,0,0,1-.35-.12,3.39,3.39,0,0,0-.94-.5,3.18,3.18,0,0,0-1.09-.23,2.17,2.17,0,0,0-1.26.31,1,1,0,0,0,0,1.64,4.37,4.37,0,0,0,1.45.47,7.86,7.86,0,0,1,1.79.5,2.31,2.31,0,0,1,1,.83,2.52,2.52,0,0,1,.34,1.4,2.32,2.32,0,0,1-.46,1.44,3.09,3.09,0,0,1-1.23,1,4.12,4.12,0,0,1-1.65.33A5.28,5.28,0,0,1,298.17,79.65Z" fill="#808081"/><path d="M314.31,71.26a3.79,3.79,0,0,1,1.33,1.64,5.91,5.91,0,0,1,0,4.62,3.82,3.82,0,0,1-1.33,1.63,3.58,3.58,0,0,1-2.1.61H309.1a.79.79,0,0,1-.57-.23.77.77,0,0,1-.22-.57V71.45a.77.77,0,0,1,.79-.79h3.11A3.65,3.65,0,0,1,314.31,71.26Zm-.48,6.14a3.84,3.84,0,0,0,.59-2.19,3.73,3.73,0,0,0-.6-2.19,2,2,0,0,0-1.74-.87h-2.15v6.11h2.15A2,2,0,0,0,313.83,77.4Z" fill="#808081"/><path d="M324.61,70.87a.77.77,0,0,1,.21.57v4.7a3.94,3.94,0,0,1-.46,1.91,3.24,3.24,0,0,1-1.27,1.3,4,4,0,0,1-3.75,0,3.2,3.2,0,0,1-1.28-1.3,3.83,3.83,0,0,1-.46-1.91v-4.7a.78.78,0,0,1,.23-.57.85.85,0,0,1,.6-.23.79.79,0,0,1,.78.8v4.7a2.13,2.13,0,0,0,.28,1.11,1.82,1.82,0,0,0,.73.75,1.93,1.93,0,0,0,1,.26,2.1,2.1,0,0,0,1.05-.26,1.88,1.88,0,0,0,.78-.75,2,2,0,0,0,.29-1.11v-4.7a.81.81,0,0,1,.2-.57.67.67,0,0,1,.53-.23A.72.72,0,0,1,324.61,70.87Z" fill="#808081"/><path d="M337.18,71.76a.93.93,0,0,1-.2.54.64.64,0,0,1-.53.27.91.91,0,0,1-.44-.12,3.2,3.2,0,0,0-1.38-.3,3.15,3.15,0,0,0-1.59.39,2.58,2.58,0,0,0-1,1.08,3.39,3.39,0,0,0-.36,1.59,3.1,3.1,0,0,0,.83,2.33,3,3,0,0,0,2.16.79A3,3,0,0,0,336,78a1,1,0,0,1,.41-.11.73.73,0,0,1,.58.29.84.84,0,0,1,.19.53.67.67,0,0,1-.4.64,4.77,4.77,0,0,1-2.16.51,5.1,5.1,0,0,1-2.34-.54,4.13,4.13,0,0,1-1.7-1.59,4.83,4.83,0,0,1-.64-2.55,4.7,4.7,0,0,1,.6-2.38,4.37,4.37,0,0,1,1.68-1.65,4.9,4.9,0,0,1,2.4-.59,4.64,4.64,0,0,1,2.15.51A.71.71,0,0,1,337.18,71.76Z" fill="#808081"/><path d="M345.76,79.06a.74.74,0,0,1-.22.55.73.73,0,0,1-.51.21.65.65,0,0,1-.42-.14,1,1,0,0,1-.29-.39l-.68-1.57h-3.87l-.68,1.58a.76.76,0,0,1-.28.39.69.69,0,0,1-.41.13.62.62,0,0,1-.69-.67.77.77,0,0,1,0-.25L341,71.13a.86.86,0,0,1,.31-.41.69.69,0,0,1,.47-.11.75.75,0,0,1,.43.13.74.74,0,0,1,.3.39l3.19,7.61A.81.81,0,0,1,345.76,79.06Zm-5.36-2.84H343l-1.31-3Z" fill="#808081"/><path d="M354.27,70.87a.72.72,0,0,1,.2.52V79a.79.79,0,0,1-.79.8,1.09,1.09,0,0,1-.36-.06.55.55,0,0,1-.26-.16l-4.77-6.06V79a.69.69,0,0,1-.2.52.69.69,0,0,1-.52.21.66.66,0,0,1-.51-.21.73.73,0,0,1-.2-.52V71.45a.77.77,0,0,1,.23-.56.74.74,0,0,1,.57-.23.87.87,0,0,1,.38.08.61.61,0,0,1,.28.2l4.73,6V71.39a.72.72,0,0,1,.2-.52.7.7,0,0,1,.52-.21A.66.66,0,0,1,354.27,70.87Z" fill="#808081"/><path d="M363.62,79.06a.74.74,0,0,1-.22.55.73.73,0,0,1-.51.21.66.66,0,0,1-.42-.14,1,1,0,0,1-.29-.39l-.68-1.57h-3.87L357,79.3a.76.76,0,0,1-.28.39.67.67,0,0,1-.41.13.69.69,0,0,1-.51-.18.67.67,0,0,1-.18-.49,1.18,1.18,0,0,1,0-.25l3.24-7.77a.86.86,0,0,1,.31-.41.7.7,0,0,1,.47-.11.73.73,0,0,1,.43.13.74.74,0,0,1,.3.39l3.2,7.61A1,1,0,0,1,363.62,79.06Zm-5.36-2.84h2.6l-1.31-3Z" fill="#808081"/><path d="M370.72,71.26a3.74,3.74,0,0,1,1.34,1.64,5.91,5.91,0,0,1,0,4.62,3.77,3.77,0,0,1-1.34,1.63,3.53,3.53,0,0,1-2.09.61h-3.11a.79.79,0,0,1-.8-.8V71.45a.77.77,0,0,1,.23-.56.74.74,0,0,1,.57-.23h3.11A3.6,3.6,0,0,1,370.72,71.26Zm-.47,6.14a3.84,3.84,0,0,0,.58-2.19,3.72,3.72,0,0,0-.59-2.19,2,2,0,0,0-1.74-.87h-2.15v6.11h2.15A2,2,0,0,0,370.25,77.4Z" fill="#808081"/><path d="M381.16,79.06a.78.78,0,0,1-.22.55.73.73,0,0,1-.51.21.63.63,0,0,1-.42-.14,1,1,0,0,1-.3-.39L379,77.72h-3.88l-.67,1.58a.82.82,0,0,1-.28.39.69.69,0,0,1-.41.13.66.66,0,0,1-.51-.18.67.67,0,0,1-.18-.49.77.77,0,0,1,0-.25l3.24-7.77a.86.86,0,0,1,.31-.41.69.69,0,0,1,.47-.11.75.75,0,0,1,.43.13.72.72,0,0,1,.29.39l3.2,7.61A.81.81,0,0,1,381.16,79.06Zm-5.36-2.84h2.6l-1.31-3Z" fill="#808081"/><path d="M523.78,18.39a1.49,1.49,0,0,1-.28.78,1.08,1.08,0,0,1-.89.43,1.18,1.18,0,0,1-.63-.19,12.08,12.08,0,0,0-6.82-2.07,11.19,11.19,0,0,0-5.72,1.48,10.56,10.56,0,0,0-4,4.16A12.35,12.35,0,0,0,504,29a12.43,12.43,0,0,0,1.49,6.14,10.56,10.56,0,0,0,4,4.14,11.28,11.28,0,0,0,5.68,1.46,12.08,12.08,0,0,0,6.78-2,1.24,1.24,0,0,1,.67-.19,1.06,1.06,0,0,1,.89.46,1.12,1.12,0,0,1,.28.75,1,1,0,0,1-.55.93,14.27,14.27,0,0,1-3.74,1.7,14.94,14.94,0,0,1-4.33.68,13.74,13.74,0,0,1-6.85-1.77,13.18,13.18,0,0,1-5-5A14.22,14.22,0,0,1,501.47,29a14.23,14.23,0,0,1,1.83-7.16A13.38,13.38,0,0,1,515.16,15a15.05,15.05,0,0,1,4.27.62,13.68,13.68,0,0,1,3.76,1.76A1.09,1.09,0,0,1,523.78,18.39Z" fill="#404041"/><path d="M532.2,42.34a1.18,1.18,0,0,1-.86.35,1.2,1.2,0,0,1-.88-.33,1.18,1.18,0,0,1-.33-.88V16.6a1.17,1.17,0,0,1,.35-.88,1.28,1.28,0,0,1,.9-.33,1.2,1.2,0,0,1,1.21,1.21V41.48A1.35,1.35,0,0,1,532.2,42.34Z" fill="#404041"/><path d="M564,36.26a12.83,12.83,0,0,1-22.78,0A15.31,15.31,0,0,1,539.49,29a15.35,15.35,0,0,1,1.68-7.25,12.52,12.52,0,0,1,4.64-5,13.6,13.6,0,0,1,13.49,0,12.54,12.54,0,0,1,4.65,5A15.47,15.47,0,0,1,565.62,29,15.43,15.43,0,0,1,564,36.26ZM561.78,23a10.28,10.28,0,0,0-18.45,0A13.37,13.37,0,0,0,542,29a13.37,13.37,0,0,0,1.34,6.06,10,10,0,0,0,9.23,5.64A10.2,10.2,0,0,0,558,39.26a10.08,10.08,0,0,0,3.74-4.16A13.24,13.24,0,0,0,563.13,29,13.24,13.24,0,0,0,561.78,23Z" fill="#404041"/><path d="M595.22,36.26a12.82,12.82,0,0,1-22.77,0A15.31,15.31,0,0,1,570.77,29a15.35,15.35,0,0,1,1.68-7.25,12.52,12.52,0,0,1,4.64-5,13.6,13.6,0,0,1,13.49,0,12.45,12.45,0,0,1,4.64,5A15.35,15.35,0,0,1,596.9,29,15.31,15.31,0,0,1,595.22,36.26ZM593.06,23a10.28,10.28,0,0,0-18.45,0A13.24,13.24,0,0,0,573.27,29a13.24,13.24,0,0,0,1.34,6.06,10.28,10.28,0,0,0,18.45,0A13.24,13.24,0,0,0,594.4,29,13.24,13.24,0,0,0,593.06,23Z" fill="#404041"/><path d="M606.24,42.14a13.8,13.8,0,0,1-4.19-2.92,1.17,1.17,0,0,1-.1-1.79,1.14,1.14,0,0,1,.84-.39,1.2,1.2,0,0,1,.86.39,9.85,9.85,0,0,0,7.6,3.35,7.74,7.74,0,0,0,4.66-1.33A4.07,4.07,0,0,0,617.77,36a4.26,4.26,0,0,0-.92-2.79,6.85,6.85,0,0,0-2.4-1.81,31.18,31.18,0,0,0-3.78-1.44,23.19,23.19,0,0,1-4.19-1.64,7.63,7.63,0,0,1-2.75-2.4,6.41,6.41,0,0,1-1.06-3.8,6.29,6.29,0,0,1,1.11-3.67,7.55,7.55,0,0,1,3.12-2.51,11.06,11.06,0,0,1,4.63-.92,12.43,12.43,0,0,1,4.46.8,8,8,0,0,1,3.34,2.28,1.87,1.87,0,0,1,.58,1.13,1.09,1.09,0,0,1-.39.8,1.22,1.22,0,0,1-.86.37.9.9,0,0,1-.66-.27,7.69,7.69,0,0,0-2.81-2,8.92,8.92,0,0,0-3.66-.78,7.86,7.86,0,0,0-4.65,1.27A4,4,0,0,0,605.09,22a4,4,0,0,0,1.72,3.47,17.93,17.93,0,0,0,4.91,2.22,30.25,30.25,0,0,1,4.53,1.68,7.43,7.43,0,0,1,2.86,2.44A7.07,7.07,0,0,1,620.22,36a6.06,6.06,0,0,1-1.15,3.61,7.74,7.74,0,0,1-3.2,2.55,11,11,0,0,1-4.66.94A12.31,12.31,0,0,1,606.24,42.14Z" fill="#404041"/><path d="M659.65,41.6a1.06,1.06,0,0,1-.35.82,1.18,1.18,0,0,1-.82.31,1.07,1.07,0,0,1-.68-.22,1.31,1.31,0,0,1-.45-.56l-2.93-7.14H641.75L638.86,42a1.08,1.08,0,0,1-1.05.78,1.13,1.13,0,0,1-.82-.27,1.19,1.19,0,0,1-.31-.74V41.6a1,1,0,0,1,0-.35L647,16.05a1.16,1.16,0,0,1,1.17-.78,1.18,1.18,0,0,1,.69.22,1.47,1.47,0,0,1,.45.56l10.25,25.08A1.81,1.81,0,0,1,659.65,41.6Zm-17-9.09h10.84L648,19.17Z" fill="#404041"/><path d="M682.13,15.7a1.05,1.05,0,0,1,.34.82,1,1,0,0,1-.34.8,1.19,1.19,0,0,1-.83.29h-8.08V41.52a1.08,1.08,0,0,1-.35.84,1.2,1.2,0,0,1-.86.33,1.18,1.18,0,0,1-.87-.33,1.14,1.14,0,0,1-.33-.84V17.61h-8.08a1.16,1.16,0,0,1-.84-.31,1.08,1.08,0,0,1-.33-.82,1,1,0,0,1,.33-.78,1.21,1.21,0,0,1,.84-.31H681.3A1.2,1.2,0,0,1,682.13,15.7Z" fill="#404041"/><path d="M704.79,40.7a1.08,1.08,0,0,1,.34.82,1.15,1.15,0,0,1-.34.84,1.13,1.13,0,0,1-.83.33H690a1.13,1.13,0,0,1-1.17-1.17v-25a1.12,1.12,0,0,1,.35-.84,1.28,1.28,0,0,1,.9-.33,1.22,1.22,0,0,1,.86.33,1.12,1.12,0,0,1,.35.84V40.39H704A1.16,1.16,0,0,1,704.79,40.7Z" fill="#404041"/><path d="M731.45,41.6a1.06,1.06,0,0,1-.35.82,1.2,1.2,0,0,1-.82.31,1.07,1.07,0,0,1-.68-.22,1.31,1.31,0,0,1-.45-.56l-2.93-7.14H713.55L710.66,42a1.08,1.08,0,0,1-1,.78,1.13,1.13,0,0,1-.82-.27,1.14,1.14,0,0,1-.31-.74V41.6a1,1,0,0,1,0-.35l10.29-25.2a1.16,1.16,0,0,1,1.17-.78,1.18,1.18,0,0,1,.69.22,1.36,1.36,0,0,1,.44.56l10.26,25.08A2.38,2.38,0,0,1,731.45,41.6Zm-17-9.09h10.84l-5.46-13.34Z" fill="#404041"/><path d="M758.42,15.7a1.12,1.12,0,0,1,.29.78v25a1.22,1.22,0,0,1-.35.92,1.2,1.2,0,0,1-.86.33,1.24,1.24,0,0,1-.53-.12,1.34,1.34,0,0,1-.4-.27L739.83,19.76V41.64a1,1,0,0,1-.33.74,1.11,1.11,0,0,1-1.54,0,1,1,0,0,1-.31-.74V16.56a1.14,1.14,0,0,1,.33-.86,1.16,1.16,0,0,1,.8-.31,1.08,1.08,0,0,1,.94.43l16.81,22.66v-22a1.06,1.06,0,0,1,.31-.78,1.1,1.1,0,0,1,.78-.31A1.08,1.08,0,0,1,758.42,15.7Z" fill="#404041"/><path d="M785.68,15.7a1.08,1.08,0,0,1,.33.82,1,1,0,0,1-.33.8,1.19,1.19,0,0,1-.84.29h-8.07V41.52a1.12,1.12,0,0,1-.35.84,1.22,1.22,0,0,1-.86.33,1.18,1.18,0,0,1-.88-.33,1.14,1.14,0,0,1-.33-.84V17.61h-8.07a1.16,1.16,0,0,1-.84-.31,1.08,1.08,0,0,1-.33-.82,1,1,0,0,1,.33-.78,1.21,1.21,0,0,1,.84-.31h18.56A1.21,1.21,0,0,1,785.68,15.7Z" fill="#404041"/><path d="M794.47,42.34a1.19,1.19,0,0,1-2.06-.86V16.6a1.14,1.14,0,0,1,.35-.88,1.24,1.24,0,0,1,.89-.33,1.18,1.18,0,0,1,.86.35,1.15,1.15,0,0,1,.35.86V41.48A1.26,1.26,0,0,1,794.47,42.34Z" fill="#404041"/><path d="M824.07,18.39a1.47,1.47,0,0,1-.27.78,1.09,1.09,0,0,1-.9.43,1.17,1.17,0,0,1-.62-.19,12.11,12.11,0,0,0-6.83-2.07,11.15,11.15,0,0,0-5.71,1.48,10.66,10.66,0,0,0-4,4.16A12.46,12.46,0,0,0,804.26,29a12.43,12.43,0,0,0,1.48,6.14,10.65,10.65,0,0,0,4,4.14,11.24,11.24,0,0,0,5.67,1.46,12.11,12.11,0,0,0,6.79-2,1.23,1.23,0,0,1,.66-.19,1.07,1.07,0,0,1,.9.46,1.11,1.11,0,0,1,.27.75,1,1,0,0,1-.54.93,14.35,14.35,0,0,1-3.75,1.7,14.84,14.84,0,0,1-4.33.68,13.68,13.68,0,0,1-6.84-1.77,13.18,13.18,0,0,1-5-5A14.22,14.22,0,0,1,801.77,29a14.23,14.23,0,0,1,1.83-7.16A13.38,13.38,0,0,1,815.45,15a15,15,0,0,1,4.27.62,13.6,13.6,0,0,1,3.77,1.76A1.08,1.08,0,0,1,824.07,18.39Z" fill="#404041"/><path d="M510,63.16a.64.64,0,0,1,.1.35.7.7,0,0,1-.15.43.75.75,0,0,1-.6.23,1.2,1.2,0,0,1-.57-.14,2.28,2.28,0,0,1-.94-2.17.91.91,0,0,0-.31-.74,1.21,1.21,0,0,0-.87-.28H504.2v2.53a.89.89,0,0,1-.19.57.67.67,0,0,1-.5.22,1,1,0,0,1-.66-.23.69.69,0,0,1-.28-.56V55.85a.77.77,0,0,1,.23-.56.73.73,0,0,1,.56-.23h3.75a2.42,2.42,0,0,1,1.27.36,2.71,2.71,0,0,1,1,1,2.86,2.86,0,0,1,.35,1.43,2.46,2.46,0,0,1-.35,1.27,2.68,2.68,0,0,1-.91,1,2,2,0,0,1,.9,1.54,1.87,1.87,0,0,1,0,.4,4.37,4.37,0,0,0,.1.58.47.47,0,0,0,.24.26A.7.7,0,0,1,510,63.16Zm-2.47-3.88a1.6,1.6,0,0,0,.36-.59,2.1,2.1,0,0,0,.14-.8,1.52,1.52,0,0,0-.14-.67,1.38,1.38,0,0,0-.36-.48.69.69,0,0,0-.46-.19H504.2v3H507A.64.64,0,0,0,507.5,59.28Z" fill="#808081"/><path d="M517.21,62.89a.7.7,0,0,1,.23.53.67.67,0,0,1-.23.53.78.78,0,0,1-.56.21h-4.36a.79.79,0,0,1-.79-.79V55.85a.77.77,0,0,1,.23-.56.73.73,0,0,1,.56-.23h4.36a.78.78,0,0,1,.56.21.72.72,0,0,1,.23.56.66.66,0,0,1-.22.52.8.8,0,0,1-.57.2h-3.52v2.21h2.93a.77.77,0,0,1,.57.22.76.76,0,0,1,0,1.08.85.85,0,0,1-.58.2h-2.93v2.4h3.52A.75.75,0,0,1,517.21,62.89Z" fill="#808081"/><path d="M526.2,59.47a.77.77,0,0,1,.22.57v2.75a.79.79,0,0,1-.4.71,5.25,5.25,0,0,1-2.79.79A4.75,4.75,0,0,1,519.12,62a4.43,4.43,0,0,1-.64-2.34,4.49,4.49,0,0,1,.64-2.35,4.77,4.77,0,0,1,4.11-2.33,4.54,4.54,0,0,1,2.23.52.79.79,0,0,1,.3.27.74.74,0,0,1,.09.36.84.84,0,0,1-.21.57.68.68,0,0,1-.53.24,1.06,1.06,0,0,1-.43-.1,3.66,3.66,0,0,0-1.45-.3,3,3,0,0,0-1.54.42,3,3,0,0,0-1.11,1.14,3.17,3.17,0,0,0,0,3.12,3.19,3.19,0,0,0,1.11,1.14,3,3,0,0,0,1.54.42,4.42,4.42,0,0,0,.78-.07,4.37,4.37,0,0,0,.73-.17V60.8h-1.23a.76.76,0,0,1-.56-.22.74.74,0,0,1-.23-.56.77.77,0,0,1,.23-.56.8.8,0,0,1,.56-.22h2.13A.74.74,0,0,1,526.2,59.47Z" fill="#808081"/><path d="M529.36,63.93a.81.81,0,0,1-.57.23.8.8,0,0,1-.58-.23.77.77,0,0,1-.23-.56V55.85a.74.74,0,0,1,.24-.56.79.79,0,0,1,.6-.23.79.79,0,0,1,.79.79v7.52A.72.72,0,0,1,529.36,63.93Z" fill="#808081"/><path d="M539.36,62a4.36,4.36,0,0,1-1.58,1.69,4.4,4.4,0,0,1-4.54,0A4.33,4.33,0,0,1,531.67,62a5.17,5.17,0,0,1,0-4.72,4.36,4.36,0,0,1,1.57-1.7,4.47,4.47,0,0,1,4.54,0,4.39,4.39,0,0,1,1.58,1.7,5.17,5.17,0,0,1,0,4.72ZM537.89,58a2.89,2.89,0,0,0-1-1.13,2.56,2.56,0,0,0-1.41-.41,2.43,2.43,0,0,0-1.41.41,2.77,2.77,0,0,0-1,1.12,3.63,3.63,0,0,0-.35,1.59,3.56,3.56,0,0,0,.35,1.58,2.73,2.73,0,0,0,1,1.13,2.6,2.6,0,0,0,2.82,0,2.79,2.79,0,0,0,1-1.12,3.74,3.74,0,0,0,0-3.16Z" fill="#808081"/><path d="M548.84,55.27a.73.73,0,0,1,.19.52v7.58a.73.73,0,0,1-.23.56.77.77,0,0,1-.56.23,1.13,1.13,0,0,1-.36-.06.47.47,0,0,1-.25-.16l-4.77-6.06v5.55a.73.73,0,0,1-.2.52.71.71,0,0,1-.53.21.66.66,0,0,1-.51-.21.73.73,0,0,1-.19-.52V55.85a.76.76,0,0,1,.22-.56.77.77,0,0,1,.57-.23.84.84,0,0,1,.38.08.61.61,0,0,1,.28.2l4.74,6V55.79a.69.69,0,0,1,.2-.52.72.72,0,0,1,1,0Z" fill="#808081"/><path d="M558.18,63.46A.72.72,0,0,1,558,64a.69.69,0,0,1-.5.21.67.67,0,0,1-.43-.14,1,1,0,0,1-.29-.39l-.68-1.57h-3.87l-.68,1.58a.81.81,0,0,1-.27.39.71.71,0,0,1-.41.13.7.7,0,0,1-.52-.18.71.71,0,0,1-.17-.49.77.77,0,0,1,0-.25l3.23-7.77a.93.93,0,0,1,.31-.41.7.7,0,0,1,.47-.11.75.75,0,0,1,.73.52l3.2,7.61A1,1,0,0,1,558.18,63.46Zm-5.35-2.84h2.6l-1.31-3Z" fill="#808081"/><path d="M564.87,62.85a.75.75,0,0,1,.23.55.71.71,0,0,1-.23.54.76.76,0,0,1-.56.22h-4.23a.77.77,0,0,1-.56-.23.73.73,0,0,1-.23-.56V55.85a.77.77,0,0,1,.23-.56.81.81,0,0,1,.6-.23.75.75,0,0,1,.56.23.73.73,0,0,1,.23.56v6.79h3.4A.79.79,0,0,1,564.87,62.85Z" fill="#808081"/><path d="M577.44,63.46a.73.73,0,0,1-.23.55.69.69,0,0,1-.5.21.63.63,0,0,1-.42-.14.91.91,0,0,1-.3-.39l-.67-1.57h-3.88l-.67,1.58a.82.82,0,0,1-.28.39.71.71,0,0,1-.41.13.7.7,0,0,1-.52-.18.71.71,0,0,1-.17-.49.77.77,0,0,1,0-.25l3.24-7.77a.81.81,0,0,1,.31-.41.68.68,0,0,1,.46-.11.76.76,0,0,1,.44.13.78.78,0,0,1,.29.39l3.2,7.61A1,1,0,0,1,577.44,63.46Zm-5.36-2.84h2.6l-1.31-3Z" fill="#808081"/><path d="M579.8,64.05a3.78,3.78,0,0,1-1.36-.79.91.91,0,0,1-.36-.69.71.71,0,0,1,.23-.52.67.67,0,0,1,.53-.23.71.71,0,0,1,.44.15,3.82,3.82,0,0,0,1,.63,3.15,3.15,0,0,0,1.17.19,2.39,2.39,0,0,0,1.25-.32,1,1,0,0,0,.53-.81,1,1,0,0,0-.52-.91,4.24,4.24,0,0,0-1.65-.5c-1.9-.28-2.85-1.17-2.85-2.66a2.36,2.36,0,0,1,.43-1.42,2.64,2.64,0,0,1,1.17-.92,4,4,0,0,1,1.65-.32,4.87,4.87,0,0,1,1.54.24,3.82,3.82,0,0,1,1.2.66.85.85,0,0,1,.38.68.77.77,0,0,1-.22.53.71.71,0,0,1-.52.23.55.55,0,0,1-.35-.12,3.47,3.47,0,0,0-1-.5,3.13,3.13,0,0,0-1.08-.23,2.27,2.27,0,0,0-1.27.31.92.92,0,0,0-.45.8.94.94,0,0,0,.46.84,4.37,4.37,0,0,0,1.45.47,7.71,7.71,0,0,1,1.79.5,2.34,2.34,0,0,1,1,.83,2.61,2.61,0,0,1,.34,1.4,2.32,2.32,0,0,1-.47,1.44,2.91,2.91,0,0,1-1.22,1,4.19,4.19,0,0,1-1.65.33A5.34,5.34,0,0,1,579.8,64.05Z" fill="#808081"/><path d="M587.56,64.05a3.78,3.78,0,0,1-1.36-.79.9.9,0,0,1-.35-.69.7.7,0,0,1,.22-.52.67.67,0,0,1,.53-.23A.71.71,0,0,1,587,62a3.82,3.82,0,0,0,1,.63,3.19,3.19,0,0,0,1.17.19,2.39,2.39,0,0,0,1.25-.32,1,1,0,0,0,.53-.81,1,1,0,0,0-.52-.91,4.24,4.24,0,0,0-1.65-.5c-1.9-.28-2.85-1.17-2.85-2.66a2.36,2.36,0,0,1,.43-1.42,2.64,2.64,0,0,1,1.17-.92,4,4,0,0,1,1.65-.32,4.82,4.82,0,0,1,1.54.24,3.82,3.82,0,0,1,1.2.66.85.85,0,0,1,.38.68.73.73,0,0,1-.22.53.71.71,0,0,1-.52.23.55.55,0,0,1-.35-.12,3.47,3.47,0,0,0-.95-.5,3.13,3.13,0,0,0-1.08-.23,2.27,2.27,0,0,0-1.27.31.92.92,0,0,0-.45.8.94.94,0,0,0,.46.84,4.45,4.45,0,0,0,1.45.47,7.57,7.57,0,0,1,1.79.5,2.34,2.34,0,0,1,1,.83,2.61,2.61,0,0,1,.34,1.4,2.38,2.38,0,0,1-.46,1.44,3,3,0,0,1-1.23,1,4.12,4.12,0,0,1-1.65.33A5.34,5.34,0,0,1,587.56,64.05Z" fill="#808081"/><path d="M601.86,62a4.36,4.36,0,0,1-1.58,1.69,4.39,4.39,0,0,1-4.53,0A4.29,4.29,0,0,1,594.17,62a5.25,5.25,0,0,1,0-4.72,4.31,4.31,0,0,1,1.58-1.7,4.45,4.45,0,0,1,4.53,0,4.39,4.39,0,0,1,1.58,1.7,5.17,5.17,0,0,1,0,4.72ZM600.39,58a2.89,2.89,0,0,0-1-1.13,2.56,2.56,0,0,0-1.41-.41,2.45,2.45,0,0,0-1.41.41,2.77,2.77,0,0,0-1,1.12,3.63,3.63,0,0,0-.34,1.59,3.55,3.55,0,0,0,.34,1.58,2.73,2.73,0,0,0,1,1.13,2.53,2.53,0,0,0,1.41.41,2.49,2.49,0,0,0,1.41-.42,2.79,2.79,0,0,0,1-1.12,3.74,3.74,0,0,0,0-3.16Z" fill="#808081"/><path d="M610.7,56.16a.91.91,0,0,1-.19.54A.65.65,0,0,1,610,57a.94.94,0,0,1-.44-.12,3.17,3.17,0,0,0-1.38-.3,3.11,3.11,0,0,0-1.58.39,2.52,2.52,0,0,0-1,1.08,3.39,3.39,0,0,0-.37,1.59,3.1,3.1,0,0,0,.83,2.33,3,3,0,0,0,2.16.79,3,3,0,0,0,1.38-.3,1.06,1.06,0,0,1,.42-.1.72.72,0,0,1,.57.28.84.84,0,0,1,.19.53.67.67,0,0,1-.4.64,4.71,4.71,0,0,1-2.16.51,5.1,5.1,0,0,1-2.34-.54,4.19,4.19,0,0,1-1.7-1.59,4.92,4.92,0,0,1-.64-2.55,4.71,4.71,0,0,1,.61-2.38,4.34,4.34,0,0,1,1.67-1.65,4.9,4.9,0,0,1,2.4-.59,4.61,4.61,0,0,1,2.15.51A.69.69,0,0,1,610.7,56.16Z" fill="#808081"/><path d="M613.46,63.93a.85.85,0,0,1-.57.23.78.78,0,0,1-.58-.23.77.77,0,0,1-.23-.56V55.85a.77.77,0,0,1,.23-.56.81.81,0,0,1,.6-.23.73.73,0,0,1,.56.23.74.74,0,0,1,.24.56v7.52A.75.75,0,0,1,613.46,63.93Z" fill="#808081"/><path d="M622.86,63.46a.76.76,0,0,1-.22.55.73.73,0,0,1-.51.21.63.63,0,0,1-.42-.14.82.82,0,0,1-.29-.39l-.68-1.57h-3.88l-.67,1.58a.76.76,0,0,1-.28.39.69.69,0,0,1-.41.13A.66.66,0,0,1,615,64a.67.67,0,0,1-.18-.49.77.77,0,0,1,0-.25l3.24-7.77a.86.86,0,0,1,.31-.41.69.69,0,0,1,.47-.11.75.75,0,0,1,.43.13.72.72,0,0,1,.29.39l3.2,7.61A.81.81,0,0,1,622.86,63.46Zm-5.36-2.84h2.6l-1.31-3Z" fill="#808081"/><path d="M629.87,55.27a.74.74,0,0,1,.22.54.71.71,0,0,1-.22.54.8.8,0,0,1-.58.2h-2v6.82a.72.72,0,0,1-.25.56.85.85,0,0,1-.61.23.81.81,0,0,1-.59-.23.74.74,0,0,1-.24-.56V56.55h-2a.8.8,0,0,1-.57-.21.69.69,0,0,1-.22-.54.66.66,0,0,1,.23-.53.79.79,0,0,1,.56-.21h5.77A.81.81,0,0,1,629.87,55.27Z" fill="#808081"/><path d="M632.83,63.93a.85.85,0,0,1-.57.23.78.78,0,0,1-.58-.23.77.77,0,0,1-.23-.56V55.85a.77.77,0,0,1,.23-.56.81.81,0,0,1,.6-.23.73.73,0,0,1,.56.23.74.74,0,0,1,.24.56v7.52A.75.75,0,0,1,632.83,63.93Z" fill="#808081"/><path d="M642.83,62a4.43,4.43,0,0,1-1.58,1.69,4.4,4.4,0,0,1-4.54,0A4.26,4.26,0,0,1,635.14,62a5.17,5.17,0,0,1,0-4.72,4.38,4.38,0,0,1,6.11-1.7,4.46,4.46,0,0,1,1.58,1.7,5.17,5.17,0,0,1,0,4.72ZM641.36,58a2.91,2.91,0,0,0-1-1.13,2.5,2.5,0,0,0-1.4-.41,2.43,2.43,0,0,0-1.41.41,2.69,2.69,0,0,0-1,1.12,3.63,3.63,0,0,0-.35,1.59,3.56,3.56,0,0,0,.35,1.58,2.66,2.66,0,0,0,1,1.13,2.51,2.51,0,0,0,1.41.41,2.43,2.43,0,0,0,1.4-.42,2.81,2.81,0,0,0,1-1.12,3.74,3.74,0,0,0,0-3.16Z" fill="#808081"/><path d="M652.3,55.27a.73.73,0,0,1,.2.52v7.58a.79.79,0,0,1-.79.79,1,1,0,0,1-.36-.06.55.55,0,0,1-.26-.16l-4.77-6.06v5.55a.7.7,0,0,1-.73.73.66.66,0,0,1-.5-.21.73.73,0,0,1-.2-.52V55.85a.77.77,0,0,1,.23-.56.74.74,0,0,1,.57-.23.87.87,0,0,1,.38.08.61.61,0,0,1,.28.2l4.73,6V55.79a.73.73,0,0,1,.2-.52.7.7,0,0,1,.52-.21A.66.66,0,0,1,652.3,55.27Z" fill="#808081"/><path d="M665.89,62a4.36,4.36,0,0,1-1.58,1.69,4.4,4.4,0,0,1-4.54,0A4.33,4.33,0,0,1,658.2,62a5.17,5.17,0,0,1,0-4.72,4.36,4.36,0,0,1,1.57-1.7,4.47,4.47,0,0,1,4.54,0,4.39,4.39,0,0,1,1.58,1.7,5.17,5.17,0,0,1,0,4.72ZM664.42,58a2.91,2.91,0,0,0-1-1.13,2.5,2.5,0,0,0-1.4-.41,2.43,2.43,0,0,0-1.41.41,2.77,2.77,0,0,0-1,1.12,3.63,3.63,0,0,0-.35,1.59,3.56,3.56,0,0,0,.35,1.58,2.73,2.73,0,0,0,1,1.13,2.51,2.51,0,0,0,1.41.41,2.43,2.43,0,0,0,1.4-.42,2.81,2.81,0,0,0,1-1.12,3.74,3.74,0,0,0,0-3.16Z" fill="#808081"/><path d="M669.58,56.55v2.29h2.81a.76.76,0,0,1,.56.22.73.73,0,0,1,0,1.06.8.8,0,0,1-.56.22h-2.81v3a.74.74,0,0,1-.24.56.81.81,0,0,1-.57.23.84.84,0,0,1-.59-.22.78.78,0,0,1-.23-.57V55.85a.77.77,0,0,1,.23-.56.74.74,0,0,1,.57-.23H673a.8.8,0,0,1,.57.21.75.75,0,0,1,.23.56.69.69,0,0,1-.23.5.77.77,0,0,1-.57.22Z" fill="#808081"/><path d="M685.45,55.27a.7.7,0,0,1,.22.54.67.67,0,0,1-.22.54.8.8,0,0,1-.57.2h-2v6.82a.72.72,0,0,1-.25.56.87.87,0,0,1-.61.23.85.85,0,0,1-.6-.23.77.77,0,0,1-.23-.56V56.55h-2a.77.77,0,0,1-.57-.21.74.74,0,0,1,0-1.07.8.8,0,0,1,.57-.21h5.77A.8.8,0,0,1,685.45,55.27Z" fill="#808081"/><path d="M694.21,55.28a.77.77,0,0,1,.22.57v7.52a.73.73,0,0,1-.23.56.85.85,0,0,1-.6.23.8.8,0,0,1-.56-.23.77.77,0,0,1-.23-.56v-3h-4.15v3a.74.74,0,0,1-.24.56.85.85,0,0,1-.58.23.82.82,0,0,1-.58-.23.76.76,0,0,1-.22-.56V55.85a.77.77,0,0,1,.23-.56.81.81,0,0,1,.6-.23.75.75,0,0,1,.56.23.77.77,0,0,1,.23.56v3h4.15v-3a.72.72,0,0,1,.25-.56.77.77,0,0,1,.57-.23A.76.76,0,0,1,694.21,55.28Z" fill="#808081"/><path d="M702.1,62.89a.74.74,0,0,1,.23.53.7.7,0,0,1-.23.53.8.8,0,0,1-.57.21h-4.35a.79.79,0,0,1-.8-.79V55.85a.77.77,0,0,1,.23-.56.74.74,0,0,1,.57-.23h4.35a.8.8,0,0,1,.57.21.75.75,0,0,1,.23.56.67.67,0,0,1-.23.52.76.76,0,0,1-.57.2H698v2.21H701a.76.76,0,0,1,.56.22.72.72,0,0,1,.23.55.68.68,0,0,1-.22.53.84.84,0,0,1-.57.2H698v2.4h3.52A.78.78,0,0,1,702.1,62.89Z" fill="#808081"/><path d="M509.34,71.76a.91.91,0,0,1-.19.54.65.65,0,0,1-.53.27,1,1,0,0,1-.45-.12,3.16,3.16,0,0,0-1.37-.3,3.12,3.12,0,0,0-1.59.39,2.52,2.52,0,0,0-1,1.08,3.39,3.39,0,0,0-.36,1.59,3.09,3.09,0,0,0,.82,2.33,3,3,0,0,0,2.17.79,3,3,0,0,0,1.37-.3,1.09,1.09,0,0,1,.42-.11.7.7,0,0,1,.57.29.85.85,0,0,1,.2.53.7.7,0,0,1-.11.38.7.7,0,0,1-.3.26,4.69,4.69,0,0,1-2.15.51,5.1,5.1,0,0,1-2.34-.54,4.22,4.22,0,0,1-1.71-1.59,4.92,4.92,0,0,1-.63-2.55,4.7,4.7,0,0,1,.6-2.38,4.34,4.34,0,0,1,1.67-1.65,4.92,4.92,0,0,1,2.41-.59,4.59,4.59,0,0,1,2.14.51A.69.69,0,0,1,509.34,71.76Z" fill="#808081"/><path d="M517.92,79.06a.74.74,0,0,1-.22.55.69.69,0,0,1-.5.21.67.67,0,0,1-.43-.14,1.05,1.05,0,0,1-.29-.39l-.68-1.57h-3.87l-.68,1.58a.81.81,0,0,1-.27.39.71.71,0,0,1-.41.13.7.7,0,0,1-.52-.18.71.71,0,0,1-.17-.49.77.77,0,0,1,0-.25l3.23-7.77a.93.93,0,0,1,.31-.41.7.7,0,0,1,.47-.11.75.75,0,0,1,.73.52l3.2,7.61A1,1,0,0,1,517.92,79.06Zm-5.35-2.84h2.6l-1.31-3Z" fill="#808081"/><path d="M526.44,70.87a.71.71,0,0,1,.19.52V79a.77.77,0,0,1-.22.57.79.79,0,0,1-.57.23,1.13,1.13,0,0,1-.36-.06.52.52,0,0,1-.25-.16l-4.77-6.06V79a.73.73,0,0,1-.2.52.71.71,0,0,1-.53.21.66.66,0,0,1-.51-.21A.73.73,0,0,1,519,79V71.45a.79.79,0,0,1,.79-.79.91.91,0,0,1,.39.08.64.64,0,0,1,.27.2l4.74,6V71.39a.68.68,0,0,1,.2-.52.72.72,0,0,1,1,0Z" fill="#808081"/><path d="M535.79,79.06a.75.75,0,0,1-.23.55.69.69,0,0,1-.5.21.67.67,0,0,1-.43-.14,1.05,1.05,0,0,1-.29-.39l-.67-1.57h-3.88l-.67,1.58a.82.82,0,0,1-.28.39.71.71,0,0,1-.41.13.7.7,0,0,1-.52-.18.71.71,0,0,1-.17-.49.77.77,0,0,1,0-.25L531,71.13a.88.88,0,0,1,.32-.41.66.66,0,0,1,.46-.11.76.76,0,0,1,.44.13.78.78,0,0,1,.29.39l3.2,7.61A1,1,0,0,1,535.79,79.06Zm-5.36-2.84H533l-1.31-3Z" fill="#808081"/><path d="M542.89,71.26a3.88,3.88,0,0,1,1.34,1.64,6,6,0,0,1,0,4.62,3.91,3.91,0,0,1-1.34,1.63,3.58,3.58,0,0,1-2.1.61h-3.11a.79.79,0,0,1-.79-.8V71.45a.77.77,0,0,1,.23-.56.73.73,0,0,1,.56-.23h3.11A3.65,3.65,0,0,1,542.89,71.26Zm-.47,6.14a3.92,3.92,0,0,0,.58-2.19,3.8,3.8,0,0,0-.59-2.19,2,2,0,0,0-1.75-.87h-2.15v6.11h2.15A2,2,0,0,0,542.42,77.4Z" fill="#808081"/><path d="M547.56,79.53a.81.81,0,0,1-.57.23.8.8,0,0,1-.58-.23.78.78,0,0,1-.23-.57V71.45a.74.74,0,0,1,.24-.56.79.79,0,0,1,.6-.23.79.79,0,0,1,.79.79V79A.72.72,0,0,1,547.56,79.53Z" fill="#808081"/><path d="M557,79.06a.74.74,0,0,1-.22.55.73.73,0,0,1-.51.21.66.66,0,0,1-.42-.14,1.05,1.05,0,0,1-.29-.39l-.68-1.57H551l-.68,1.58a.76.76,0,0,1-.28.39.67.67,0,0,1-.41.13.69.69,0,0,1-.51-.18.67.67,0,0,1-.17-.49,1.13,1.13,0,0,1,0-.25l3.24-7.77a.86.86,0,0,1,.31-.41.7.7,0,0,1,.47-.11.75.75,0,0,1,.73.52l3.2,7.61A1,1,0,0,1,557,79.06Zm-5.35-2.84h2.6l-1.32-3Z" fill="#808081"/><path d="M565.48,70.87a.71.71,0,0,1,.19.52V79a.74.74,0,0,1-.23.57.77.77,0,0,1-.56.23,1.13,1.13,0,0,1-.36-.06.47.47,0,0,1-.25-.16l-4.77-6.06V79a.7.7,0,0,1-.21.52.67.67,0,0,1-.52.21.66.66,0,0,1-.51-.21.73.73,0,0,1-.19-.52V71.45a.77.77,0,0,1,.79-.79.84.84,0,0,1,.38.08.61.61,0,0,1,.28.2l4.73,6V71.39a.69.69,0,0,1,.21-.52.72.72,0,0,1,1,0Z" fill="#808081"/><path d="M572.64,79.53a.85.85,0,0,1-.57.23.79.79,0,0,1-.81-.8V71.45a.74.74,0,0,1,.24-.56.77.77,0,0,1,.59-.23.73.73,0,0,1,.56.23.74.74,0,0,1,.24.56V79A.76.76,0,0,1,572.64,79.53Z" fill="#808081"/><path d="M582.25,70.87a.71.71,0,0,1,.19.52V79a.74.74,0,0,1-.23.57.77.77,0,0,1-.56.23,1.13,1.13,0,0,1-.36-.06.47.47,0,0,1-.25-.16l-4.77-6.06V79a.7.7,0,0,1-.21.52.69.69,0,0,1-.52.21.66.66,0,0,1-.51-.21.73.73,0,0,1-.19-.52V71.45a.77.77,0,0,1,.79-.79.84.84,0,0,1,.38.08.61.61,0,0,1,.28.2L581,77V71.39a.69.69,0,0,1,.21-.52.72.72,0,0,1,1,0Z" fill="#808081"/><path d="M590.94,70.87a.69.69,0,0,1,.22.54.67.67,0,0,1-.22.54.76.76,0,0,1-.57.2h-2V79a.72.72,0,0,1-.25.57.87.87,0,0,1-.61.23.85.85,0,0,1-.6-.23.78.78,0,0,1-.23-.57V72.15h-2a.79.79,0,0,1-.57-.21.69.69,0,0,1-.22-.54.67.67,0,0,1,.22-.53.8.8,0,0,1,.57-.21h5.77A.77.77,0,0,1,590.94,70.87Z" fill="#808081"/><path d="M598.24,78.49a.74.74,0,0,1,.23.53.7.7,0,0,1-.23.53.79.79,0,0,1-.56.21h-4.36a.77.77,0,0,1-.56-.23.74.74,0,0,1-.23-.57V71.45a.79.79,0,0,1,.79-.79h4.36a.79.79,0,0,1,.56.21.75.75,0,0,1,.23.55.67.67,0,0,1-.22.53.8.8,0,0,1-.57.2h-3.53v2.21h2.94a.77.77,0,0,1,.57.22.71.71,0,0,1,.22.55.68.68,0,0,1-.22.53.81.81,0,0,1-.57.2h-2.94v2.4h3.53A.77.77,0,0,1,598.24,78.49Z" fill="#808081"/><path d="M607.23,75.07a.77.77,0,0,1,.22.57v2.75a.76.76,0,0,1-.4.7,5.19,5.19,0,0,1-2.8.8,4.75,4.75,0,0,1-4.1-2.34,4.43,4.43,0,0,1-.64-2.34,4.49,4.49,0,0,1,.64-2.35,4.7,4.7,0,0,1,1.73-1.7,4.65,4.65,0,0,1,2.37-.63,4.55,4.55,0,0,1,2.24.52.69.69,0,0,1,.29.27.65.65,0,0,1,.1.36.84.84,0,0,1-.21.57.69.69,0,0,1-.53.24,1.06,1.06,0,0,1-.43-.1,3.67,3.67,0,0,0-1.46-.3,2.94,2.94,0,0,0-1.53.42,3,3,0,0,0-1.11,1.14,3.08,3.08,0,0,0-.41,1.56,3.13,3.13,0,0,0,.41,1.56,3.19,3.19,0,0,0,1.11,1.14,2.94,2.94,0,0,0,1.53.42,4.26,4.26,0,0,0,.78-.07,4.15,4.15,0,0,0,.73-.17V76.4h-1.22a.78.78,0,0,1-.57-.22.73.73,0,0,1-.22-.56.76.76,0,0,1,.22-.56.83.83,0,0,1,.57-.22h2.13A.75.75,0,0,1,607.23,75.07Z" fill="#808081"/><path d="M616.42,78.76a.73.73,0,0,1,.09.35.7.7,0,0,1-.15.43.75.75,0,0,1-.6.23,1.2,1.2,0,0,1-.57-.14,2.28,2.28,0,0,1-.94-2.17.94.94,0,0,0-.3-.74,1.26,1.26,0,0,0-.88-.28h-2.43V79a.9.9,0,0,1-.19.58.65.65,0,0,1-.5.22,1,1,0,0,1-.66-.23A.72.72,0,0,1,609,79V71.45a.77.77,0,0,1,.23-.56.73.73,0,0,1,.56-.23h3.75a2.42,2.42,0,0,1,1.27.36,2.71,2.71,0,0,1,1,1,2.87,2.87,0,0,1,.36,1.43,2.56,2.56,0,0,1-.35,1.27,2.86,2.86,0,0,1-.91,1,2,2,0,0,1,.89,1.54,1.81,1.81,0,0,1,0,.4,4,4,0,0,0,.11.58.42.42,0,0,0,.23.26A.81.81,0,0,1,616.42,78.76Zm-2.48-3.88a1.48,1.48,0,0,0,.36-.59,2.11,2.11,0,0,0,.15-.8,1.53,1.53,0,0,0-.15-.67,1.39,1.39,0,0,0-.36-.49.72.72,0,0,0-.46-.18h-2.84V75.1h2.84A.64.64,0,0,0,613.94,74.88Z" fill="#808081"/><path d="M625.14,79.06a.74.74,0,0,1-.22.55.69.69,0,0,1-.5.21.67.67,0,0,1-.43-.14,1.05,1.05,0,0,1-.29-.39L623,77.72h-3.88l-.67,1.58a.82.82,0,0,1-.28.39.71.71,0,0,1-.41.13.7.7,0,0,1-.52-.18.71.71,0,0,1-.17-.49.77.77,0,0,1,0-.25l3.23-7.77a.88.88,0,0,1,.32-.41.66.66,0,0,1,.46-.11.76.76,0,0,1,.44.13.78.78,0,0,1,.29.39l3.2,7.61A1,1,0,0,1,625.14,79.06Zm-5.35-2.84h2.6l-1.31-3Z" fill="#808081"/><path d="M632.15,70.87a.69.69,0,0,1,.22.54.67.67,0,0,1-.22.54.8.8,0,0,1-.57.2h-2V79a.72.72,0,0,1-.25.57.87.87,0,0,1-.61.23.85.85,0,0,1-.6-.23.78.78,0,0,1-.23-.57V72.15h-2a.77.77,0,0,1-.57-.21.69.69,0,0,1-.23-.54.67.67,0,0,1,.23-.53.8.8,0,0,1,.57-.21h5.77A.8.8,0,0,1,632.15,70.87Z" fill="#808081"/><path d="M639.45,78.49a.74.74,0,0,1,.23.53.7.7,0,0,1-.23.53.79.79,0,0,1-.56.21h-4.36a.81.81,0,0,1-.57-.23.77.77,0,0,1-.22-.57V71.45a.76.76,0,0,1,.22-.56.77.77,0,0,1,.57-.23h4.36a.79.79,0,0,1,.56.21.75.75,0,0,1,.23.55.7.7,0,0,1-.22.53.8.8,0,0,1-.57.2h-3.53v2.21h2.94a.78.78,0,0,1,.57.22.71.71,0,0,1,.22.55.68.68,0,0,1-.22.53.81.81,0,0,1-.57.2h-2.94v2.4h3.53A.77.77,0,0,1,639.45,78.49Z" fill="#808081"/><path d="M647.17,71.26a3.81,3.81,0,0,1,1.34,1.64,6,6,0,0,1,0,4.62,3.84,3.84,0,0,1-1.34,1.63,3.54,3.54,0,0,1-2.1.61H642a.79.79,0,0,1-.8-.8V71.45a.77.77,0,0,1,.23-.56.74.74,0,0,1,.57-.23h3.1A3.61,3.61,0,0,1,647.17,71.26Zm-.47,6.14a3.84,3.84,0,0,0,.58-2.19,3.72,3.72,0,0,0-.59-2.19,2,2,0,0,0-1.75-.87H642.8v6.11h2.14A2,2,0,0,0,646.7,77.4Z" fill="#808081"/><path d="M661.91,77.57a4.36,4.36,0,0,1-1.58,1.69,4.4,4.4,0,0,1-4.54,0,4.33,4.33,0,0,1-1.57-1.69,5.17,5.17,0,0,1,0-4.72,4.36,4.36,0,0,1,1.57-1.7,4.47,4.47,0,0,1,4.54,0,4.39,4.39,0,0,1,1.58,1.7,5.17,5.17,0,0,1,0,4.72Zm-1.47-3.94a2.83,2.83,0,0,0-1-1.13,2.5,2.5,0,0,0-1.4-.41,2.43,2.43,0,0,0-1.41.41,2.77,2.77,0,0,0-1,1.12,3.63,3.63,0,0,0-.35,1.59,3.56,3.56,0,0,0,.35,1.58,2.73,2.73,0,0,0,1,1.13,2.51,2.51,0,0,0,1.41.41,2.43,2.43,0,0,0,1.4-.42,2.8,2.8,0,0,0,1-1.12,3.74,3.74,0,0,0,0-3.16Z" fill="#808081"/><path d="M670.75,71.76a.93.93,0,0,1-.2.54.64.64,0,0,1-.53.27.91.91,0,0,1-.44-.12,3.23,3.23,0,0,0-1.38-.3,3.12,3.12,0,0,0-1.59.39,2.58,2.58,0,0,0-1,1.08,3.39,3.39,0,0,0-.36,1.59,3.1,3.1,0,0,0,.83,2.33,3,3,0,0,0,2.16.79,3,3,0,0,0,1.38-.3,1,1,0,0,1,.41-.11.73.73,0,0,1,.58.29.84.84,0,0,1,.19.53.67.67,0,0,1-.4.64,4.77,4.77,0,0,1-2.16.51,5.1,5.1,0,0,1-2.34-.54,4.13,4.13,0,0,1-1.7-1.59,4.83,4.83,0,0,1-.64-2.55,4.7,4.7,0,0,1,.6-2.38,4.41,4.41,0,0,1,1.67-1.65,5,5,0,0,1,2.41-.59,4.57,4.57,0,0,1,2.14.51A.7.7,0,0,1,670.75,71.76Z" fill="#808081"/><path d="M677.84,78.49a.74.74,0,0,1,.23.53.7.7,0,0,1-.23.53.8.8,0,0,1-.57.21h-4.35a.79.79,0,0,1-.57-.23.77.77,0,0,1-.22-.57V71.45a.77.77,0,0,1,.79-.79h4.35a.8.8,0,0,1,.57.21.75.75,0,0,1,.23.55.7.7,0,0,1-.22.53.8.8,0,0,1-.58.2h-3.52v2.21h2.94a.75.75,0,0,1,.56.22.76.76,0,0,1,0,1.08.84.84,0,0,1-.57.2h-2.94v2.4h3.52A.78.78,0,0,1,677.84,78.49Z" fill="#808081"/><path d="M686.76,79.06a.74.74,0,0,1-.22.55.69.69,0,0,1-.5.21.67.67,0,0,1-.43-.14,1.05,1.05,0,0,1-.29-.39l-.68-1.57h-3.87l-.68,1.58a.81.81,0,0,1-.27.39.71.71,0,0,1-.41.13.7.7,0,0,1-.52-.18.71.71,0,0,1-.17-.49.77.77,0,0,1,0-.25L682,71.13a.93.93,0,0,1,.31-.41.7.7,0,0,1,.47-.11.75.75,0,0,1,.73.52l3.2,7.61A1,1,0,0,1,686.76,79.06Zm-5.35-2.84H684l-1.31-3Z" fill="#808081"/><path d="M695.28,70.87a.71.71,0,0,1,.19.52V79a.77.77,0,0,1-.22.57.79.79,0,0,1-.57.23,1.13,1.13,0,0,1-.36-.06.52.52,0,0,1-.25-.16l-4.77-6.06V79a.73.73,0,0,1-.2.52.71.71,0,0,1-.53.21.66.66,0,0,1-.51-.21.73.73,0,0,1-.19-.52V71.45a.79.79,0,0,1,.79-.79.84.84,0,0,1,.38.08.61.61,0,0,1,.28.2l4.74,6V71.39a.68.68,0,0,1,.2-.52.72.72,0,0,1,1,0Z" fill="#808081"/><path d="M708.86,77.57a4.29,4.29,0,0,1-1.58,1.69,4.39,4.39,0,0,1-4.53,0,4.29,4.29,0,0,1-1.58-1.69,5.25,5.25,0,0,1,0-4.72,4.31,4.31,0,0,1,1.58-1.7,4.45,4.45,0,0,1,4.53,0,4.31,4.31,0,0,1,1.58,1.7,5.17,5.17,0,0,1,0,4.72Zm-1.47-3.94a2.89,2.89,0,0,0-1-1.13,2.53,2.53,0,0,0-1.41-.41,2.48,2.48,0,0,0-1.41.41,2.77,2.77,0,0,0-1,1.12,3.63,3.63,0,0,0-.34,1.59,3.55,3.55,0,0,0,.34,1.58,2.73,2.73,0,0,0,1,1.13,2.56,2.56,0,0,0,1.41.41,2.46,2.46,0,0,0,1.41-.42,2.86,2.86,0,0,0,1-1.12,3.65,3.65,0,0,0,0-3.16Z" fill="#808081"/><path d="M717.51,75.55A2.27,2.27,0,0,1,718,77a2.44,2.44,0,0,1-.88,2.16,3.69,3.69,0,0,1-2.11.61h-3.24a.79.79,0,0,1-.79-.8V71.45a.77.77,0,0,1,.23-.56.73.73,0,0,1,.56-.23H715c1.65,0,2.47.77,2.47,2.31a1.85,1.85,0,0,1-.28,1,1.91,1.91,0,0,1-.8.71A2.62,2.62,0,0,1,717.51,75.55Zm-2-3.09a1,1,0,0,0-.75-.27h-2.14v2h2.18a1,1,0,0,0,.69-.26.9.9,0,0,0,.29-.7A1.07,1.07,0,0,0,715.51,72.46Zm.41,5.48a1.24,1.24,0,0,0,.34-1c0-.51-.13-.85-.4-1a1.91,1.91,0,0,0-1-.24h-2.25v2.51H715A1.37,1.37,0,0,0,715.92,77.94Z" fill="#808081"/><path d="M720.71,79.65a3.82,3.82,0,0,1-1.37-.79.93.93,0,0,1-.35-.69.77.77,0,0,1,.75-.75.72.72,0,0,1,.45.15,3.63,3.63,0,0,0,1,.63,3.19,3.19,0,0,0,1.17.19,2.37,2.37,0,0,0,1.25-.32.94.94,0,0,0,.53-.81,1,1,0,0,0-.52-.91,4.4,4.4,0,0,0-1.65-.51c-1.9-.27-2.85-1.16-2.85-2.65a2.43,2.43,0,0,1,.43-1.42,2.76,2.76,0,0,1,1.17-.92,4,4,0,0,1,1.65-.32,4.82,4.82,0,0,1,1.54.24,4.2,4.2,0,0,1,1.21.65.87.87,0,0,1,.37.69.73.73,0,0,1-.22.53.71.71,0,0,1-.52.23.55.55,0,0,1-.35-.12,3.39,3.39,0,0,0-.94-.5,3.18,3.18,0,0,0-1.09-.23,2.15,2.15,0,0,0-1.26.31,1,1,0,0,0,0,1.64,4.37,4.37,0,0,0,1.45.47,7.86,7.86,0,0,1,1.79.5,2.31,2.31,0,0,1,1,.83,2.52,2.52,0,0,1,.34,1.4,2.32,2.32,0,0,1-.46,1.44,3.09,3.09,0,0,1-1.23,1,4.12,4.12,0,0,1-1.65.33A5.28,5.28,0,0,1,720.71,79.65Z" fill="#808081"/><path d="M732.92,78.49a.74.74,0,0,1,.23.53.7.7,0,0,1-.23.53.8.8,0,0,1-.57.21H728a.78.78,0,0,1-.57-.23.77.77,0,0,1-.22-.57V71.45a.76.76,0,0,1,.22-.56.74.74,0,0,1,.57-.23h4.35a.8.8,0,0,1,.57.21.75.75,0,0,1,.23.55.7.7,0,0,1-.22.53.8.8,0,0,1-.58.2h-3.52v2.21h2.94a.76.76,0,0,1,.56.22.76.76,0,0,1,0,1.08.84.84,0,0,1-.57.2h-2.94v2.4h3.52A.78.78,0,0,1,732.92,78.49Z" fill="#808081"/><path d="M742,78.76a.64.64,0,0,1,.1.35.7.7,0,0,1-.15.43.75.75,0,0,1-.6.23,1.2,1.2,0,0,1-.57-.14,2.28,2.28,0,0,1-.94-2.17.91.91,0,0,0-.31-.74,1.21,1.21,0,0,0-.87-.28h-2.43V79a.9.9,0,0,1-.19.58.65.65,0,0,1-.5.22,1,1,0,0,1-.66-.23.69.69,0,0,1-.28-.57V71.45a.77.77,0,0,1,.23-.56.73.73,0,0,1,.56-.23h3.75a2.42,2.42,0,0,1,1.27.36,2.71,2.71,0,0,1,1,1,2.86,2.86,0,0,1,.35,1.43,2.46,2.46,0,0,1-.35,1.27,2.68,2.68,0,0,1-.91,1,2,2,0,0,1,.9,1.54,1.81,1.81,0,0,1,0,.4,4.37,4.37,0,0,0,.1.58.47.47,0,0,0,.24.26A.7.7,0,0,1,742,78.76Zm-2.47-3.88a1.6,1.6,0,0,0,.36-.59,2.11,2.11,0,0,0,.15-.8,1.58,1.58,0,0,0-.51-1.16.72.72,0,0,0-.46-.18h-2.84V75.1h2.84A.64.64,0,0,0,739.57,74.88Z" fill="#808081"/><path d="M750.58,70.85a.69.69,0,0,1,.25.54.93.93,0,0,1-.08.35l-3.21,7.51a.88.88,0,0,1-.33.38.74.74,0,0,1-.85,0,.75.75,0,0,1-.29-.36l-3.21-7.54a.61.61,0,0,1-.07-.32.72.72,0,0,1,.26-.57.83.83,0,0,1,.53-.21.72.72,0,0,1,.42.13.83.83,0,0,1,.3.38l2.61,6.14,2.39-6.14a.85.85,0,0,1,.3-.37.72.72,0,0,1,.42-.13A.78.78,0,0,1,750.58,70.85Z" fill="#808081"/><path d="M753.57,79.53a.85.85,0,0,1-.57.23.79.79,0,0,1-.81-.8V71.45a.77.77,0,0,1,.23-.56.81.81,0,0,1,.6-.23.75.75,0,0,1,.56.23.73.73,0,0,1,.23.56V79A.75.75,0,0,1,753.57,79.53Z" fill="#808081"/><path d="M763.17,70.87a.72.72,0,0,1,.2.52V79a.79.79,0,0,1-.79.8,1.13,1.13,0,0,1-.36-.06.47.47,0,0,1-.25-.16l-4.77-6.06V79a.7.7,0,0,1-.21.52.69.69,0,0,1-.52.21.66.66,0,0,1-.51-.21.73.73,0,0,1-.2-.52V71.45a.77.77,0,0,1,.23-.56.74.74,0,0,1,.57-.23.84.84,0,0,1,.38.08.61.61,0,0,1,.28.2L762,77V71.39a.72.72,0,0,1,.2-.52.7.7,0,0,1,.52-.21A.64.64,0,0,1,763.17,70.87Z" fill="#808081"/><path d="M772.59,75.07a.81.81,0,0,1,.22.57v2.75a.77.77,0,0,1-.41.7,5.15,5.15,0,0,1-2.79.8,4.75,4.75,0,0,1-4.11-2.34,4.52,4.52,0,0,1-.64-2.34,4.58,4.58,0,0,1,.64-2.35,4.78,4.78,0,0,1,1.73-1.7,4.68,4.68,0,0,1,2.38-.63,4.58,4.58,0,0,1,2.24.52.76.76,0,0,1,.29.27.75.75,0,0,1,.1.36.85.85,0,0,1-.22.57.67.67,0,0,1-.52.24,1,1,0,0,1-.43-.1,3.7,3.7,0,0,0-1.46-.3,2.89,2.89,0,0,0-1.53.42A3.14,3.14,0,0,0,767,73.65a3.08,3.08,0,0,0-.41,1.56,3.13,3.13,0,0,0,.41,1.56,3.3,3.3,0,0,0,1.12,1.14,2.89,2.89,0,0,0,1.53.42,4.42,4.42,0,0,0,.78-.07,4.15,4.15,0,0,0,.73-.17V76.4H769.9a.77.77,0,0,1-.57-.22.74.74,0,0,1-.23-.56.77.77,0,0,1,.23-.56.81.81,0,0,1,.57-.22H772A.77.77,0,0,1,772.59,75.07Z" fill="#808081"/><path d="M779.27,79.65a3.82,3.82,0,0,1-1.37-.79.93.93,0,0,1-.35-.69.74.74,0,0,1,.22-.52.74.74,0,0,1,1-.08,3.63,3.63,0,0,0,1,.63,3.19,3.19,0,0,0,1.17.19,2.41,2.41,0,0,0,1.26-.32,1,1,0,0,0,.52-.81,1,1,0,0,0-.52-.91,4.27,4.27,0,0,0-1.65-.51c-1.9-.27-2.84-1.16-2.84-2.65a2.43,2.43,0,0,1,.42-1.42,2.76,2.76,0,0,1,1.17-.92,4.06,4.06,0,0,1,1.66-.32,4.91,4.91,0,0,1,1.54.24,4,4,0,0,1,1.2.65.88.88,0,0,1,.38.69.74.74,0,0,1-.23.53.7.7,0,0,1-.52.23.57.57,0,0,1-.35-.12,3.39,3.39,0,0,0-.94-.5A3.13,3.13,0,0,0,781,72a2.19,2.19,0,0,0-1.27.31,1,1,0,0,0,0,1.64,4.37,4.37,0,0,0,1.45.47,7.71,7.71,0,0,1,1.79.5,2.4,2.4,0,0,1,1,.83,2.61,2.61,0,0,1,.33,1.4,2.32,2.32,0,0,1-.46,1.44,3.09,3.09,0,0,1-1.23,1,4.12,4.12,0,0,1-1.65.33A5.28,5.28,0,0,1,779.27,79.65Z" fill="#808081"/><path d="M792,71.91l-2.72,3.88V79a.77.77,0,0,1-.22.57.72.72,0,0,1-.53.23.79.79,0,0,1-.56-.23.77.77,0,0,1-.22-.57V75.61L785.05,72a1.06,1.06,0,0,1-.23-.61.73.73,0,0,1,.26-.56.84.84,0,0,1,.57-.23.8.8,0,0,1,.64.36l2.29,3.16L790.72,71a.75.75,0,0,1,1.2-.16.81.81,0,0,1,.23.57A.93.93,0,0,1,792,71.91Z" fill="#808081"/><path d="M794.26,79.65a3.82,3.82,0,0,1-1.37-.79.93.93,0,0,1-.35-.69.77.77,0,0,1,.75-.75.72.72,0,0,1,.45.15,3.63,3.63,0,0,0,1,.63,3.19,3.19,0,0,0,1.17.19,2.37,2.37,0,0,0,1.25-.32.94.94,0,0,0,.53-.81,1,1,0,0,0-.52-.91,4.4,4.4,0,0,0-1.65-.51c-1.9-.27-2.85-1.16-2.85-2.65a2.43,2.43,0,0,1,.43-1.42,2.76,2.76,0,0,1,1.17-.92,4,4,0,0,1,1.65-.32,4.82,4.82,0,0,1,1.54.24,4,4,0,0,1,1.21.65.87.87,0,0,1,.37.69.73.73,0,0,1-.22.53.71.71,0,0,1-.52.23.57.57,0,0,1-.35-.12,3.39,3.39,0,0,0-.94-.5,3.18,3.18,0,0,0-1.09-.23,2.15,2.15,0,0,0-1.26.31,1,1,0,0,0,0,1.64,4.37,4.37,0,0,0,1.45.47,7.86,7.86,0,0,1,1.79.5,2.31,2.31,0,0,1,1,.83,2.52,2.52,0,0,1,.34,1.4,2.32,2.32,0,0,1-.46,1.44,3.09,3.09,0,0,1-1.23,1,4.12,4.12,0,0,1-1.65.33A5.28,5.28,0,0,1,794.26,79.65Z" fill="#808081"/><path d="M807.31,70.87a.69.69,0,0,1,.22.54.67.67,0,0,1-.22.54.8.8,0,0,1-.57.2h-2V79a.76.76,0,0,1-.25.57.89.89,0,0,1-.61.23.85.85,0,0,1-.6-.23A.74.74,0,0,1,803,79V72.15h-2a.8.8,0,0,1-.57-.21.72.72,0,0,1-.22-.54.67.67,0,0,1,.23-.53.79.79,0,0,1,.56-.21h5.78A.8.8,0,0,1,807.31,70.87Z" fill="#808081"/><path d="M814.61,78.49a.73.73,0,0,1,.22.53.69.69,0,0,1-.22.53.8.8,0,0,1-.57.21h-4.35a.79.79,0,0,1-.8-.8V71.45a.77.77,0,0,1,.23-.56.74.74,0,0,1,.57-.23H814a.8.8,0,0,1,.57.21.74.74,0,0,1,.22.55.67.67,0,0,1-.22.53.76.76,0,0,1-.57.2h-3.52v2.21h2.94a.76.76,0,0,1,.56.22.72.72,0,0,1,.23.55.68.68,0,0,1-.22.53.84.84,0,0,1-.57.2h-2.94v2.4H814A.78.78,0,0,1,814.61,78.49Z" fill="#808081"/><path d="M824.79,70.87a.75.75,0,0,1,.24.57V79a.77.77,0,0,1-.81.8.84.84,0,0,1-.59-.22.78.78,0,0,1-.23-.58V73.73L821.26,77a1,1,0,0,1-.3.25.58.58,0,0,1-.35.09.53.53,0,0,1-.34-.09A1,1,0,0,1,820,77l-2.15-3.39V79a.85.85,0,0,1-.2.58.75.75,0,0,1-.55.22.69.69,0,0,1-.53-.23.8.8,0,0,1-.21-.57V71.44a.76.76,0,0,1,.24-.56.78.78,0,0,1,.58-.24.94.94,0,0,1,.39.1.77.77,0,0,1,.3.26l2.83,4.35L823.58,71a.87.87,0,0,1,.28-.26.77.77,0,0,1,.93.13Z" fill="#808081"/></svg>