<svg xmlns="http://www.w3.org/2000/svg" viewBox="0 0 552.73 94.76"><path d="M351.59,35.8l-16-23.14L310.13,0l-.05,0-30.4,8.83h-.17L263.63,27.7l-.06.06v.16l-4.46,30.89V59l16,23.12,25.47,12.63.24,0,30-8.83h.17l15.88-18.87L347,67v-.24l4.55-30.14m-8.29,3.88L335,16.5l15.55,19.38ZM272.49,57.83l-8.34-23.57,20.07-5.1Zm.24.73.16-.15.32-.33L285,29.43l12.95,24.46Zm25.5-3.72-.62,25.37L273.5,59.43ZM285.74,29l31.58,2.89L298.73,53.44Zm32.69,1.78L306.23,9.43l26.55,5ZM333.53,15l8.79,25.37-23.14-9.05Zm-7.88,48.37-26.26-9.29,18.68-21.57ZM317.46,31l-31.41-2.88L305.22,9.58ZM299.11,54.89l26.22,9.28L298.57,80.29ZM325.9,65l-1.7,21-24.83-5ZM319,32.27l23.31,9.18L326.68,63Zm16.12-18.74,9.76,14L334.36,14.15Zm-.86-.58-.69.57L320.33,6Zm-3.18.17L306,8.43,310,1Zm-22.24-12L305,8.37l-21.89.34Zm-4.69,8.12L285.24,27.57l-4.91-18Zm-24.65,1.09,4.9,17.8-19.86,5.08ZM264.35,28.15l12-14.36L263.88,32.47Zm-.62,7.69,8.1,22.8L260,58.38Zm-3.42,23.51,11.66.27,2.71,20.5Zm12.68.92L296.82,80.8l-21.06.71Zm4.2,22.09,20.45-.7,2.46,12ZM301.1,94l-2.47-12.18,24.08,4.86Zm29.52-8.74-4.72.63,17.39-15.59Zm-5.61.1,1.78-20.77,18.81,2.59Zm2.19-21.62,15.47-21.28,3.4,23.87Zm19.41.06-3-22.33,7.11-4.54Z" fill="#ffc0a9"/><path d="M275.84,57.79a3.88,3.88,0,0,0-2.15-2.08,3.9,3.9,0,0,0-5,5.18A3.87,3.87,0,0,0,270.82,63a3.94,3.94,0,0,0,3,0,3.9,3.9,0,0,0,2-5.13Z" fill="#d63d4f"/><path d="M321.55,28.29a4.69,4.69,0,0,0-6.09,7.14,4.58,4.58,0,0,0,3,1.12l.39,0a4.7,4.7,0,0,0,2.69-8.24Z" fill="#d63d4f"/><path d="M336.47,13.42a3.11,3.11,0,1,0-2.85,4.35,3,3,0,0,0,1.24-.26A3.11,3.11,0,0,0,336.47,13.42Z" fill="#d63d4f"/><path d="M302,52.81a3.11,3.11,0,0,0-5.74.1A3.12,3.12,0,0,0,298,57a3.21,3.21,0,0,0,1.14.22,3.17,3.17,0,0,0,1.24-.26A3.12,3.12,0,0,0,302,52.81Z" fill="#d63d4f"/><path d="M345.91,39.7a3.11,3.11,0,1,0-4,4.13,3.05,3.05,0,0,0,1.15.22,3.12,3.12,0,0,0,2.85-4.35Z" fill="#d63d4f"/><path d="M129.77,42.14a13.8,13.8,0,0,1-4.19-2.92,1.17,1.17,0,0,1-.1-1.79,1.14,1.14,0,0,1,.84-.39,1.2,1.2,0,0,1,.86.39,9.85,9.85,0,0,0,7.6,3.35,7.74,7.74,0,0,0,4.66-1.33A4.07,4.07,0,0,0,141.3,36a4.26,4.26,0,0,0-.92-2.79,6.85,6.85,0,0,0-2.4-1.81,31.18,31.18,0,0,0-3.78-1.44A23.19,23.19,0,0,1,130,28.3a7.71,7.71,0,0,1-2.75-2.4,6.41,6.41,0,0,1-1.06-3.8,6.29,6.29,0,0,1,1.11-3.67,7.55,7.55,0,0,1,3.12-2.51,11.06,11.06,0,0,1,4.63-.92,12.43,12.43,0,0,1,4.46.8,8,8,0,0,1,3.34,2.28,1.87,1.87,0,0,1,.58,1.13,1.09,1.09,0,0,1-.39.8,1.22,1.22,0,0,1-.86.37.9.9,0,0,1-.66-.27,7.69,7.69,0,0,0-2.81-2,8.92,8.92,0,0,0-3.66-.78,7.81,7.81,0,0,0-4.64,1.27,4,4,0,0,0-1.8,3.45,4,4,0,0,0,1.72,3.47,17.93,17.93,0,0,0,4.91,2.22,30.25,30.25,0,0,1,4.53,1.68,7.43,7.43,0,0,1,2.86,2.44A7.07,7.07,0,0,1,143.75,36a6.06,6.06,0,0,1-1.15,3.61,7.74,7.74,0,0,1-3.2,2.55,11,11,0,0,1-4.66.94A12.31,12.31,0,0,1,129.77,42.14Z" fill="#404041"/><path d="M152.76,42.34a1.19,1.19,0,0,1-2.06-.86V16.6a1.14,1.14,0,0,1,.35-.88,1.24,1.24,0,0,1,.89-.33,1.18,1.18,0,0,1,.86.35,1.15,1.15,0,0,1,.35.86V41.48A1.26,1.26,0,0,1,152.76,42.34Z" fill="#404041"/><path d="M184.51,36.26a12.83,12.83,0,0,1-22.78,0A15.31,15.31,0,0,1,160.05,29a15.35,15.35,0,0,1,1.68-7.25,12.59,12.59,0,0,1,4.64-5,13.62,13.62,0,0,1,13.5,0,12.59,12.59,0,0,1,4.64,5A15.35,15.35,0,0,1,186.18,29,15.31,15.31,0,0,1,184.51,36.26ZM182.34,23a10.07,10.07,0,0,0-3.74-4.16,10.89,10.89,0,0,0-11,0A10.07,10.07,0,0,0,163.9,23,13.24,13.24,0,0,0,162.55,29a13.24,13.24,0,0,0,1.35,6.06,10,10,0,0,0,3.74,4.16,10.89,10.89,0,0,0,11,0,10,10,0,0,0,3.74-4.16A13.24,13.24,0,0,0,183.69,29,13.24,13.24,0,0,0,182.34,23Z" fill="#404041"/><path d="M215.79,36.26a12.83,12.83,0,0,1-22.78,0A15.31,15.31,0,0,1,191.33,29,15.35,15.35,0,0,1,193,21.79a12.52,12.52,0,0,1,4.64-5,13.6,13.6,0,0,1,13.49,0,12.54,12.54,0,0,1,4.65,5A15.47,15.47,0,0,1,217.46,29,15.43,15.43,0,0,1,215.79,36.26ZM213.62,23a10.28,10.28,0,0,0-18.45,0A13.37,13.37,0,0,0,193.83,29a13.37,13.37,0,0,0,1.34,6.06,10,10,0,0,0,9.23,5.64,10.2,10.2,0,0,0,5.48-1.48,10.08,10.08,0,0,0,3.74-4.16A13.24,13.24,0,0,0,215,29,13.24,13.24,0,0,0,213.62,23Z" fill="#404041"/><path d="M244.92,18.39a1.47,1.47,0,0,1-.27.78,1.14,1.14,0,0,1-1.52.24,12.13,12.13,0,0,0-6.83-2.07,11.12,11.12,0,0,0-5.71,1.48,10.52,10.52,0,0,0-4,4.16A12.35,12.35,0,0,0,225.11,29a12.43,12.43,0,0,0,1.48,6.14,10.59,10.59,0,0,0,4,4.14,11.24,11.24,0,0,0,5.67,1.46,12.13,12.13,0,0,0,6.79-2,1.21,1.21,0,0,1,.66-.19,1.09,1.09,0,0,1,.9.46,1.11,1.11,0,0,1,.27.75,1,1,0,0,1-.55.93,14.27,14.27,0,0,1-3.74,1.7,14.89,14.89,0,0,1-4.33.68,13.68,13.68,0,0,1-6.84-1.77,13.21,13.21,0,0,1-5-5A14.31,14.31,0,0,1,222.61,29a14.23,14.23,0,0,1,1.83-7.16A13.41,13.41,0,0,1,236.3,15a15,15,0,0,1,4.27.62,13.54,13.54,0,0,1,3.76,1.76A1.09,1.09,0,0,1,244.92,18.39Z" fill="#404041"/><path d="M23,81.6a1.06,1.06,0,0,1-.35.82,1.18,1.18,0,0,1-.82.31,1.07,1.07,0,0,1-.68-.22,1.31,1.31,0,0,1-.45-.56l-2.92-7.14H5.07L2.18,82a1.07,1.07,0,0,1-1.05.78,1.13,1.13,0,0,1-.82-.27A1.19,1.19,0,0,1,0,81.72V81.6a1,1,0,0,1,0-.35l10.29-25.2a1.16,1.16,0,0,1,1.17-.78,1.18,1.18,0,0,1,.69.22,1.47,1.47,0,0,1,.45.56L22.89,81.13A1.81,1.81,0,0,1,23,81.6ZM6,72.51H16.81L11.35,59.17Z" fill="#404041"/><path d="M45.46,55.7a1.08,1.08,0,0,1,.33.82,1,1,0,0,1-.33.8,1.23,1.23,0,0,1-.84.29H36.54V81.52a1.08,1.08,0,0,1-.35.84,1.2,1.2,0,0,1-.86.33,1.18,1.18,0,0,1-.87-.33,1.14,1.14,0,0,1-.33-.84V57.61H26.05a1.16,1.16,0,0,1-.84-.31,1.08,1.08,0,0,1-.33-.82,1,1,0,0,1,.33-.78,1.21,1.21,0,0,1,.84-.31H44.62A1.24,1.24,0,0,1,45.46,55.7Z" fill="#404041"/><path d="M68.11,80.7a1.08,1.08,0,0,1,.33.82,1.13,1.13,0,0,1-1.17,1.17H53.35a1.13,1.13,0,0,1-1.17-1.17v-25a1.12,1.12,0,0,1,.35-.84,1.28,1.28,0,0,1,.9-.33,1.22,1.22,0,0,1,.86.33,1.12,1.12,0,0,1,.35.84V80.39H67.27A1.16,1.16,0,0,1,68.11,80.7Z" fill="#404041"/><path d="M94.77,81.6a1.06,1.06,0,0,1-.35.82,1.2,1.2,0,0,1-.82.31,1.07,1.07,0,0,1-.68-.22,1.31,1.31,0,0,1-.45-.56l-2.93-7.14H76.87L74,82a1.08,1.08,0,0,1-1,.78,1.13,1.13,0,0,1-.82-.27,1.14,1.14,0,0,1-.31-.74V81.6a1,1,0,0,1,0-.35l10.29-25.2a1.16,1.16,0,0,1,1.17-.78,1.18,1.18,0,0,1,.69.22,1.36,1.36,0,0,1,.44.56L94.69,81.13A2.38,2.38,0,0,1,94.77,81.6Zm-17-9.09H88.61L83.15,59.17Z" fill="#404041"/><path d="M121.74,55.7a1.12,1.12,0,0,1,.29.78v25a1.22,1.22,0,0,1-.35.92,1.2,1.2,0,0,1-.86.33,1.24,1.24,0,0,1-.53-.12,1.34,1.34,0,0,1-.4-.27L103.15,59.76V81.64a1,1,0,0,1-.33.74,1.11,1.11,0,0,1-1.54,0,1,1,0,0,1-.31-.74V56.56a1.14,1.14,0,0,1,.33-.86,1.16,1.16,0,0,1,.8-.31,1.08,1.08,0,0,1,.94.43l16.81,22.66v-22a1.06,1.06,0,0,1,.31-.78,1.1,1.1,0,0,1,.78-.31A1.08,1.08,0,0,1,121.74,55.7Z" fill="#404041"/><path d="M149,55.7a1.08,1.08,0,0,1,.33.82,1,1,0,0,1-.33.8,1.19,1.19,0,0,1-.84.29h-8.07V81.52a1.12,1.12,0,0,1-.35.84,1.23,1.23,0,0,1-.86.33,1.18,1.18,0,0,1-.88-.33,1.14,1.14,0,0,1-.33-.84V57.61H129.6a1.16,1.16,0,0,1-.84-.31,1.08,1.08,0,0,1-.33-.82,1,1,0,0,1,.33-.78,1.21,1.21,0,0,1,.84-.31h18.56A1.21,1.21,0,0,1,149,55.7Z" fill="#404041"/><path d="M157.79,82.34a1.19,1.19,0,0,1-2.06-.86V56.6a1.14,1.14,0,0,1,.35-.88,1.24,1.24,0,0,1,.89-.33,1.18,1.18,0,0,1,.86.35,1.15,1.15,0,0,1,.35.86V81.48A1.26,1.26,0,0,1,157.79,82.34Z" fill="#404041"/><path d="M193.83,85.19a1,1,0,0,1,.31.74A2.18,2.18,0,0,1,193,87.6,9.93,9.93,0,0,1,190.14,89a10.65,10.65,0,0,1-3.14.53,12.33,12.33,0,0,1-3.72-.49A24.91,24.91,0,0,1,180,87.6a18.09,18.09,0,0,0-2.45-1.13,7.41,7.41,0,0,0-2.38-.35,3.26,3.26,0,0,0-.92.12,7.62,7.62,0,0,0-1,.39A3.53,3.53,0,0,1,172,87a1.08,1.08,0,0,1-.8-.35,1.17,1.17,0,0,1-.33-.82,1,1,0,0,1,.66-1L176.63,83a12.21,12.21,0,0,1-6-2.24,12.84,12.84,0,0,1-4.07-4.93,16.55,16.55,0,0,1,.21-14,12.59,12.59,0,0,1,4.64-5,13.62,13.62,0,0,1,13.5,0,12.59,12.59,0,0,1,4.64,5A15.35,15.35,0,0,1,191.22,69,15.77,15.77,0,0,1,190,75.4a13,13,0,0,1-3.53,4.79,12,12,0,0,1-5.27,2.58l-4.09,1.36a7.51,7.51,0,0,1,2.05.49c.61.25,1.38.59,2.32,1a19.2,19.2,0,0,0,2.84,1.23,8.83,8.83,0,0,0,2.81.41,6.43,6.43,0,0,0,2.28-.35,10,10,0,0,0,1.86-.9,3.51,3.51,0,0,0,.74-.58,4.21,4.21,0,0,1,.56-.41,1.11,1.11,0,0,1,.57-.18A1,1,0,0,1,193.83,85.19ZM168.93,75.1a10,10,0,0,0,3.74,4.16,10.89,10.89,0,0,0,11,0,10,10,0,0,0,3.74-4.16,14.28,14.28,0,0,0,0-12.12,10.07,10.07,0,0,0-3.74-4.16,10.89,10.89,0,0,0-11,0A10.07,10.07,0,0,0,168.93,63a14.28,14.28,0,0,0,0,12.12Z" fill="#404041"/><path d="M218.65,55.72a1.14,1.14,0,0,1,.33.84V72.71a10.3,10.3,0,0,1-1.36,5.22,10.22,10.22,0,0,1-17.75,0,10.3,10.3,0,0,1-1.36-5.22V56.56a1.14,1.14,0,0,1,.33-.84,1.25,1.25,0,0,1,.92-.33,1.17,1.17,0,0,1,.82.33,1.12,1.12,0,0,1,.35.84V72.71a8,8,0,0,0,3.92,6.92,7.77,7.77,0,0,0,7.87,0,8.06,8.06,0,0,0,2.89-2.91,7.75,7.75,0,0,0,1.07-4V56.56a1.17,1.17,0,0,1,.32-.84,1.06,1.06,0,0,1,.81-.33A1.14,1.14,0,0,1,218.65,55.72Z" fill="#404041"/><path d="M244,80.74a1.16,1.16,0,0,1,.33.82,1.08,1.08,0,0,1-.33.82,1.16,1.16,0,0,1-.84.31H228.89a1.13,1.13,0,0,1-1.17-1.17v-25a1.13,1.13,0,0,1,1.17-1.17H243.2a1.13,1.13,0,0,1,1.17,1.17,1.08,1.08,0,0,1-.33.82,1.16,1.16,0,0,1-.84.31h-13v9.79h11.27a1.17,1.17,0,0,1,.84.33,1.14,1.14,0,0,1,.33.84,1.08,1.08,0,0,1-.33.82,1.2,1.2,0,0,1-.84.31H230.18V80.39h13A1.12,1.12,0,0,1,244,80.74Z" fill="#404041"/><path d="M388.38,18.39a1.47,1.47,0,0,1-.27.78,1.09,1.09,0,0,1-.9.43,1.17,1.17,0,0,1-.62-.19,12.08,12.08,0,0,0-6.82-2.07,11.16,11.16,0,0,0-5.72,1.48A10.56,10.56,0,0,0,370,23,12.35,12.35,0,0,0,368.57,29a12.54,12.54,0,0,0,1.48,6.14,10.65,10.65,0,0,0,4,4.14,11.28,11.28,0,0,0,5.68,1.46,12.08,12.08,0,0,0,6.78-2,1.23,1.23,0,0,1,.66-.19,1.07,1.07,0,0,1,.9.46,1.11,1.11,0,0,1,.27.75,1,1,0,0,1-.54.93,14.2,14.2,0,0,1-3.75,1.7,14.83,14.83,0,0,1-4.32.68,13.71,13.71,0,0,1-6.85-1.77,13.18,13.18,0,0,1-5-5A14.22,14.22,0,0,1,366.08,29a14.23,14.23,0,0,1,1.83-7.16A13.38,13.38,0,0,1,379.77,15a15.05,15.05,0,0,1,4.27.62,13.68,13.68,0,0,1,3.76,1.76A1.08,1.08,0,0,1,388.38,18.39Z" fill="#404041"/><path d="M396.81,42.34a1.18,1.18,0,0,1-.86.35,1.2,1.2,0,0,1-.88-.33,1.18,1.18,0,0,1-.33-.88V16.6a1.17,1.17,0,0,1,.35-.88,1.28,1.28,0,0,1,.9-.33,1.2,1.2,0,0,1,1.21,1.21V41.48A1.35,1.35,0,0,1,396.81,42.34Z" fill="#404041"/><path d="M428.55,36.26a12.82,12.82,0,0,1-22.77,0A15.31,15.31,0,0,1,404.1,29a15.35,15.35,0,0,1,1.68-7.25,12.52,12.52,0,0,1,4.64-5,13.6,13.6,0,0,1,13.49,0,12.45,12.45,0,0,1,4.64,5A15.35,15.35,0,0,1,430.23,29,15.31,15.31,0,0,1,428.55,36.26ZM426.39,23a10.28,10.28,0,0,0-18.45,0A13.37,13.37,0,0,0,406.6,29a13.37,13.37,0,0,0,1.34,6.06,10,10,0,0,0,9.23,5.64,10.2,10.2,0,0,0,5.48-1.48,10.08,10.08,0,0,0,3.74-4.16A13.24,13.24,0,0,0,427.74,29,13.24,13.24,0,0,0,426.39,23Z" fill="#404041"/><path d="M459.83,36.26a12.82,12.82,0,0,1-22.77,0A15.31,15.31,0,0,1,435.38,29a15.35,15.35,0,0,1,1.68-7.25,12.45,12.45,0,0,1,4.64-5,13.6,13.6,0,0,1,13.49,0,12.52,12.52,0,0,1,4.64,5A15.35,15.35,0,0,1,461.51,29,15.31,15.31,0,0,1,459.83,36.26ZM457.67,23a10.28,10.28,0,0,0-18.45,0A13.24,13.24,0,0,0,437.88,29a13.24,13.24,0,0,0,1.34,6.06,10.28,10.28,0,0,0,18.45,0A13.24,13.24,0,0,0,459,29,13.24,13.24,0,0,0,457.67,23Z" fill="#404041"/><path d="M470.85,42.14a13.8,13.8,0,0,1-4.19-2.92,1.17,1.17,0,0,1-.1-1.79,1.14,1.14,0,0,1,.84-.39,1.2,1.2,0,0,1,.86.39,9.85,9.85,0,0,0,7.6,3.35,7.76,7.76,0,0,0,4.66-1.33A4.07,4.07,0,0,0,482.38,36a4.26,4.26,0,0,0-.92-2.79,6.85,6.85,0,0,0-2.4-1.81,31.18,31.18,0,0,0-3.78-1.44,23.62,23.62,0,0,1-4.2-1.64,7.8,7.8,0,0,1-2.75-2.4,6.48,6.48,0,0,1-1.05-3.8,6.29,6.29,0,0,1,1.11-3.67,7.48,7.48,0,0,1,3.12-2.51,11,11,0,0,1,4.62-.92,12.44,12.44,0,0,1,4.47.8,8,8,0,0,1,3.34,2.28,1.87,1.87,0,0,1,.58,1.13,1.09,1.09,0,0,1-.39.8,1.22,1.22,0,0,1-.86.37.9.9,0,0,1-.66-.27,7.69,7.69,0,0,0-2.81-2,8.93,8.93,0,0,0-3.67-.78,7.85,7.85,0,0,0-4.64,1.27A4,4,0,0,0,469.7,22a4,4,0,0,0,1.72,3.47,17.93,17.93,0,0,0,4.91,2.22,30.08,30.08,0,0,1,4.52,1.68,7.46,7.46,0,0,1,2.87,2.44A7.07,7.07,0,0,1,484.83,36a6.06,6.06,0,0,1-1.15,3.61,7.74,7.74,0,0,1-3.2,2.55,11,11,0,0,1-4.66.94A12.31,12.31,0,0,1,470.85,42.14Z" fill="#404041"/><path d="M388.31,81.6a1.06,1.06,0,0,1-.35.82,1.2,1.2,0,0,1-.82.31,1.12,1.12,0,0,1-.69-.22A1.36,1.36,0,0,1,386,82l-2.93-7.14H370.41L367.52,82a1.08,1.08,0,0,1-1,.78,1.11,1.11,0,0,1-.82-.27,1.14,1.14,0,0,1-.31-.74V81.6a1,1,0,0,1,0-.35l10.29-25.2a1.16,1.16,0,0,1,1.17-.78,1.13,1.13,0,0,1,.68.22,1.31,1.31,0,0,1,.45.56l10.26,25.08A2.38,2.38,0,0,1,388.31,81.6Zm-17-9.09h10.85l-5.46-13.34Z" fill="#404041"/><path d="M410.79,55.7a1.08,1.08,0,0,1,.33.82,1,1,0,0,1-.33.8,1.19,1.19,0,0,1-.84.29h-8.07V81.52a1.12,1.12,0,0,1-.35.84,1.22,1.22,0,0,1-.86.33,1.2,1.2,0,0,1-.88-.33,1.14,1.14,0,0,1-.33-.84V57.61h-8.07a1.16,1.16,0,0,1-.84-.31,1.08,1.08,0,0,1-.33-.82,1,1,0,0,1,.33-.78,1.21,1.21,0,0,1,.84-.31H410A1.21,1.21,0,0,1,410.79,55.7Z" fill="#404041"/><path d="M433.45,80.7a1.08,1.08,0,0,1,.33.82,1.13,1.13,0,0,1-1.17,1.17H418.69a1.13,1.13,0,0,1-1.17-1.17v-25a1.08,1.08,0,0,1,.35-.84,1.25,1.25,0,0,1,.9-.33,1.19,1.19,0,0,1,.85.33,1.08,1.08,0,0,1,.35.84V80.39h12.64A1.16,1.16,0,0,1,433.45,80.7Z" fill="#404041"/><path d="M460.11,81.6a1,1,0,0,1-.36.82,1.16,1.16,0,0,1-.81.31,1.12,1.12,0,0,1-.69-.22,1.47,1.47,0,0,1-.45-.56l-2.92-7.14H442.21L439.32,82a1.08,1.08,0,0,1-1.05.78,1.11,1.11,0,0,1-.82-.27,1.15,1.15,0,0,1-.32-.74V81.6a1.4,1.4,0,0,1,0-.35l10.3-25.2a1.16,1.16,0,0,1,1.17-.78,1.13,1.13,0,0,1,.68.22,1.31,1.31,0,0,1,.45.56L460,81.13A2.38,2.38,0,0,1,460.11,81.6Zm-17-9.09h10.84l-5.46-13.34Z" fill="#404041"/><path d="M487.07,55.7a1.09,1.09,0,0,1,.3.78v25a1.17,1.17,0,0,1-1.21,1.25,1.24,1.24,0,0,1-.53-.12,1.39,1.39,0,0,1-.41-.27L468.49,59.76V81.64a1,1,0,0,1-.33.74,1.07,1.07,0,0,1-.76.31,1.06,1.06,0,0,1-.78-.31,1,1,0,0,1-.31-.74V56.56a1.14,1.14,0,0,1,.33-.86,1.16,1.16,0,0,1,.8-.31,1.06,1.06,0,0,1,.93.43l16.81,22.66v-22a1.06,1.06,0,0,1,1.09-1.09A1.06,1.06,0,0,1,487.07,55.7Z" fill="#404041"/><path d="M514.33,55.7a1.08,1.08,0,0,1,.34.82,1,1,0,0,1-.34.8,1.19,1.19,0,0,1-.83.29h-8.08V81.52a1.08,1.08,0,0,1-.35.84,1.2,1.2,0,0,1-.86.33,1.18,1.18,0,0,1-.87-.33,1.15,1.15,0,0,1-.34-.84V57.61h-8.07a1.16,1.16,0,0,1-.84-.31,1.08,1.08,0,0,1-.33-.82,1,1,0,0,1,.33-.78,1.21,1.21,0,0,1,.84-.31H513.5A1.2,1.2,0,0,1,514.33,55.7Z" fill="#404041"/><path d="M523.13,82.34a1.19,1.19,0,0,1-2.07-.86V56.6a1.17,1.17,0,0,1,.35-.88,1.28,1.28,0,0,1,.9-.33,1.2,1.2,0,0,1,1.21,1.21V81.48A1.35,1.35,0,0,1,523.13,82.34Z" fill="#404041"/><path d="M552.73,58.39a1.47,1.47,0,0,1-.27.78,1.14,1.14,0,0,1-1.52.24,12.11,12.11,0,0,0-6.83-2.07,11.12,11.12,0,0,0-5.71,1.48,10.59,10.59,0,0,0-4,4.16,13.39,13.39,0,0,0,0,12.2,10.59,10.59,0,0,0,4,4.14,11.24,11.24,0,0,0,5.67,1.46,12.13,12.13,0,0,0,6.79-2,1.21,1.21,0,0,1,.66-.19,1.09,1.09,0,0,1,.9.46,1.11,1.11,0,0,1,.27.75,1,1,0,0,1-.55.93,14.27,14.27,0,0,1-3.74,1.7,14.89,14.89,0,0,1-4.33.68,13.68,13.68,0,0,1-6.84-1.77,13.21,13.21,0,0,1-5-5,15.1,15.1,0,0,1,0-14.45A13.41,13.41,0,0,1,544.11,55a15,15,0,0,1,4.27.62,13.54,13.54,0,0,1,3.76,1.76A1.07,1.07,0,0,1,552.73,58.39Z" fill="#404041"/></svg>