<svg xmlns="http://www.w3.org/2000/svg" viewBox="0 0 782.34 94.76"><path d="M444.29,35.8l-16-23.14L402.83,0l-.05,0-30.4,8.83h-.17L356.33,27.7l-.06.06v.16l-4.46,30.89V59l16,23.12,25.47,12.63.24,0,30-8.83h.17l15.88-18.87.06-.07v-.24l4.55-30.14M436,40.49l-8.26-24,15.56,19.38ZM365.19,57.83l-8.34-23.57,20.07-5.1Zm.24.73.16-.15.32-.33,11.76-28.65,13,24.46Zm25.51-3.72-.63,25.37L366.2,59.43ZM378.44,29,410,31.88,391.43,53.44Zm32.69,1.78L398.94,9.43l26.54,5ZM426.24,15,435,40.34l-23.13-9.05Zm-7.89,48.37-26.26-9.29,18.68-21.57ZM410.16,31l-31.41-2.88L397.92,9.58ZM391.81,54.89,418,64.17,391.27,80.29ZM418.6,65l-1.7,21-24.83-5Zm-6.87-32.68L435,41.45,419.38,63Zm16.13-18.74,9.75,14L427.06,14.15ZM427,13l-.69.57L413,6Zm-3.18.17L398.74,8.43l4-7.46Zm-22.24-12-3.84,7.24-21.89.34Zm-4.69,8.12L377.94,27.57,373,9.61Zm-24.65,1.09,4.9,17.8-19.86,5.08ZM357.05,28.15l12-14.36L356.58,32.47Zm-.62,7.69,8.1,22.8-11.8-.26ZM353,59.35l11.65.27,2.71,20.5Zm12.67.92L389.52,80.8l-21.06.71Zm4.2,22.09,20.45-.7,2.46,12ZM393.8,94l-2.47-12.18,24.09,4.86Zm29.52-8.74-4.72.63L436,70.29Zm-5.61.1,1.79-20.77,18.8,2.59Zm2.19-21.62,15.47-21.28,3.4,23.87Zm19.41.06-3-22.33,7.11-4.54Z"/><path d="M368.54,57.79a3.88,3.88,0,0,0-2.15-2.08,3.91,3.91,0,0,0-5.06,2.19A3.92,3.92,0,0,0,363.52,63a3.94,3.94,0,0,0,3,0,3.9,3.9,0,0,0,2-5.13Z"/><path d="M414.26,28.29a4.7,4.7,0,0,0-6.1,7.14,4.6,4.6,0,0,0,3,1.12l.39,0a4.7,4.7,0,0,0,2.7-8.24Z"/><path d="M429.18,13.42a3.12,3.12,0,1,0-2.86,4.35,3,3,0,0,0,1.24-.26A3.12,3.12,0,0,0,429.18,13.42Z"/><path d="M394.68,52.81a3.12,3.12,0,0,0-4.1-1.61A3.11,3.11,0,0,0,389,55.29,3.13,3.13,0,0,0,390.68,57a3.25,3.25,0,0,0,1.14.22,3.17,3.17,0,0,0,1.24-.26A3.13,3.13,0,0,0,394.68,52.81Z"/><path d="M438.61,39.7a3.11,3.11,0,0,0-4.09-1.62,3.13,3.13,0,0,0-1.62,4.09,3.13,3.13,0,0,0,1.71,1.66,3.09,3.09,0,0,0,1.15.22,3.17,3.17,0,0,0,1.24-.26A3.11,3.11,0,0,0,438.61,39.7Z"/><path d="M4.66,42.14A13.8,13.8,0,0,1,.47,39.22a1.17,1.17,0,0,1-.1-1.79A1.14,1.14,0,0,1,1.21,37a1.2,1.2,0,0,1,.86.39,9.84,9.84,0,0,0,7.6,3.35,7.76,7.76,0,0,0,4.66-1.33A4.06,4.06,0,0,0,16.18,36a4.26,4.26,0,0,0-.91-2.79,6.85,6.85,0,0,0-2.4-1.81,31.18,31.18,0,0,0-3.78-1.44,23.62,23.62,0,0,1-4.2-1.64,7.8,7.8,0,0,1-2.75-2.4,6.48,6.48,0,0,1-1-3.8A6.29,6.29,0,0,1,2.2,18.43a7.48,7.48,0,0,1,3.12-2.51A11,11,0,0,1,9.94,15a12.44,12.44,0,0,1,4.47.8,8,8,0,0,1,3.34,2.28,1.93,1.93,0,0,1,.58,1.13,1.09,1.09,0,0,1-.39.8,1.22,1.22,0,0,1-.86.37.9.9,0,0,1-.66-.27,7.69,7.69,0,0,0-2.81-2,8.93,8.93,0,0,0-3.67-.78A7.85,7.85,0,0,0,5.3,18.57,4,4,0,0,0,3.51,22a4,4,0,0,0,1.72,3.47,17.93,17.93,0,0,0,4.91,2.22,30.08,30.08,0,0,1,4.52,1.68,7.46,7.46,0,0,1,2.87,2.44A7.07,7.07,0,0,1,18.64,36a6.06,6.06,0,0,1-1.15,3.61,7.74,7.74,0,0,1-3.2,2.55,11,11,0,0,1-4.66.94A12.31,12.31,0,0,1,4.66,42.14Z"/><path d="M27.65,42.34a1.27,1.27,0,0,1-1.73,0,1.15,1.15,0,0,1-.34-.88V16.6a1.17,1.17,0,0,1,.35-.88,1.28,1.28,0,0,1,.9-.33,1.18,1.18,0,0,1,.86.35,1.19,1.19,0,0,1,.35.86V41.48A1.35,1.35,0,0,1,27.65,42.34Z"/><path d="M59.4,36.26a12.83,12.83,0,0,1-22.78,0A15.31,15.31,0,0,1,34.94,29a15.35,15.35,0,0,1,1.68-7.25,12.59,12.59,0,0,1,4.64-5,13.6,13.6,0,0,1,13.49,0,12.54,12.54,0,0,1,4.65,5A15.47,15.47,0,0,1,61.07,29,15.43,15.43,0,0,1,59.4,36.26ZM57.23,23a10.27,10.27,0,0,0-18.44,0A13.24,13.24,0,0,0,37.44,29a13.24,13.24,0,0,0,1.35,6.06,10,10,0,0,0,3.74,4.16,10.89,10.89,0,0,0,11,0,10.08,10.08,0,0,0,3.74-4.16A13.24,13.24,0,0,0,58.58,29,13.24,13.24,0,0,0,57.23,23Z"/><path d="M90.67,36.26a12.82,12.82,0,0,1-22.77,0A15.31,15.31,0,0,1,66.22,29a15.35,15.35,0,0,1,1.68-7.25,12.52,12.52,0,0,1,4.64-5,13.6,13.6,0,0,1,13.49,0,12.45,12.45,0,0,1,4.64,5A15.35,15.35,0,0,1,92.35,29,15.31,15.31,0,0,1,90.67,36.26ZM88.51,23a10.28,10.28,0,0,0-18.45,0A13.37,13.37,0,0,0,68.72,29a13.37,13.37,0,0,0,1.34,6.06,10,10,0,0,0,9.23,5.64,10.2,10.2,0,0,0,5.48-1.48,10.08,10.08,0,0,0,3.74-4.16A13.24,13.24,0,0,0,89.86,29,13.24,13.24,0,0,0,88.51,23Z"/><path d="M119.81,18.39a1.47,1.47,0,0,1-.27.78,1.12,1.12,0,0,1-.9.43,1.18,1.18,0,0,1-.63-.19,12.08,12.08,0,0,0-6.82-2.07,11.12,11.12,0,0,0-5.71,1.48,10.52,10.52,0,0,0-4,4.16A12.35,12.35,0,0,0,100,29a12.43,12.43,0,0,0,1.48,6.14,10.63,10.63,0,0,0,4,4.14,11.3,11.3,0,0,0,5.68,1.46,12.08,12.08,0,0,0,6.78-2,1.24,1.24,0,0,1,.67-.19,1.09,1.09,0,0,1,.9.46,1.11,1.11,0,0,1,.27.75,1,1,0,0,1-.55.93,14.27,14.27,0,0,1-3.74,1.7,14.89,14.89,0,0,1-4.33.68,13.74,13.74,0,0,1-6.85-1.77,13.25,13.25,0,0,1-5-5A14.31,14.31,0,0,1,97.5,29a14.23,14.23,0,0,1,1.83-7.16A13.41,13.41,0,0,1,111.19,15a15.05,15.05,0,0,1,4.27.62,13.68,13.68,0,0,1,3.76,1.76A1.09,1.09,0,0,1,119.81,18.39Z"/><path d="M152.49,16.38a7,7,0,0,1,2.67,2.77,8.3,8.3,0,0,1,1,4,8.62,8.62,0,0,1-1,4.06,7.27,7.27,0,0,1-2.67,2.88,7.18,7.18,0,0,1-3.86,1.06h-8.08V41.52a1.17,1.17,0,1,1-2.34,0v-25a1.15,1.15,0,0,1,.34-.84,1.13,1.13,0,0,1,.83-.33h9.25A7.6,7.6,0,0,1,152.49,16.38Zm-.2,10.87a6.08,6.08,0,0,0,1.41-4.1,5.58,5.58,0,0,0-1.41-3.94,4.75,4.75,0,0,0-3.66-1.52h-8.08V28.88h8.08A4.57,4.57,0,0,0,152.29,27.25Z"/><path d="M181.74,41.6a1.06,1.06,0,0,1-.35.82,1.2,1.2,0,0,1-.82.31,1.07,1.07,0,0,1-.68-.22,1.31,1.31,0,0,1-.45-.56l-2.93-7.14H163.84L161,42a1.08,1.08,0,0,1-1,.78,1.13,1.13,0,0,1-.82-.27,1.14,1.14,0,0,1-.31-.74V41.6a1,1,0,0,1,0-.35l10.29-25.2a1.16,1.16,0,0,1,1.17-.78,1.18,1.18,0,0,1,.69.22,1.36,1.36,0,0,1,.44.56l10.26,25.08A2.38,2.38,0,0,1,181.74,41.6Zm-17-9.09h10.84l-5.46-13.34Z"/><path d="M208.26,18.39a1.47,1.47,0,0,1-.27.78,1.14,1.14,0,0,1-1.52.24,12.11,12.11,0,0,0-6.83-2.07,11.15,11.15,0,0,0-5.71,1.48,10.59,10.59,0,0,0-4,4.16A12.46,12.46,0,0,0,188.45,29a12.43,12.43,0,0,0,1.48,6.14,10.59,10.59,0,0,0,4,4.14,11.24,11.24,0,0,0,5.67,1.46,12.13,12.13,0,0,0,6.79-2,1.21,1.21,0,0,1,.66-.19,1.09,1.09,0,0,1,.9.46,1.11,1.11,0,0,1,.27.75,1,1,0,0,1-.55.93A14.27,14.27,0,0,1,204,42.4a14.89,14.89,0,0,1-4.33.68,13.68,13.68,0,0,1-6.84-1.77,13.21,13.21,0,0,1-5-5A14.31,14.31,0,0,1,186,29a14.14,14.14,0,0,1,1.84-7.16A13.38,13.38,0,0,1,199.64,15a15,15,0,0,1,4.27.62,13.54,13.54,0,0,1,3.76,1.76A1.07,1.07,0,0,1,208.26,18.39Z"/><path d="M216.68,42.34a1.17,1.17,0,0,1-.85.35,1.14,1.14,0,0,1-1.21-1.21V16.6a1.14,1.14,0,0,1,.35-.88,1.24,1.24,0,0,1,.89-.33,1.18,1.18,0,0,1,.86.35,1.15,1.15,0,0,1,.35.86V41.48A1.26,1.26,0,0,1,216.68,42.34Z"/><path d="M242,15.72a1.11,1.11,0,0,1,.34.84,1.07,1.07,0,0,1-.34.8,1.13,1.13,0,0,1-.83.33h-13v9.79h11.23a1.16,1.16,0,0,1,.84.31,1.18,1.18,0,0,1,0,1.64,1.16,1.16,0,0,1-.84.31H228.15V41.52A1.13,1.13,0,0,1,227,42.69a1.2,1.2,0,0,1-.88-.33,1.14,1.14,0,0,1-.33-.84v-25a1.13,1.13,0,0,1,1.17-1.17h14.2A1.13,1.13,0,0,1,242,15.72Z"/><path d="M251.32,42.34a1.19,1.19,0,0,1-2.07-.86V16.6a1.17,1.17,0,0,1,.35-.88,1.25,1.25,0,0,1,.9-.33,1.21,1.21,0,0,1,.86.35,1.19,1.19,0,0,1,.35.86V41.48A1.35,1.35,0,0,1,251.32,42.34Z"/><path d="M287.35,45.19a1,1,0,0,1,.31.74,2.18,2.18,0,0,1-1.15,1.67A9.74,9.74,0,0,1,283.67,49a10.7,10.7,0,0,1-3.14.53A12.35,12.35,0,0,1,276.8,49a24.28,24.28,0,0,1-3.29-1.39,18.14,18.14,0,0,0-2.46-1.13,7.41,7.41,0,0,0-2.38-.35,3.31,3.31,0,0,0-.92.12,7.62,7.62,0,0,0-1,.39,3.53,3.53,0,0,1-1.25.39,1.08,1.08,0,0,1-.8-.35,1.17,1.17,0,0,1-.33-.82,1,1,0,0,1,.66-1L270.15,43a12.13,12.13,0,0,1-6-2.24,12.87,12.87,0,0,1-4.08-4.93A15.54,15.54,0,0,1,258.61,29a15.35,15.35,0,0,1,1.68-7.25,12.45,12.45,0,0,1,4.64-5,13.6,13.6,0,0,1,13.49,0,12.52,12.52,0,0,1,4.64,5A15.35,15.35,0,0,1,284.74,29a15.6,15.6,0,0,1-1.27,6.36,12.93,12.93,0,0,1-3.53,4.79,12,12,0,0,1-5.26,2.58l-4.1,1.36a7.51,7.51,0,0,1,2.05.49c.61.25,1.38.59,2.32,1a18.83,18.83,0,0,0,2.85,1.23,8.72,8.72,0,0,0,2.8.41,6.53,6.53,0,0,0,2.29-.35,10.17,10.17,0,0,0,1.85-.9,3.51,3.51,0,0,0,.74-.58,4.21,4.21,0,0,1,.56-.41,1.11,1.11,0,0,1,.57-.18A1,1,0,0,1,287.35,45.19ZM262.45,35.1a10.08,10.08,0,0,0,3.74,4.16,10.89,10.89,0,0,0,11,0,10.1,10.1,0,0,0,3.75-4.16A13.37,13.37,0,0,0,282.24,29,13.37,13.37,0,0,0,280.9,23a10.28,10.28,0,0,0-18.45,0A13.24,13.24,0,0,0,261.1,29,13.24,13.24,0,0,0,262.45,35.1Z"/><path d="M312.17,15.72a1.11,1.11,0,0,1,.34.84V32.71a10.3,10.3,0,0,1-1.37,5.22,10.21,10.21,0,0,1-17.74,0A10.3,10.3,0,0,1,292,32.71V16.56a1.14,1.14,0,0,1,.33-.84,1.25,1.25,0,0,1,.92-.33,1.17,1.17,0,0,1,.82.33,1.12,1.12,0,0,1,.35.84V32.71a8,8,0,0,0,3.92,6.92,7.6,7.6,0,0,0,3.92,1.07,7.69,7.69,0,0,0,4-1.07,8,8,0,0,0,2.88-2.91,7.76,7.76,0,0,0,1.08-4V16.56a1.16,1.16,0,0,1,.31-.84,1.06,1.06,0,0,1,.82-.33A1.13,1.13,0,0,1,312.17,15.72Z"/><path d="M337.56,40.74a1.17,1.17,0,0,1,.34.82,1.08,1.08,0,0,1-.34.82,1.16,1.16,0,0,1-.83.31H322.41a1.13,1.13,0,0,1-1.17-1.17v-25a1.13,1.13,0,0,1,1.17-1.17h14.32a1.13,1.13,0,0,1,.83.33,1.15,1.15,0,0,1,.34.84,1.08,1.08,0,0,1-.34.82,1.16,1.16,0,0,1-.83.31h-13v9.79H335a1.13,1.13,0,0,1,1.17,1.17,1.08,1.08,0,0,1-.33.82,1.16,1.16,0,0,1-.84.31H323.7V40.39h13A1.11,1.11,0,0,1,337.56,40.74Z"/><path d="M92.55,64.05a3.78,3.78,0,0,1-1.36-.79.91.91,0,0,1-.36-.69.71.71,0,0,1,.23-.52.67.67,0,0,1,.53-.23A.71.71,0,0,1,92,62a3.78,3.78,0,0,0,1,.63,3.19,3.19,0,0,0,1.17.19,2.41,2.41,0,0,0,1.26-.32,1,1,0,0,0,.53-.81,1,1,0,0,0-.52-.91,4.24,4.24,0,0,0-1.66-.5C91.93,60,91,59.08,91,57.59a2.36,2.36,0,0,1,.43-1.42,2.64,2.64,0,0,1,1.17-.92,4,4,0,0,1,1.65-.32,4.87,4.87,0,0,1,1.54.24,3.82,3.82,0,0,1,1.2.66.85.85,0,0,1,.38.68.77.77,0,0,1-.22.53.71.71,0,0,1-.52.23.55.55,0,0,1-.35-.12,3.47,3.47,0,0,0-1-.5,3.13,3.13,0,0,0-1.08-.23,2.27,2.27,0,0,0-1.27.31.92.92,0,0,0-.45.8.94.94,0,0,0,.46.84,4.37,4.37,0,0,0,1.45.47,7.71,7.71,0,0,1,1.79.5,2.34,2.34,0,0,1,1,.83,2.61,2.61,0,0,1,.34,1.4A2.32,2.32,0,0,1,97.09,63a2.91,2.91,0,0,1-1.22,1,4.2,4.2,0,0,1-1.66.33A5.32,5.32,0,0,1,92.55,64.05Z"/><path d="M105.29,56.31l-2.72,3.88v3.18a.76.76,0,0,1-.22.56.72.72,0,0,1-.53.23.75.75,0,0,1-.55-.23.73.73,0,0,1-.23-.56V60l-2.71-3.59a1.06,1.06,0,0,1-.23-.61.71.71,0,0,1,.27-.56.8.8,0,0,1,.56-.23.78.78,0,0,1,.64.36l2.29,3.16L104,55.41a.75.75,0,0,1,1.2-.16.82.82,0,0,1,.23.58A.92.92,0,0,1,105.29,56.31Z"/><path d="M107.54,64.05a3.82,3.82,0,0,1-1.37-.79.93.93,0,0,1-.35-.69.74.74,0,0,1,.22-.52.74.74,0,0,1,1-.08,3.78,3.78,0,0,0,1,.63,3.19,3.19,0,0,0,1.17.19,2.41,2.41,0,0,0,1.26-.32,1,1,0,0,0,.52-.81,1,1,0,0,0-.52-.91,4.13,4.13,0,0,0-1.65-.5C106.92,60,106,59.08,106,57.59a2.36,2.36,0,0,1,.43-1.42,2.64,2.64,0,0,1,1.17-.92,4,4,0,0,1,1.65-.32,4.87,4.87,0,0,1,1.54.24,3.82,3.82,0,0,1,1.2.66.85.85,0,0,1,.38.68.77.77,0,0,1-.22.53.73.73,0,0,1-.52.23.55.55,0,0,1-.35-.12,3.47,3.47,0,0,0-1-.5,3.13,3.13,0,0,0-1.08-.23,2.27,2.27,0,0,0-1.27.31,1,1,0,0,0,0,1.64,4.37,4.37,0,0,0,1.45.47,7.71,7.71,0,0,1,1.79.5,2.34,2.34,0,0,1,1,.83,2.61,2.61,0,0,1,.33,1.4,2.32,2.32,0,0,1-.46,1.44,2.88,2.88,0,0,1-1.23,1,4.12,4.12,0,0,1-1.65.33A5.32,5.32,0,0,1,107.54,64.05Z"/><path d="M120.59,55.27a.7.7,0,0,1,.22.54.67.67,0,0,1-.22.54.8.8,0,0,1-.57.2h-2v6.82a.72.72,0,0,1-.25.56.87.87,0,0,1-.61.23.85.85,0,0,1-.6-.23.77.77,0,0,1-.23-.56V56.55h-2a.77.77,0,0,1-.57-.21.74.74,0,0,1,0-1.07.8.8,0,0,1,.57-.21H120A.8.8,0,0,1,120.59,55.27Z"/><path d="M127.89,62.89a.74.74,0,0,1,.23.53.7.7,0,0,1-.23.53.79.79,0,0,1-.56.21H123a.81.81,0,0,1-.57-.23.76.76,0,0,1-.22-.56V55.85a.76.76,0,0,1,.22-.56.77.77,0,0,1,.57-.23h4.36a.79.79,0,0,1,.56.21.75.75,0,0,1,.23.56.69.69,0,0,1-.22.52.8.8,0,0,1-.57.2H123.8v2.21h2.94a.78.78,0,0,1,.57.22.71.71,0,0,1,.22.55.68.68,0,0,1-.22.53.82.82,0,0,1-.57.2H123.8v2.4h3.53A.77.77,0,0,1,127.89,62.89Zm-3-8.46-1.31-.68a1.09,1.09,0,0,1-.35-.32.66.66,0,0,1-.13-.37.58.58,0,0,1,.22-.46.75.75,0,0,1,.47-.18,1,1,0,0,1,.64.28l1.12,1a.5.5,0,0,1,.18.35.42.42,0,0,1-.15.34.57.57,0,0,1-.4.13A.55.55,0,0,1,124.86,54.43Z"/><path d="M138.07,55.27a.75.75,0,0,1,.24.57v7.53a.76.76,0,0,1-.22.56.79.79,0,0,1-.59.23.84.84,0,0,1-.59-.22.78.78,0,0,1-.23-.57V58.13l-2.14,3.27a1.22,1.22,0,0,1-.3.26.62.62,0,0,1-.35.08.61.61,0,0,1-.34-.08,1.22,1.22,0,0,1-.3-.26L131.11,58v5.36a.8.8,0,0,1-.21.57.75.75,0,0,1-.55.22.7.7,0,0,1-.53-.23.79.79,0,0,1-.21-.56V55.84a.76.76,0,0,1,.24-.56.8.8,0,0,1,.58-.24.94.94,0,0,1,.39.1.77.77,0,0,1,.3.26L134,59.75l2.91-4.35a.78.78,0,0,1,.28-.26.74.74,0,0,1,.35-.1A.81.81,0,0,1,138.07,55.27Z"/><path d="M146,62.89a.74.74,0,0,1,.23.53A.7.7,0,0,1,146,64a.79.79,0,0,1-.56.21h-4.36a.77.77,0,0,1-.56-.23.73.73,0,0,1-.23-.56V55.85a.79.79,0,0,1,.79-.79h4.36a.79.79,0,0,1,.56.21.75.75,0,0,1,.23.56.66.66,0,0,1-.22.52.8.8,0,0,1-.57.2h-3.53v2.21h2.94a.77.77,0,0,1,.57.22.72.72,0,0,1,.23.55.69.69,0,0,1-.23.53.81.81,0,0,1-.57.2h-2.94v2.4h3.53A.77.77,0,0,1,146,62.89Z"/><path d="M152.71,63.93a.81.81,0,0,1-.57.23.8.8,0,0,1-.58-.23.77.77,0,0,1-.23-.56V55.85a.74.74,0,0,1,.24-.56.78.78,0,0,1,.6-.23.79.79,0,0,1,.79.79v7.52A.72.72,0,0,1,152.71,63.93Z"/><path d="M162.32,55.27a.73.73,0,0,1,.19.52v7.58a.76.76,0,0,1-.22.56.78.78,0,0,1-.57.23,1.13,1.13,0,0,1-.36-.06.52.52,0,0,1-.25-.16l-4.77-6.06v5.55a.73.73,0,0,1-.2.52.71.71,0,0,1-.53.21.66.66,0,0,1-.51-.21.73.73,0,0,1-.19-.52V55.85a.77.77,0,0,1,.23-.56.73.73,0,0,1,.56-.23.91.91,0,0,1,.39.08.75.75,0,0,1,.28.2l4.73,6V55.79a.73.73,0,0,1,.2-.52.72.72,0,0,1,1,0Z"/><path d="M171,55.27a.74.74,0,0,1,.22.54.71.71,0,0,1-.22.54.8.8,0,0,1-.58.2h-2v6.82a.74.74,0,0,1-.24.56.9.9,0,0,1-.62.23.81.81,0,0,1-.59-.23.74.74,0,0,1-.24-.56V56.55h-2a.8.8,0,0,1-.57-.21.75.75,0,0,1,0-1.07.79.79,0,0,1,.56-.21h5.77A.81.81,0,0,1,171,55.27Z"/><path d="M178.32,62.89a.73.73,0,0,1,.22.53.69.69,0,0,1-.22.53.82.82,0,0,1-.57.21h-4.36a.79.79,0,0,1-.79-.79V55.85a.77.77,0,0,1,.23-.56.73.73,0,0,1,.56-.23h4.36a.82.82,0,0,1,.57.21.75.75,0,0,1,.22.56.66.66,0,0,1-.22.52.8.8,0,0,1-.57.2h-3.52v2.21h2.94a.76.76,0,0,1,.56.22.76.76,0,0,1,0,1.08.84.84,0,0,1-.57.2h-2.94v2.4h3.52A.79.79,0,0,1,178.32,62.89Zm-3.1-8.46a.4.4,0,0,1-.15-.33.47.47,0,0,1,.18-.35l1.12-1a1,1,0,0,1,.64-.29.75.75,0,0,1,.47.18.6.6,0,0,1,.22.46.62.62,0,0,1-.13.38.88.88,0,0,1-.35.31l-1.3.69a.6.6,0,0,1-.3.07A.57.57,0,0,1,175.22,54.43Z"/><path d="M187.3,59.47a.78.78,0,0,1,.23.57v2.75a.79.79,0,0,1-.41.71,5.25,5.25,0,0,1-2.79.79A4.75,4.75,0,0,1,180.22,62a4.43,4.43,0,0,1-.64-2.34,4.49,4.49,0,0,1,.64-2.35,4.77,4.77,0,0,1,4.11-2.33,4.51,4.51,0,0,1,2.23.52.79.79,0,0,1,.3.27.74.74,0,0,1,.09.36.84.84,0,0,1-.21.57.68.68,0,0,1-.53.24,1.06,1.06,0,0,1-.43-.1,3.62,3.62,0,0,0-1.45-.3,3,3,0,0,0-1.54.42,3.19,3.19,0,0,0-1.11,1.14,3.17,3.17,0,0,0,0,3.12,3.36,3.36,0,0,0,1.11,1.14,3,3,0,0,0,1.54.42,4.42,4.42,0,0,0,.78-.07,4.37,4.37,0,0,0,.73-.17V60.8h-1.23a.76.76,0,0,1-.56-.22.74.74,0,0,1-.23-.56.77.77,0,0,1,.23-.56.8.8,0,0,1,.56-.22h2.14A.73.73,0,0,1,187.3,59.47Z"/><path d="M196.49,63.16a.74.74,0,0,1,.1.35.72.72,0,0,1-.16.43.75.75,0,0,1-.6.23,1.2,1.2,0,0,1-.57-.14,2.3,2.3,0,0,1-.94-2.17.94.94,0,0,0-.3-.74,1.24,1.24,0,0,0-.88-.28h-2.43v2.53a.84.84,0,0,1-.19.57.64.64,0,0,1-.5.22,1,1,0,0,1-.65-.23.7.7,0,0,1-.29-.56V55.85a.77.77,0,0,1,.23-.56.74.74,0,0,1,.57-.23h3.74a2.46,2.46,0,0,1,1.28.36,2.77,2.77,0,0,1,.95,1,2.87,2.87,0,0,1,.36,1.43,2.56,2.56,0,0,1-.35,1.27,2.86,2.86,0,0,1-.91,1,2,2,0,0,1,.9,1.54,2.8,2.8,0,0,1,0,.4,4,4,0,0,0,.11.58.42.42,0,0,0,.23.26A.81.81,0,0,1,196.49,63.16ZM194,59.28a1.61,1.61,0,0,0,.37-.59,2.32,2.32,0,0,0,.14-.8,1.67,1.67,0,0,0-.14-.67,1.4,1.4,0,0,0-.37-.48.66.66,0,0,0-.45-.19h-2.85v3h2.85A.62.62,0,0,0,194,59.28Z"/><path d="M203.73,62.89a.74.74,0,0,1,.23.53.7.7,0,0,1-.23.53.8.8,0,0,1-.57.21h-4.35a.79.79,0,0,1-.57-.23.76.76,0,0,1-.22-.56V55.85a.77.77,0,0,1,.79-.79h4.35a.8.8,0,0,1,.57.21.75.75,0,0,1,.23.56.69.69,0,0,1-.22.52.8.8,0,0,1-.58.2h-3.52v2.21h2.94a.76.76,0,0,1,.56.22.76.76,0,0,1,0,1.08.84.84,0,0,1-.57.2h-2.94v2.4h3.52A.78.78,0,0,1,203.73,62.89Zm-3.09-8.46a.4.4,0,0,1-.15-.33.47.47,0,0,1,.18-.35l1.12-1a1,1,0,0,1,.63-.29.73.73,0,0,1,.47.18.57.57,0,0,1,.22.46.68.68,0,0,1-.12.38.85.85,0,0,1-.36.31l-1.3.69a.6.6,0,0,1-.3.07A.56.56,0,0,1,200.64,54.43Z"/><path d="M215.09,55.66a3.87,3.87,0,0,1,1.34,1.64,6,6,0,0,1,0,4.62,3.84,3.84,0,0,1-1.34,1.63,3.54,3.54,0,0,1-2.1.61h-3.11a.79.79,0,0,1-.79-.79V55.85a.77.77,0,0,1,.23-.56.73.73,0,0,1,.56-.23H213A3.61,3.61,0,0,1,215.09,55.66Zm-.47,6.14a3.84,3.84,0,0,0,.58-2.19,3.8,3.8,0,0,0-.59-2.19,2,2,0,0,0-1.75-.87h-2.14v6.11h2.14A2,2,0,0,0,214.62,61.8Z"/><path d="M220,57.12a2.9,2.9,0,0,1-.57.8,1.07,1.07,0,0,1-.73.34.75.75,0,0,1-.45-.13.43.43,0,0,1-.17-.39.38.38,0,0,1,.1-.3,1,1,0,0,1,.23-.12l.17-.07a.57.57,0,0,0,.37-.51.34.34,0,0,0-.14-.26.57.57,0,0,0-.36-.11.69.69,0,0,0-.36.09.61.61,0,0,1-.24-.17.46.46,0,0,1-.08-.31.76.76,0,0,1,.19-.49,1.44,1.44,0,0,1,.48-.36A1.32,1.32,0,0,1,219,55a1.16,1.16,0,0,1,.9.36,1.5,1.5,0,0,1,.32,1A1.75,1.75,0,0,1,220,57.12Z"/><path d="M229.76,62a4.36,4.36,0,0,1-1.58,1.69,4.4,4.4,0,0,1-4.54,0A4.33,4.33,0,0,1,222.07,62a5.25,5.25,0,0,1,0-4.72,4.36,4.36,0,0,1,1.57-1.7,4.47,4.47,0,0,1,4.54,0,4.39,4.39,0,0,1,1.58,1.7,5.17,5.17,0,0,1,0,4.72ZM228.29,58a2.89,2.89,0,0,0-1-1.13,2.56,2.56,0,0,0-1.41-.41,2.43,2.43,0,0,0-1.41.41,2.77,2.77,0,0,0-1,1.12,3.63,3.63,0,0,0-.34,1.59,3.55,3.55,0,0,0,.34,1.58,2.73,2.73,0,0,0,1,1.13,2.6,2.6,0,0,0,2.82,0,2.79,2.79,0,0,0,1-1.12,3.74,3.74,0,0,0,0-3.16Z"/><path d="M238.41,60a2.27,2.27,0,0,1,.44,1.44,2.45,2.45,0,0,1-.89,2.16,3.64,3.64,0,0,1-2.1.61h-3.24a.77.77,0,0,1-.56-.23.73.73,0,0,1-.23-.56V55.85a.79.79,0,0,1,.79-.79h3.28c1.64,0,2.47.77,2.47,2.31a2,2,0,0,1-.28,1,2,2,0,0,1-.8.7A2.62,2.62,0,0,1,238.41,60Zm-2-3.09a1,1,0,0,0-.75-.27h-2.14v2h2.18a1,1,0,0,0,.68-.26.88.88,0,0,0,.3-.7A1.07,1.07,0,0,0,236.41,56.86Zm.4,5.48a1.25,1.25,0,0,0,.35-1,1.08,1.08,0,0,0-.4-1,1.91,1.91,0,0,0-1-.24h-2.25v2.51h2.34A1.35,1.35,0,0,0,236.81,62.34Z"/><path d="M241.6,64.05a3.78,3.78,0,0,1-1.36-.79.9.9,0,0,1-.35-.69.7.7,0,0,1,.22-.52.72.72,0,0,1,1-.08,3.82,3.82,0,0,0,1,.63,3.19,3.19,0,0,0,1.17.19,2.39,2.39,0,0,0,1.25-.32,1,1,0,0,0,.53-.81,1,1,0,0,0-.52-.91,4.24,4.24,0,0,0-1.65-.5C241,60,240,59.08,240,57.59a2.36,2.36,0,0,1,.43-1.42,2.76,2.76,0,0,1,1.17-.92,4,4,0,0,1,1.65-.32,4.82,4.82,0,0,1,1.54.24,3.82,3.82,0,0,1,1.2.66.82.82,0,0,1,.38.68.73.73,0,0,1-.22.53.71.71,0,0,1-.52.23.55.55,0,0,1-.35-.12,3.54,3.54,0,0,0-.94-.5,3.23,3.23,0,0,0-1.09-.23,2.29,2.29,0,0,0-1.27.31,1,1,0,0,0,0,1.64,4.29,4.29,0,0,0,1.45.47,7.61,7.61,0,0,1,1.78.5,2.28,2.28,0,0,1,1,.83,2.52,2.52,0,0,1,.34,1.4,2.32,2.32,0,0,1-.46,1.44,3,3,0,0,1-1.23,1,4.12,4.12,0,0,1-1.65.33A5.34,5.34,0,0,1,241.6,64.05Z"/><path d="M253.82,62.89a.73.73,0,0,1,.22.53.69.69,0,0,1-.22.53.8.8,0,0,1-.57.21H248.9a.79.79,0,0,1-.8-.79V55.85a.77.77,0,0,1,.23-.56.74.74,0,0,1,.57-.23h4.35a.8.8,0,0,1,.57.21.75.75,0,0,1,.22.56.66.66,0,0,1-.22.52.76.76,0,0,1-.57.2h-3.52v2.21h2.94a.76.76,0,0,1,.56.22.72.72,0,0,1,.23.55.68.68,0,0,1-.22.53.84.84,0,0,1-.57.2h-2.94v2.4h3.52A.78.78,0,0,1,253.82,62.89Z"/><path d="M262.94,63.16a.64.64,0,0,1,.1.35.66.66,0,0,1-.16.43.75.75,0,0,1-.59.23,1.27,1.27,0,0,1-.58-.14,2.29,2.29,0,0,1-.93-2.17.91.91,0,0,0-.31-.74,1.21,1.21,0,0,0-.87-.28h-2.44v2.53a.88.88,0,0,1-.18.57.67.67,0,0,1-.5.22,1,1,0,0,1-.66-.23.69.69,0,0,1-.28-.56V55.85a.77.77,0,0,1,.23-.56.73.73,0,0,1,.56-.23h3.75a2.42,2.42,0,0,1,1.27.36,2.71,2.71,0,0,1,1,1,3,3,0,0,1,.35,1.43,2.46,2.46,0,0,1-.35,1.27,2.68,2.68,0,0,1-.91,1,2,2,0,0,1,.9,1.54,1.87,1.87,0,0,1,0,.4,4.37,4.37,0,0,0,.1.58.43.43,0,0,0,.24.26A.7.7,0,0,1,262.94,63.16Zm-2.47-3.88a1.6,1.6,0,0,0,.36-.59,2.1,2.1,0,0,0,.14-.8,1.52,1.52,0,0,0-.14-.67,1.38,1.38,0,0,0-.36-.48.69.69,0,0,0-.46-.19h-2.85v3H260A.64.64,0,0,0,260.47,59.28Z"/><path d="M271.48,55.25a.71.71,0,0,1,.24.54.91.91,0,0,1-.07.35l-3.22,7.51a.83.83,0,0,1-.76.51.84.84,0,0,1-.41-.14.75.75,0,0,1-.29-.36l-3.22-7.54a.79.79,0,0,1,.2-.89.83.83,0,0,1,.53-.21.72.72,0,0,1,.42.13.83.83,0,0,1,.3.38l2.61,6.14,2.39-6.14a.85.85,0,0,1,.3-.37.8.8,0,0,1,.42-.13A.84.84,0,0,1,271.48,55.25Z"/><path d="M279.85,63.46a.76.76,0,0,1-.22.55.73.73,0,0,1-.51.21.63.63,0,0,1-.42-.14.82.82,0,0,1-.29-.39l-.68-1.57h-3.88l-.67,1.58a.76.76,0,0,1-.28.39.69.69,0,0,1-.41.13A.66.66,0,0,1,272,64a.67.67,0,0,1-.18-.49.77.77,0,0,1,0-.25l3.24-7.77a.86.86,0,0,1,.31-.41.69.69,0,0,1,.47-.11.75.75,0,0,1,.43.13.72.72,0,0,1,.29.39l3.2,7.61A.81.81,0,0,1,279.85,63.46Zm-5.36-2.84h2.6l-1.31-3Z"/><path d="M286.86,55.27a.74.74,0,0,1,.22.54.71.71,0,0,1-.22.54.8.8,0,0,1-.58.2h-2v6.82a.74.74,0,0,1-.24.56.9.9,0,0,1-.62.23.81.81,0,0,1-.59-.23.74.74,0,0,1-.24-.56V56.55h-2a.8.8,0,0,1-.57-.21.69.69,0,0,1-.22-.54.66.66,0,0,1,.23-.53.79.79,0,0,1,.56-.21h5.77A.81.81,0,0,1,286.86,55.27Z"/><path d="M289.82,63.93a.85.85,0,0,1-.57.23.78.78,0,0,1-.58-.23.77.77,0,0,1-.23-.56V55.85a.77.77,0,0,1,.23-.56.81.81,0,0,1,.6-.23.73.73,0,0,1,.56.23.74.74,0,0,1,.24.56v7.52A.75.75,0,0,1,289.82,63.93Z"/><path d="M299.82,62a4.43,4.43,0,0,1-1.58,1.69,4.4,4.4,0,0,1-4.54,0A4.26,4.26,0,0,1,292.13,62a5.17,5.17,0,0,1,0-4.72,4.38,4.38,0,0,1,6.11-1.7,4.46,4.46,0,0,1,1.58,1.7,5.17,5.17,0,0,1,0,4.72ZM298.35,58a2.91,2.91,0,0,0-1-1.13,2.5,2.5,0,0,0-1.4-.41,2.43,2.43,0,0,0-1.41.41,2.77,2.77,0,0,0-1,1.12,3.63,3.63,0,0,0-.35,1.59,3.56,3.56,0,0,0,.35,1.58,2.73,2.73,0,0,0,1,1.13,2.51,2.51,0,0,0,1.41.41,2.43,2.43,0,0,0,1.4-.42,2.81,2.81,0,0,0,1-1.12,3.74,3.74,0,0,0,0-3.16Z"/><path d="M309.29,55.27a.73.73,0,0,1,.2.52v7.58a.79.79,0,0,1-.79.79,1.09,1.09,0,0,1-.36-.06.55.55,0,0,1-.26-.16l-4.77-6.06v5.55a.7.7,0,0,1-.73.73.66.66,0,0,1-.5-.21.73.73,0,0,1-.2-.52V55.85a.77.77,0,0,1,.23-.56.74.74,0,0,1,.57-.23.87.87,0,0,1,.38.08.61.61,0,0,1,.28.2l4.73,6V55.79a.73.73,0,0,1,.2-.52.7.7,0,0,1,.52-.21A.66.66,0,0,1,309.29,55.27Z"/><path d="M321.08,55.66a3.94,3.94,0,0,1,1.34,1.64,6,6,0,0,1,0,4.62,3.91,3.91,0,0,1-1.34,1.63,3.58,3.58,0,0,1-2.1.61h-3.11a.81.81,0,0,1-.57-.23.76.76,0,0,1-.22-.56V55.85a.76.76,0,0,1,.22-.56.77.77,0,0,1,.57-.23H319A3.65,3.65,0,0,1,321.08,55.66Zm-.48,6.14a3.84,3.84,0,0,0,.59-2.19,3.8,3.8,0,0,0-.59-2.19,2,2,0,0,0-1.75-.87H316.7v6.11h2.15A2,2,0,0,0,320.6,61.8Z"/><path d="M330.09,62.89a.73.73,0,0,1,.22.53.69.69,0,0,1-.22.53.82.82,0,0,1-.57.21h-4.35a.79.79,0,0,1-.8-.79V55.85a.77.77,0,0,1,.23-.56.74.74,0,0,1,.57-.23h4.35a.82.82,0,0,1,.57.21.75.75,0,0,1,.22.56.66.66,0,0,1-.22.52.78.78,0,0,1-.57.2H326v2.21h2.94a.76.76,0,0,1,.56.22.76.76,0,0,1,0,1.08.84.84,0,0,1-.57.2H326v2.4h3.52A.79.79,0,0,1,330.09,62.89Z"/><path d="M333.07,64.05a3.82,3.82,0,0,1-1.37-.79.93.93,0,0,1-.35-.69.74.74,0,0,1,.22-.52.74.74,0,0,1,1-.08,3.78,3.78,0,0,0,1,.63,3.19,3.19,0,0,0,1.17.19,2.41,2.41,0,0,0,1.26-.32,1,1,0,0,0,.52-.81,1,1,0,0,0-.52-.91,4.13,4.13,0,0,0-1.65-.5c-1.89-.28-2.84-1.17-2.84-2.66a2.43,2.43,0,0,1,.42-1.42,2.76,2.76,0,0,1,1.17-.92,4.06,4.06,0,0,1,1.66-.32,4.87,4.87,0,0,1,1.54.24,3.82,3.82,0,0,1,1.2.66.85.85,0,0,1,.38.68.74.74,0,0,1-.23.53.69.69,0,0,1-.51.23.6.6,0,0,1-.36-.12,3.39,3.39,0,0,0-.94-.5,3.13,3.13,0,0,0-1.08-.23,2.27,2.27,0,0,0-1.27.31,1,1,0,0,0,0,1.64,4.37,4.37,0,0,0,1.45.47,7.71,7.71,0,0,1,1.79.5,2.4,2.4,0,0,1,1,.83,2.61,2.61,0,0,1,.33,1.4,2.32,2.32,0,0,1-.46,1.44,2.94,2.94,0,0,1-1.23,1,4.12,4.12,0,0,1-1.65.33A5.28,5.28,0,0,1,333.07,64.05Z"/><path d="M218.7,77.57a4.36,4.36,0,0,1-1.58,1.69,4.4,4.4,0,0,1-4.54,0A4.33,4.33,0,0,1,211,77.57a5.25,5.25,0,0,1,0-4.72,4.36,4.36,0,0,1,1.57-1.7,4.47,4.47,0,0,1,4.54,0,4.39,4.39,0,0,1,1.58,1.7,5.17,5.17,0,0,1,0,4.72Zm-1.47-3.94a2.89,2.89,0,0,0-1-1.13,2.56,2.56,0,0,0-1.41-.41,2.43,2.43,0,0,0-1.41.41,2.77,2.77,0,0,0-1,1.12,3.63,3.63,0,0,0-.34,1.59,3.55,3.55,0,0,0,.34,1.58,2.73,2.73,0,0,0,1,1.13,2.6,2.6,0,0,0,2.82,0,2.86,2.86,0,0,0,1-1.12,3.74,3.74,0,0,0,0-3.16Z"/><path d="M227.54,71.76a.91.91,0,0,1-.19.54.65.65,0,0,1-.54.27.94.94,0,0,1-.44-.12,3.17,3.17,0,0,0-1.38-.3,3.11,3.11,0,0,0-1.58.39,2.52,2.52,0,0,0-1,1.08,3.28,3.28,0,0,0-.37,1.59,3.1,3.1,0,0,0,.83,2.33,3,3,0,0,0,2.16.79,3,3,0,0,0,1.38-.3,1.09,1.09,0,0,1,.42-.11.73.73,0,0,1,.57.29.84.84,0,0,1,.19.53.67.67,0,0,1-.4.64,4.74,4.74,0,0,1-2.16.51,5.1,5.1,0,0,1-2.34-.54,4.13,4.13,0,0,1-1.7-1.59,4.92,4.92,0,0,1-.64-2.55,4.61,4.61,0,0,1,.61-2.38,4.34,4.34,0,0,1,1.67-1.65,4.9,4.9,0,0,1,2.4-.59,4.64,4.64,0,0,1,2.15.51A.69.69,0,0,1,227.54,71.76Z"/><path d="M234.63,78.49a.74.74,0,0,1,.23.53.7.7,0,0,1-.23.53.79.79,0,0,1-.56.21h-4.36a.79.79,0,0,1-.79-.8V71.45a.77.77,0,0,1,.23-.56.73.73,0,0,1,.56-.23h4.36a.79.79,0,0,1,.56.21.75.75,0,0,1,.23.55.67.67,0,0,1-.22.53.8.8,0,0,1-.57.2h-3.53v2.21h2.94a.77.77,0,0,1,.57.22.72.72,0,0,1,.23.55.69.69,0,0,1-.23.53.81.81,0,0,1-.57.2h-2.94v2.4h3.53A.77.77,0,0,1,234.63,78.49ZM231.54,70a.41.41,0,0,1-.15-.33.5.5,0,0,1,.18-.36l1.12-1a1,1,0,0,1,.64-.29.7.7,0,0,1,.46.18.58.58,0,0,1,.23.46.7.7,0,0,1-.13.38.85.85,0,0,1-.36.31l-1.3.69a.54.54,0,0,1-.29.07A.57.57,0,0,1,231.54,70Z"/><path d="M243.56,79.06a.78.78,0,0,1-.22.55.73.73,0,0,1-.51.21.63.63,0,0,1-.42-.14,1,1,0,0,1-.3-.39l-.67-1.57h-3.88l-.67,1.58a.82.82,0,0,1-.28.39.69.69,0,0,1-.41.13.66.66,0,0,1-.51-.18.67.67,0,0,1-.18-.49.77.77,0,0,1,0-.25l3.24-7.77a.86.86,0,0,1,.31-.41.69.69,0,0,1,.47-.11.75.75,0,0,1,.43.13.72.72,0,0,1,.29.39l3.2,7.61A.81.81,0,0,1,243.56,79.06Zm-5.36-2.84h2.6l-1.31-3Z"/><path d="M252.07,70.87a.72.72,0,0,1,.2.52V79a.79.79,0,0,1-.8.8,1,1,0,0,1-.35-.06.51.51,0,0,1-.26-.16l-4.77-6.06V79a.73.73,0,0,1-.2.52.69.69,0,0,1-.53.21.66.66,0,0,1-.5-.21.73.73,0,0,1-.2-.52V71.45a.77.77,0,0,1,.23-.56.73.73,0,0,1,.56-.23.91.91,0,0,1,.39.08.67.67,0,0,1,.28.2l4.73,6V71.39a.72.72,0,0,1,.2-.52.69.69,0,0,1,.51-.21A.66.66,0,0,1,252.07,70.87Z"/><path d="M255.48,79.65a3.82,3.82,0,0,1-1.37-.79.93.93,0,0,1-.35-.69.75.75,0,0,1,1.2-.6,3.63,3.63,0,0,0,1,.63,3.19,3.19,0,0,0,1.17.19,2.43,2.43,0,0,0,1.26-.32,1,1,0,0,0,.52-.81,1,1,0,0,0-.52-.91,4.33,4.33,0,0,0-1.65-.51c-1.9-.27-2.85-1.16-2.85-2.65a2.43,2.43,0,0,1,.43-1.42,2.76,2.76,0,0,1,1.17-.92,4,4,0,0,1,1.65-.32,4.82,4.82,0,0,1,1.54.24,4,4,0,0,1,1.21.65.87.87,0,0,1,.37.69.73.73,0,0,1-.22.53.7.7,0,0,1-.52.23.57.57,0,0,1-.35-.12,3.39,3.39,0,0,0-.94-.5,3.18,3.18,0,0,0-1.09-.23,2.17,2.17,0,0,0-1.26.31,1,1,0,0,0,0,1.64,4.37,4.37,0,0,0,1.45.47,7.86,7.86,0,0,1,1.79.5,2.31,2.31,0,0,1,1,.83,2.52,2.52,0,0,1,.34,1.4,2.32,2.32,0,0,1-.46,1.44,3.09,3.09,0,0,1-1.23,1,4.12,4.12,0,0,1-1.65.33A5.28,5.28,0,0,1,255.48,79.65Z"/><path d="M271.62,71.26A3.88,3.88,0,0,1,273,72.9a6,6,0,0,1,0,4.62,3.91,3.91,0,0,1-1.34,1.63,3.58,3.58,0,0,1-2.1.61h-3.11a.79.79,0,0,1-.57-.23.77.77,0,0,1-.22-.57V71.45a.77.77,0,0,1,.79-.79h3.11A3.65,3.65,0,0,1,271.62,71.26Zm-.48,6.14a3.84,3.84,0,0,0,.59-2.19,3.73,3.73,0,0,0-.6-2.19,2,2,0,0,0-1.74-.87h-2.15v6.11h2.15A2,2,0,0,0,271.14,77.4Z"/><path d="M281.92,70.87a.77.77,0,0,1,.21.57v4.7a3.94,3.94,0,0,1-.46,1.91,3.24,3.24,0,0,1-1.27,1.3,4,4,0,0,1-3.75,0,3.2,3.2,0,0,1-1.28-1.3,3.83,3.83,0,0,1-.46-1.91v-4.7a.75.75,0,0,1,.24-.57.81.81,0,0,1,.59-.23.78.78,0,0,1,.55.23.74.74,0,0,1,.23.57v4.7a2.13,2.13,0,0,0,.28,1.11,1.82,1.82,0,0,0,.73.75,1.94,1.94,0,0,0,1,.26,2.09,2.09,0,0,0,1-.26,1.88,1.88,0,0,0,.78-.75,2,2,0,0,0,.29-1.11v-4.7a.81.81,0,0,1,.2-.57.67.67,0,0,1,.53-.23A.72.72,0,0,1,281.92,70.87Z"/><path d="M294.49,71.76a.93.93,0,0,1-.2.54.62.62,0,0,1-.53.27.91.91,0,0,1-.44-.12,3.2,3.2,0,0,0-1.38-.3,3.09,3.09,0,0,0-1.58.39,2.47,2.47,0,0,0-1,1.08,3.28,3.28,0,0,0-.37,1.59,3.1,3.1,0,0,0,.83,2.33,3,3,0,0,0,2.16.79,3,3,0,0,0,1.38-.3,1,1,0,0,1,.42-.11.73.73,0,0,1,.57.29.84.84,0,0,1,.19.53.67.67,0,0,1-.4.64,4.77,4.77,0,0,1-2.16.51,5.1,5.1,0,0,1-2.34-.54,4.13,4.13,0,0,1-1.7-1.59,4.83,4.83,0,0,1-.64-2.55,4.61,4.61,0,0,1,.61-2.38,4.34,4.34,0,0,1,1.67-1.65,4.9,4.9,0,0,1,2.4-.59,4.64,4.64,0,0,1,2.15.51A.71.71,0,0,1,294.49,71.76Z"/><path d="M303.07,79.06a.74.74,0,0,1-.22.55.73.73,0,0,1-.51.21.65.65,0,0,1-.42-.14,1,1,0,0,1-.29-.39L301,77.72h-3.87l-.68,1.58a.76.76,0,0,1-.28.39.67.67,0,0,1-.41.13.69.69,0,0,1-.51-.18.67.67,0,0,1-.18-.49,1.18,1.18,0,0,1,0-.25l3.24-7.77a.86.86,0,0,1,.31-.41.7.7,0,0,1,.47-.11.75.75,0,0,1,.43.13.74.74,0,0,1,.3.39L303,78.74A.81.81,0,0,1,303.07,79.06Zm-5.36-2.84h2.6l-1.31-3Z"/><path d="M311.58,70.87a.72.72,0,0,1,.2.52V79a.79.79,0,0,1-.79.8,1.13,1.13,0,0,1-.36-.06.47.47,0,0,1-.25-.16l-4.78-6.06V79a.69.69,0,0,1-.2.52.69.69,0,0,1-.52.21.66.66,0,0,1-.51-.21.73.73,0,0,1-.2-.52V71.45a.77.77,0,0,1,.23-.56.74.74,0,0,1,.57-.23.87.87,0,0,1,.38.08.61.61,0,0,1,.28.2l4.73,6V71.39a.72.72,0,0,1,.2-.52.7.7,0,0,1,.52-.21A.64.64,0,0,1,311.58,70.87Z"/><path d="M320.93,79.06a.74.74,0,0,1-.22.55.73.73,0,0,1-.51.21.66.66,0,0,1-.42-.14,1,1,0,0,1-.29-.39l-.68-1.57h-3.87l-.68,1.58a.76.76,0,0,1-.28.39.67.67,0,0,1-.41.13.69.69,0,0,1-.51-.18.67.67,0,0,1-.18-.49,1.18,1.18,0,0,1,0-.25l3.24-7.77a.86.86,0,0,1,.31-.41.7.7,0,0,1,.47-.11.75.75,0,0,1,.73.52l3.2,7.61A1,1,0,0,1,320.93,79.06Zm-5.35-2.84h2.59l-1.31-3Z"/><path d="M328,71.26a3.79,3.79,0,0,1,1.33,1.64,5.91,5.91,0,0,1,0,4.62A3.82,3.82,0,0,1,328,79.15a3.58,3.58,0,0,1-2.1.61h-3.11a.79.79,0,0,1-.57-.23A.77.77,0,0,1,322,79V71.45a.77.77,0,0,1,.79-.79h3.11A3.65,3.65,0,0,1,328,71.26Zm-.48,6.14a3.84,3.84,0,0,0,.59-2.19,3.73,3.73,0,0,0-.6-2.19,2,2,0,0,0-1.74-.87h-2.15v6.11h2.15A2,2,0,0,0,327.56,77.4Z"/><path d="M338.47,79.06a.78.78,0,0,1-.22.55.73.73,0,0,1-.51.21.63.63,0,0,1-.42-.14.87.87,0,0,1-.29-.39l-.68-1.57h-3.88l-.67,1.58a.76.76,0,0,1-.28.39.69.69,0,0,1-.41.13.66.66,0,0,1-.51-.18.67.67,0,0,1-.18-.49.77.77,0,0,1,0-.25l3.24-7.77a.86.86,0,0,1,.31-.41.69.69,0,0,1,.47-.11.75.75,0,0,1,.43.13.79.79,0,0,1,.3.39l3.19,7.61A.81.81,0,0,1,338.47,79.06Zm-5.36-2.84h2.6l-1.31-3Z"/><path d="M481.09,18.39a1.4,1.4,0,0,1-.28.78,1.08,1.08,0,0,1-.89.43,1.18,1.18,0,0,1-.63-.19,12.08,12.08,0,0,0-6.82-2.07,11.19,11.19,0,0,0-5.72,1.48,10.56,10.56,0,0,0-4,4.16A12.35,12.35,0,0,0,461.27,29a12.43,12.43,0,0,0,1.49,6.14,10.56,10.56,0,0,0,4,4.14,11.3,11.3,0,0,0,5.68,1.46,12.08,12.08,0,0,0,6.78-2,1.24,1.24,0,0,1,.67-.19,1.06,1.06,0,0,1,.89.46,1.08,1.08,0,0,1,.28.75,1,1,0,0,1-.55.93,14.27,14.27,0,0,1-3.74,1.7,14.94,14.94,0,0,1-4.33.68,13.74,13.74,0,0,1-6.85-1.77,13.25,13.25,0,0,1-5-5A14.31,14.31,0,0,1,458.78,29a14.23,14.23,0,0,1,1.83-7.16,13.36,13.36,0,0,1,4.95-5A13.51,13.51,0,0,1,472.47,15a15.05,15.05,0,0,1,4.27.62,13.68,13.68,0,0,1,3.76,1.76A1.09,1.09,0,0,1,481.09,18.39Z"/><path d="M489.51,42.34a1.18,1.18,0,0,1-.86.35,1.22,1.22,0,0,1-.88-.33,1.18,1.18,0,0,1-.33-.88V16.6a1.17,1.17,0,0,1,.35-.88,1.28,1.28,0,0,1,.9-.33,1.18,1.18,0,0,1,.86.35,1.19,1.19,0,0,1,.35.86V41.48A1.35,1.35,0,0,1,489.51,42.34Z"/><path d="M521.26,36.26a12.83,12.83,0,0,1-22.78,0A15.31,15.31,0,0,1,496.8,29a15.35,15.35,0,0,1,1.68-7.25,12.52,12.52,0,0,1,4.64-5,13.6,13.6,0,0,1,13.49,0,12.54,12.54,0,0,1,4.65,5A15.47,15.47,0,0,1,522.93,29,15.43,15.43,0,0,1,521.26,36.26ZM519.09,23a10.28,10.28,0,0,0-18.45,0A13.37,13.37,0,0,0,499.3,29a13.37,13.37,0,0,0,1.34,6.06,10,10,0,0,0,9.23,5.64,10.2,10.2,0,0,0,5.48-1.48,10.08,10.08,0,0,0,3.74-4.16A13.24,13.24,0,0,0,520.44,29,13.24,13.24,0,0,0,519.09,23Z"/><path d="M552.53,36.26a12.82,12.82,0,0,1-22.77,0A15.31,15.31,0,0,1,528.08,29a15.35,15.35,0,0,1,1.68-7.25,12.52,12.52,0,0,1,4.64-5,13.6,13.6,0,0,1,13.49,0,12.45,12.45,0,0,1,4.64,5A15.35,15.35,0,0,1,554.21,29,15.31,15.31,0,0,1,552.53,36.26ZM550.37,23a10.28,10.28,0,0,0-18.45,0A13.37,13.37,0,0,0,530.58,29a13.37,13.37,0,0,0,1.34,6.06,10,10,0,0,0,9.23,5.64,9.94,9.94,0,0,0,9.22-5.64A13.24,13.24,0,0,0,551.71,29,13.24,13.24,0,0,0,550.37,23Z"/><path d="M563.55,42.14a13.8,13.8,0,0,1-4.19-2.92,1.17,1.17,0,0,1-.1-1.79,1.14,1.14,0,0,1,.84-.39,1.2,1.2,0,0,1,.86.39,9.85,9.85,0,0,0,7.6,3.35,7.74,7.74,0,0,0,4.66-1.33A4.07,4.07,0,0,0,575.08,36a4.26,4.26,0,0,0-.92-2.79,6.85,6.85,0,0,0-2.4-1.81A31.18,31.18,0,0,0,568,29.94a23.19,23.19,0,0,1-4.19-1.64A7.71,7.71,0,0,1,561,25.9,6.41,6.41,0,0,1,560,22.1a6.29,6.29,0,0,1,1.11-3.67,7.61,7.61,0,0,1,3.12-2.51,11.06,11.06,0,0,1,4.63-.92,12.43,12.43,0,0,1,4.46.8,8,8,0,0,1,3.34,2.28,1.87,1.87,0,0,1,.58,1.13,1.09,1.09,0,0,1-.39.8,1.2,1.2,0,0,1-.86.37.9.9,0,0,1-.66-.27,7.69,7.69,0,0,0-2.81-2,8.92,8.92,0,0,0-3.66-.78,7.81,7.81,0,0,0-4.64,1.27A4,4,0,0,0,562.4,22a4,4,0,0,0,1.72,3.47A17.93,17.93,0,0,0,569,27.71a30.25,30.25,0,0,1,4.53,1.68,7.43,7.43,0,0,1,2.86,2.44A7.07,7.07,0,0,1,577.53,36a6.06,6.06,0,0,1-1.15,3.61,7.67,7.67,0,0,1-3.2,2.55,11,11,0,0,1-4.66.94A12.34,12.34,0,0,1,563.55,42.14Z"/><path d="M610.8,16.38a7,7,0,0,1,2.67,2.77,8.3,8.3,0,0,1,1,4,8.62,8.62,0,0,1-1,4.06,7.27,7.27,0,0,1-2.67,2.88,7.16,7.16,0,0,1-3.86,1.06h-8.07V41.52a1.15,1.15,0,0,1-.34.84,1.17,1.17,0,0,1-2-.84v-25a1.13,1.13,0,0,1,1.17-1.17h9.24A7.57,7.57,0,0,1,610.8,16.38Zm-.2,10.87a6.08,6.08,0,0,0,1.41-4.1,5.58,5.58,0,0,0-1.41-3.94,4.75,4.75,0,0,0-3.66-1.52h-8.07V28.88h8.07A4.57,4.57,0,0,0,610.6,27.25Z"/><path d="M640.05,41.6a1.06,1.06,0,0,1-.35.82,1.2,1.2,0,0,1-.82.31,1.07,1.07,0,0,1-.68-.22,1.31,1.31,0,0,1-.45-.56l-2.93-7.14H622.15L619.26,42a1.08,1.08,0,0,1-1,.78,1.13,1.13,0,0,1-.82-.27,1.14,1.14,0,0,1-.31-.74V41.6a1,1,0,0,1,0-.35l10.29-25.2a1.16,1.16,0,0,1,1.17-.78,1.18,1.18,0,0,1,.69.22,1.36,1.36,0,0,1,.44.56L640,41.13A2.38,2.38,0,0,1,640.05,41.6Zm-17-9.09h10.84l-5.46-13.34Z"/><path d="M666.57,18.39a1.47,1.47,0,0,1-.27.78,1.14,1.14,0,0,1-1.52.24A12.11,12.11,0,0,0,658,17.34a11.15,11.15,0,0,0-5.71,1.48,10.66,10.66,0,0,0-4,4.16A12.46,12.46,0,0,0,646.76,29a12.43,12.43,0,0,0,1.48,6.14,10.59,10.59,0,0,0,4,4.14A11.24,11.24,0,0,0,658,40.78a12.13,12.13,0,0,0,6.79-2,1.23,1.23,0,0,1,.66-.19,1.09,1.09,0,0,1,.9.46,1.11,1.11,0,0,1,.27.75,1,1,0,0,1-.55.93,14.27,14.27,0,0,1-3.74,1.7,14.84,14.84,0,0,1-4.33.68,13.68,13.68,0,0,1-6.84-1.77,13.11,13.11,0,0,1-5-5A14.22,14.22,0,0,1,644.26,29a14.14,14.14,0,0,1,1.84-7.16A13.38,13.38,0,0,1,658,15a15,15,0,0,1,4.27.62A13.74,13.74,0,0,1,666,17.42,1.08,1.08,0,0,1,666.57,18.39Z"/><path d="M675,42.34a1.17,1.17,0,0,1-.85.35,1.14,1.14,0,0,1-1.21-1.21V16.6a1.14,1.14,0,0,1,.35-.88,1.24,1.24,0,0,1,.89-.33,1.18,1.18,0,0,1,.86.35,1.15,1.15,0,0,1,.35.86V41.48A1.26,1.26,0,0,1,675,42.34Z"/><path d="M700.29,15.72a1.14,1.14,0,0,1,.33.84,1.09,1.09,0,0,1-.33.8,1.17,1.17,0,0,1-.84.33h-13v9.79h11.23a1.16,1.16,0,0,1,.84.31,1.18,1.18,0,0,1,0,1.64,1.16,1.16,0,0,1-.84.31H686.46V41.52a1.13,1.13,0,0,1-1.17,1.17,1.2,1.2,0,0,1-.88-.33,1.14,1.14,0,0,1-.33-.84v-25a1.13,1.13,0,0,1,1.17-1.17h14.2A1.17,1.17,0,0,1,700.29,15.72Z"/><path d="M709.63,42.34a1.19,1.19,0,0,1-2.07-.86V16.6a1.17,1.17,0,0,1,.35-.88,1.25,1.25,0,0,1,.9-.33A1.2,1.2,0,0,1,710,16.6V41.48A1.35,1.35,0,0,1,709.63,42.34Z"/><path d="M739.23,18.39a1.4,1.4,0,0,1-.28.78,1.08,1.08,0,0,1-.89.43,1.18,1.18,0,0,1-.63-.19,12.08,12.08,0,0,0-6.82-2.07,11.19,11.19,0,0,0-5.72,1.48,10.56,10.56,0,0,0-4,4.16A12.35,12.35,0,0,0,719.42,29a12.43,12.43,0,0,0,1.48,6.14,10.56,10.56,0,0,0,4,4.14,11.3,11.3,0,0,0,5.68,1.46,12.08,12.08,0,0,0,6.78-2,1.24,1.24,0,0,1,.67-.19A1.06,1.06,0,0,1,739,39a1.08,1.08,0,0,1,.28.75,1,1,0,0,1-.55.93,14.27,14.27,0,0,1-3.74,1.7,14.89,14.89,0,0,1-4.33.68,13.74,13.74,0,0,1-6.85-1.77,13.25,13.25,0,0,1-5-5A14.31,14.31,0,0,1,716.92,29a14.23,14.23,0,0,1,1.83-7.16,13.31,13.31,0,0,1,5-5,13.47,13.47,0,0,1,6.9-1.81,15.05,15.05,0,0,1,4.27.62,13.68,13.68,0,0,1,3.76,1.76A1.09,1.09,0,0,1,739.23,18.39Z"/><path d="M467.29,63.16a.73.73,0,0,1,.09.35.7.7,0,0,1-.15.43.75.75,0,0,1-.6.23,1.2,1.2,0,0,1-.57-.14,2.28,2.28,0,0,1-.94-2.17.91.91,0,0,0-.31-.74,1.21,1.21,0,0,0-.87-.28h-2.43v2.53a.89.89,0,0,1-.19.57.65.65,0,0,1-.5.22,1,1,0,0,1-.66-.23.69.69,0,0,1-.28-.56V55.85a.77.77,0,0,1,.23-.56.73.73,0,0,1,.56-.23h3.75a2.42,2.42,0,0,1,1.27.36,2.71,2.71,0,0,1,1,1,2.86,2.86,0,0,1,.35,1.43,2.46,2.46,0,0,1-.35,1.27,2.68,2.68,0,0,1-.91,1,2,2,0,0,1,.9,1.54,1.87,1.87,0,0,1,0,.4,4.37,4.37,0,0,0,.1.58.47.47,0,0,0,.24.26A.81.81,0,0,1,467.29,63.16Zm-2.48-3.88a1.48,1.48,0,0,0,.36-.59,2.11,2.11,0,0,0,.15-.8,1.53,1.53,0,0,0-.15-.67,1.27,1.27,0,0,0-.36-.48.69.69,0,0,0-.46-.19h-2.84v3h2.84A.64.64,0,0,0,464.81,59.28Z"/><path d="M474.53,62.89a.73.73,0,0,1,.22.53.69.69,0,0,1-.22.53.82.82,0,0,1-.57.21H469.6a.79.79,0,0,1-.79-.79V55.85a.77.77,0,0,1,.23-.56.73.73,0,0,1,.56-.23H474a.82.82,0,0,1,.57.21.75.75,0,0,1,.22.56.66.66,0,0,1-.22.52.8.8,0,0,1-.57.2h-3.52v2.21h2.94a.76.76,0,0,1,.56.22.76.76,0,0,1,0,1.08.84.84,0,0,1-.57.2h-2.94v2.4H474A.79.79,0,0,1,474.53,62.89Z"/><path d="M483.51,59.47a.78.78,0,0,1,.23.57v2.75a.79.79,0,0,1-.41.71,5.25,5.25,0,0,1-2.79.79A4.75,4.75,0,0,1,476.43,62a4.43,4.43,0,0,1-.64-2.34,4.49,4.49,0,0,1,.64-2.35,4.77,4.77,0,0,1,4.11-2.33,4.51,4.51,0,0,1,2.23.52.79.79,0,0,1,.3.27.74.74,0,0,1,.09.36.84.84,0,0,1-.21.57.68.68,0,0,1-.53.24,1.06,1.06,0,0,1-.43-.1,3.62,3.62,0,0,0-1.45-.3,3,3,0,0,0-1.54.42,3.19,3.19,0,0,0-1.11,1.14,3.17,3.17,0,0,0,0,3.12A3.36,3.36,0,0,0,479,62.31a3,3,0,0,0,1.54.42,4.42,4.42,0,0,0,.78-.07,4.37,4.37,0,0,0,.73-.17V60.8h-1.23a.76.76,0,0,1-.56-.22A.74.74,0,0,1,480,60a.77.77,0,0,1,.23-.56.8.8,0,0,1,.56-.22H483A.73.73,0,0,1,483.51,59.47Z"/><path d="M486.67,63.93a.81.81,0,0,1-.57.23.8.8,0,0,1-.58-.23.77.77,0,0,1-.23-.56V55.85a.74.74,0,0,1,.24-.56.79.79,0,0,1,.6-.23.79.79,0,0,1,.79.79v7.52A.72.72,0,0,1,486.67,63.93Z"/><path d="M496.67,62a4.36,4.36,0,0,1-1.58,1.69,4.4,4.4,0,0,1-4.54,0A4.33,4.33,0,0,1,489,62a5.25,5.25,0,0,1,0-4.72,4.36,4.36,0,0,1,1.57-1.7,4.47,4.47,0,0,1,4.54,0,4.39,4.39,0,0,1,1.58,1.7,5.17,5.17,0,0,1,0,4.72ZM495.2,58a2.89,2.89,0,0,0-1-1.13,2.56,2.56,0,0,0-1.41-.41,2.43,2.43,0,0,0-1.41.41,2.77,2.77,0,0,0-1,1.12,3.63,3.63,0,0,0-.34,1.59,3.55,3.55,0,0,0,.34,1.58,2.73,2.73,0,0,0,1,1.13,2.6,2.6,0,0,0,2.82,0,2.79,2.79,0,0,0,1-1.12,3.74,3.74,0,0,0,0-3.16Z"/><path d="M506.15,55.27a.73.73,0,0,1,.19.52v7.58a.76.76,0,0,1-.22.56.79.79,0,0,1-.57.23,1.13,1.13,0,0,1-.36-.06.52.52,0,0,1-.25-.16l-4.77-6.06v5.55a.73.73,0,0,1-.2.52.71.71,0,0,1-.53.21.66.66,0,0,1-.51-.21.73.73,0,0,1-.19-.52V55.85a.76.76,0,0,1,.22-.56.77.77,0,0,1,.57-.23.84.84,0,0,1,.38.08.61.61,0,0,1,.28.2l4.74,6V55.79a.69.69,0,0,1,.2-.52.72.72,0,0,1,1,0Z"/><path d="M515.49,63.46a.72.72,0,0,1-.22.55.69.69,0,0,1-.5.21.67.67,0,0,1-.43-.14,1,1,0,0,1-.29-.39l-.67-1.57H509.5l-.67,1.58a.89.89,0,0,1-.28.39.71.71,0,0,1-.41.13.7.7,0,0,1-.52-.18.71.71,0,0,1-.17-.49.77.77,0,0,1,0-.25l3.23-7.77a.88.88,0,0,1,.32-.41.66.66,0,0,1,.46-.11.75.75,0,0,1,.73.52l3.2,7.61A1,1,0,0,1,515.49,63.46Zm-5.35-2.84h2.6l-1.31-3Z"/><path d="M522.18,62.85a.75.75,0,0,1,.23.55.71.71,0,0,1-.23.54.76.76,0,0,1-.56.22h-4.23a.77.77,0,0,1-.56-.23.73.73,0,0,1-.23-.56V55.85a.77.77,0,0,1,.23-.56.81.81,0,0,1,.6-.23.75.75,0,0,1,.56.23.73.73,0,0,1,.23.56v6.79h3.4A.79.79,0,0,1,522.18,62.85Z"/><path d="M534.75,63.46a.76.76,0,0,1-.22.55.73.73,0,0,1-.51.21.63.63,0,0,1-.42-.14.91.91,0,0,1-.3-.39l-.67-1.57h-3.88l-.67,1.58a.82.82,0,0,1-.28.39.69.69,0,0,1-.41.13.66.66,0,0,1-.51-.18.67.67,0,0,1-.18-.49.77.77,0,0,1,0-.25L530,55.53a.81.81,0,0,1,.31-.41.68.68,0,0,1,.46-.11.76.76,0,0,1,.44.13.72.72,0,0,1,.29.39l3.2,7.61A1,1,0,0,1,534.75,63.46Zm-5.36-2.84H532l-1.31-3Z"/><path d="M537.11,64.05a3.78,3.78,0,0,1-1.36-.79.9.9,0,0,1-.35-.69.7.7,0,0,1,.22-.52.67.67,0,0,1,.53-.23.71.71,0,0,1,.44.15,3.82,3.82,0,0,0,1,.63,3.19,3.19,0,0,0,1.17.19,2.39,2.39,0,0,0,1.25-.32,1,1,0,0,0,.53-.81,1,1,0,0,0-.52-.91,4.24,4.24,0,0,0-1.65-.5c-1.9-.28-2.85-1.17-2.85-2.66a2.36,2.36,0,0,1,.43-1.42,2.64,2.64,0,0,1,1.17-.92,4,4,0,0,1,1.65-.32,4.87,4.87,0,0,1,1.54.24,3.82,3.82,0,0,1,1.2.66.85.85,0,0,1,.38.68.77.77,0,0,1-.22.53.71.71,0,0,1-.52.23.55.55,0,0,1-.35-.12,3.47,3.47,0,0,0-1-.5,3.13,3.13,0,0,0-1.08-.23,2.27,2.27,0,0,0-1.27.31.92.92,0,0,0-.45.8.94.94,0,0,0,.46.84,4.45,4.45,0,0,0,1.45.47,7.57,7.57,0,0,1,1.79.5,2.34,2.34,0,0,1,1,.83,2.61,2.61,0,0,1,.34,1.4,2.38,2.38,0,0,1-.46,1.44,3,3,0,0,1-1.23,1,4.12,4.12,0,0,1-1.65.33A5.34,5.34,0,0,1,537.11,64.05Z"/><path d="M544.87,64.05a3.78,3.78,0,0,1-1.36-.79.9.9,0,0,1-.35-.69.7.7,0,0,1,.22-.52.72.72,0,0,1,1-.08,3.82,3.82,0,0,0,1,.63,3.19,3.19,0,0,0,1.17.19,2.39,2.39,0,0,0,1.25-.32,1,1,0,0,0,.53-.81,1,1,0,0,0-.52-.91,4.24,4.24,0,0,0-1.65-.5c-1.9-.28-2.85-1.17-2.85-2.66a2.36,2.36,0,0,1,.43-1.42,2.64,2.64,0,0,1,1.17-.92,4,4,0,0,1,1.65-.32,4.82,4.82,0,0,1,1.54.24,3.82,3.82,0,0,1,1.2.66.85.85,0,0,1,.38.68.73.73,0,0,1-.22.53.71.71,0,0,1-.52.23.55.55,0,0,1-.35-.12,3.47,3.47,0,0,0-1-.5,3.13,3.13,0,0,0-1.08-.23,2.27,2.27,0,0,0-1.27.31.92.92,0,0,0-.45.8.94.94,0,0,0,.46.84,4.44,4.44,0,0,0,1.46.47,7.61,7.61,0,0,1,1.78.5,2.34,2.34,0,0,1,1,.83,2.61,2.61,0,0,1,.34,1.4,2.38,2.38,0,0,1-.46,1.44,3,3,0,0,1-1.23,1,4.12,4.12,0,0,1-1.65.33A5.34,5.34,0,0,1,544.87,64.05Z"/><path d="M559.17,62a4.36,4.36,0,0,1-1.58,1.69,4.39,4.39,0,0,1-4.53,0A4.29,4.29,0,0,1,551.48,62a5.25,5.25,0,0,1,0-4.72,4.31,4.31,0,0,1,1.58-1.7,4.45,4.45,0,0,1,4.53,0,4.39,4.39,0,0,1,1.58,1.7,5.17,5.17,0,0,1,0,4.72ZM557.7,58a2.89,2.89,0,0,0-1-1.13,2.56,2.56,0,0,0-1.41-.41,2.48,2.48,0,0,0-1.41.41A2.77,2.77,0,0,0,553,58a3.63,3.63,0,0,0-.34,1.59,3.55,3.55,0,0,0,.34,1.58,2.73,2.73,0,0,0,1,1.13,2.56,2.56,0,0,0,1.41.41,2.49,2.49,0,0,0,1.41-.42,2.79,2.79,0,0,0,1-1.12,3.74,3.74,0,0,0,0-3.16Z"/><path d="M568,56.16a.91.91,0,0,1-.19.54.65.65,0,0,1-.54.27.94.94,0,0,1-.44-.12,3.17,3.17,0,0,0-1.38-.3,3.11,3.11,0,0,0-1.58.39,2.52,2.52,0,0,0-1,1.08,3.39,3.39,0,0,0-.37,1.59,3.1,3.1,0,0,0,.83,2.33,3,3,0,0,0,2.16.79,3,3,0,0,0,1.38-.3,1.06,1.06,0,0,1,.42-.1.72.72,0,0,1,.57.28.85.85,0,0,1,.2.53.7.7,0,0,1-.11.38.7.7,0,0,1-.3.26,4.71,4.71,0,0,1-2.16.51,5.06,5.06,0,0,1-2.33-.54,4.15,4.15,0,0,1-1.71-1.59,4.92,4.92,0,0,1-.64-2.55,4.71,4.71,0,0,1,.61-2.38,4.34,4.34,0,0,1,1.67-1.65,4.9,4.9,0,0,1,2.4-.59,4.61,4.61,0,0,1,2.15.51A.69.69,0,0,1,568,56.16Z"/><path d="M570.77,63.93a.85.85,0,0,1-.57.23.78.78,0,0,1-.58-.23.77.77,0,0,1-.23-.56V55.85a.74.74,0,0,1,.24-.56.77.77,0,0,1,.59-.23.73.73,0,0,1,.56.23.74.74,0,0,1,.24.56v7.52A.75.75,0,0,1,570.77,63.93Z"/><path d="M580.17,63.46A.76.76,0,0,1,580,64a.73.73,0,0,1-.51.21.63.63,0,0,1-.42-.14.82.82,0,0,1-.29-.39l-.68-1.57h-3.88l-.67,1.58a.76.76,0,0,1-.28.39.69.69,0,0,1-.41.13.66.66,0,0,1-.51-.18.67.67,0,0,1-.18-.49.77.77,0,0,1,0-.25l3.24-7.77a.86.86,0,0,1,.31-.41.69.69,0,0,1,.47-.11.75.75,0,0,1,.43.13.79.79,0,0,1,.3.39l3.19,7.61A.81.81,0,0,1,580.17,63.46Zm-5.36-2.84h2.6l-1.31-3Z"/><path d="M587.18,55.27a.74.74,0,0,1,.22.54.71.71,0,0,1-.22.54.8.8,0,0,1-.58.2h-2v6.82a.74.74,0,0,1-.24.56.9.9,0,0,1-.62.23.81.81,0,0,1-.59-.23.74.74,0,0,1-.24-.56V56.55h-2a.8.8,0,0,1-.57-.21.69.69,0,0,1-.22-.54.66.66,0,0,1,.23-.53.79.79,0,0,1,.56-.21h5.77A.81.81,0,0,1,587.18,55.27Z"/><path d="M590.14,63.93a.85.85,0,0,1-.57.23.78.78,0,0,1-.58-.23.77.77,0,0,1-.23-.56V55.85a.74.74,0,0,1,.24-.56.77.77,0,0,1,.59-.23.73.73,0,0,1,.56.23.74.74,0,0,1,.24.56v7.52A.75.75,0,0,1,590.14,63.93Z"/><path d="M600.14,62a4.43,4.43,0,0,1-1.58,1.69,4.4,4.4,0,0,1-4.54,0A4.26,4.26,0,0,1,592.45,62a5.17,5.17,0,0,1,0-4.72,4.38,4.38,0,0,1,6.11-1.7,4.46,4.46,0,0,1,1.58,1.7,5.17,5.17,0,0,1,0,4.72ZM598.67,58a2.91,2.91,0,0,0-1-1.13,2.5,2.5,0,0,0-1.4-.41,2.43,2.43,0,0,0-1.41.41,2.77,2.77,0,0,0-1,1.12,3.63,3.63,0,0,0-.35,1.59,3.56,3.56,0,0,0,.35,1.58,2.73,2.73,0,0,0,1,1.13,2.51,2.51,0,0,0,1.41.41,2.43,2.43,0,0,0,1.4-.42,2.81,2.81,0,0,0,1-1.12,3.74,3.74,0,0,0,0-3.16Z"/><path d="M609.61,55.27a.73.73,0,0,1,.2.52v7.58a.79.79,0,0,1-.79.79,1.09,1.09,0,0,1-.36-.06.55.55,0,0,1-.26-.16l-4.77-6.06v5.55a.69.69,0,0,1-.2.52.69.69,0,0,1-.52.21.66.66,0,0,1-.51-.21.73.73,0,0,1-.2-.52V55.85a.77.77,0,0,1,.23-.56.74.74,0,0,1,.57-.23.87.87,0,0,1,.38.08.61.61,0,0,1,.28.2l4.73,6V55.79a.73.73,0,0,1,.2-.52.7.7,0,0,1,.52-.21A.66.66,0,0,1,609.61,55.27Z"/><path d="M623.2,62a4.36,4.36,0,0,1-1.58,1.69,4.4,4.4,0,0,1-4.54,0A4.33,4.33,0,0,1,615.51,62a5.17,5.17,0,0,1,0-4.72,4.36,4.36,0,0,1,1.57-1.7,4.47,4.47,0,0,1,4.54,0,4.39,4.39,0,0,1,1.58,1.7,5.17,5.17,0,0,1,0,4.72ZM621.73,58a2.83,2.83,0,0,0-1-1.13,2.5,2.5,0,0,0-1.4-.41,2.43,2.43,0,0,0-1.41.41A2.77,2.77,0,0,0,617,58a3.63,3.63,0,0,0-.35,1.59,3.56,3.56,0,0,0,.35,1.58,2.73,2.73,0,0,0,1,1.13,2.51,2.51,0,0,0,1.41.41,2.43,2.43,0,0,0,1.4-.42,2.74,2.74,0,0,0,1-1.12,3.74,3.74,0,0,0,0-3.16Z"/><path d="M626.89,56.55v2.29h2.81a.76.76,0,0,1,.56.22.68.68,0,0,1,.23.55.67.67,0,0,1-.23.51.8.8,0,0,1-.56.22h-2.81v3a.74.74,0,0,1-.24.56.81.81,0,0,1-.57.23.84.84,0,0,1-.59-.22.78.78,0,0,1-.23-.57V55.85a.77.77,0,0,1,.23-.56.74.74,0,0,1,.57-.23h4.22a.8.8,0,0,1,.57.21.75.75,0,0,1,.23.56.69.69,0,0,1-.23.5.77.77,0,0,1-.57.22Z"/><path d="M642.76,55.27a.7.7,0,0,1,.22.54.67.67,0,0,1-.22.54.78.78,0,0,1-.57.2h-2v6.82a.72.72,0,0,1-.25.56.87.87,0,0,1-.61.23.85.85,0,0,1-.6-.23.77.77,0,0,1-.23-.56V56.55h-2a.77.77,0,0,1-.57-.21.69.69,0,0,1-.22-.54.68.68,0,0,1,.22-.53.8.8,0,0,1,.57-.21h5.77A.79.79,0,0,1,642.76,55.27Z"/><path d="M651.52,55.28a.78.78,0,0,1,.23.57v7.52a.74.74,0,0,1-.24.56.81.81,0,0,1-.6.23.8.8,0,0,1-.56-.23.77.77,0,0,1-.23-.56v-3H646v3a.74.74,0,0,1-.24.56.85.85,0,0,1-.58.23.78.78,0,0,1-.57-.23.73.73,0,0,1-.23-.56V55.85a.77.77,0,0,1,.23-.56.81.81,0,0,1,.6-.23.75.75,0,0,1,.56.23.73.73,0,0,1,.23.56v3h4.15v-3a.72.72,0,0,1,.25-.56.77.77,0,0,1,.57-.23A.76.76,0,0,1,651.52,55.28Z"/><path d="M659.41,62.89a.74.74,0,0,1,.23.53.7.7,0,0,1-.23.53.8.8,0,0,1-.57.21h-4.35a.79.79,0,0,1-.8-.79V55.85a.77.77,0,0,1,.23-.56.74.74,0,0,1,.57-.23h4.35a.8.8,0,0,1,.57.21.75.75,0,0,1,.23.56.69.69,0,0,1-.22.52.8.8,0,0,1-.58.2h-3.52v2.21h2.94a.76.76,0,0,1,.56.22.72.72,0,0,1,.23.55.68.68,0,0,1-.22.53.84.84,0,0,1-.57.2h-2.94v2.4h3.52A.78.78,0,0,1,659.41,62.89Z"/><path d="M466.65,71.76a.91.91,0,0,1-.19.54.65.65,0,0,1-.53.27,1,1,0,0,1-.45-.12,3.16,3.16,0,0,0-1.37-.3,3.12,3.12,0,0,0-1.59.39,2.52,2.52,0,0,0-1,1.08,3.39,3.39,0,0,0-.36,1.59,3.09,3.09,0,0,0,.82,2.33,3,3,0,0,0,2.17.79,3,3,0,0,0,1.37-.3,1.09,1.09,0,0,1,.42-.11.7.7,0,0,1,.57.29.85.85,0,0,1,.2.53.7.7,0,0,1-.11.38.7.7,0,0,1-.3.26,4.69,4.69,0,0,1-2.15.51,5.1,5.1,0,0,1-2.34-.54,4.22,4.22,0,0,1-1.71-1.59,4.92,4.92,0,0,1-.63-2.55,4.7,4.7,0,0,1,.6-2.38,4.34,4.34,0,0,1,1.67-1.65,4.92,4.92,0,0,1,2.41-.59,4.59,4.59,0,0,1,2.14.51A.69.69,0,0,1,466.65,71.76Z"/><path d="M475.23,79.06a.74.74,0,0,1-.22.55.69.69,0,0,1-.5.21.67.67,0,0,1-.43-.14,1.05,1.05,0,0,1-.29-.39l-.67-1.57h-3.88l-.67,1.58a.89.89,0,0,1-.28.39.71.71,0,0,1-.41.13.7.7,0,0,1-.52-.18.71.71,0,0,1-.17-.49.77.77,0,0,1,0-.25l3.23-7.77a.88.88,0,0,1,.32-.41.66.66,0,0,1,.46-.11.75.75,0,0,1,.73.52l3.2,7.61A1,1,0,0,1,475.23,79.06Zm-5.35-2.84h2.6l-1.31-3Z"/><path d="M483.75,70.87a.71.71,0,0,1,.19.52V79a.77.77,0,0,1-.22.57.78.78,0,0,1-.57.23,1.13,1.13,0,0,1-.36-.06.52.52,0,0,1-.25-.16l-4.77-6.06V79a.73.73,0,0,1-.2.52.71.71,0,0,1-.53.21.66.66,0,0,1-.51-.21.73.73,0,0,1-.19-.52V71.45a.77.77,0,0,1,.23-.56.73.73,0,0,1,.56-.23.91.91,0,0,1,.39.08.64.64,0,0,1,.27.2l4.74,6V71.39a.68.68,0,0,1,.2-.52.72.72,0,0,1,1,0Z"/><path d="M493.1,79.06a.78.78,0,0,1-.22.55.73.73,0,0,1-.51.21.63.63,0,0,1-.42-.14,1,1,0,0,1-.3-.39L491,77.72H487.1l-.67,1.58a.82.82,0,0,1-.28.39.71.71,0,0,1-.41.13.7.7,0,0,1-.52-.18.71.71,0,0,1-.17-.49.77.77,0,0,1,0-.25l3.24-7.77a.81.81,0,0,1,.31-.41.68.68,0,0,1,.46-.11.76.76,0,0,1,.44.13.78.78,0,0,1,.29.39l3.2,7.61A1,1,0,0,1,493.1,79.06Zm-5.36-2.84h2.6l-1.31-3Z"/><path d="M500.2,71.26a3.81,3.81,0,0,1,1.34,1.64,6,6,0,0,1,0,4.62,3.84,3.84,0,0,1-1.34,1.63,3.54,3.54,0,0,1-2.1.61H495a.79.79,0,0,1-.79-.8V71.45a.77.77,0,0,1,.23-.56.73.73,0,0,1,.56-.23h3.11A3.61,3.61,0,0,1,500.2,71.26Zm-.47,6.14a3.84,3.84,0,0,0,.58-2.19,3.8,3.8,0,0,0-.59-2.19,2,2,0,0,0-1.75-.87h-2.14v6.11H498A2,2,0,0,0,499.73,77.4Z"/><path d="M504.87,79.53a.83.83,0,0,1-1.15,0,.77.77,0,0,1-.22-.57V71.45a.73.73,0,0,1,.23-.56.79.79,0,0,1,.6-.23.79.79,0,0,1,.79.79V79A.72.72,0,0,1,504.87,79.53Z"/><path d="M514.27,79.06a.74.74,0,0,1-.22.55.71.71,0,0,1-.51.21.66.66,0,0,1-.42-.14,1.05,1.05,0,0,1-.29-.39l-.68-1.57h-3.87l-.68,1.58a.76.76,0,0,1-.28.39.66.66,0,0,1-.4.13.7.7,0,0,1-.52-.18.67.67,0,0,1-.17-.49,1.13,1.13,0,0,1,0-.25l3.24-7.77a.86.86,0,0,1,.31-.41.7.7,0,0,1,.47-.11.75.75,0,0,1,.73.52l3.2,7.61A1,1,0,0,1,514.27,79.06Zm-5.35-2.84h2.6l-1.32-3Z"/><path d="M522.79,70.87a.71.71,0,0,1,.19.52V79a.74.74,0,0,1-.23.57.75.75,0,0,1-.56.23,1.13,1.13,0,0,1-.36-.06.47.47,0,0,1-.25-.16l-4.77-6.06V79a.73.73,0,0,1-.2.52.71.71,0,0,1-.53.21.66.66,0,0,1-.51-.21.73.73,0,0,1-.19-.52V71.45a.76.76,0,0,1,.22-.56.77.77,0,0,1,.57-.23.84.84,0,0,1,.38.08.61.61,0,0,1,.28.2l4.74,6V71.39a.68.68,0,0,1,.2-.52.72.72,0,0,1,1,0Z"/><path d="M530,79.53a.83.83,0,0,1-.57.23.79.79,0,0,1-.81-.8V71.45a.74.74,0,0,1,.24-.56.77.77,0,0,1,.59-.23.73.73,0,0,1,.56.23.74.74,0,0,1,.24.56V79A.76.76,0,0,1,530,79.53Z"/><path d="M539.56,70.87a.71.71,0,0,1,.19.52V79a.74.74,0,0,1-.23.57.77.77,0,0,1-.56.23,1.13,1.13,0,0,1-.36-.06.47.47,0,0,1-.25-.16l-4.77-6.06V79a.73.73,0,0,1-.2.52.71.71,0,0,1-.53.21.66.66,0,0,1-.51-.21.73.73,0,0,1-.19-.52V71.45a.77.77,0,0,1,.79-.79.84.84,0,0,1,.38.08.61.61,0,0,1,.28.2l4.73,6V71.39a.69.69,0,0,1,.21-.52.72.72,0,0,1,1,0Z"/><path d="M548.25,70.87a.69.69,0,0,1,.22.54.67.67,0,0,1-.22.54.76.76,0,0,1-.57.2h-2V79a.72.72,0,0,1-.25.57.91.91,0,0,1-1.21,0A.78.78,0,0,1,544,79V72.15h-2a.79.79,0,0,1-.57-.21.69.69,0,0,1-.22-.54.67.67,0,0,1,.22-.53.82.82,0,0,1,.57-.21h5.77A.77.77,0,0,1,548.25,70.87Z"/><path d="M555.55,78.49a.74.74,0,0,1,.23.53.7.7,0,0,1-.23.53.79.79,0,0,1-.56.21h-4.36a.79.79,0,0,1-.79-.8V71.45a.77.77,0,0,1,.23-.56.73.73,0,0,1,.56-.23H555a.79.79,0,0,1,.56.21.75.75,0,0,1,.23.55.67.67,0,0,1-.22.53.8.8,0,0,1-.57.2h-3.53v2.21h2.94a.77.77,0,0,1,.57.22.72.72,0,0,1,.23.55.69.69,0,0,1-.23.53.81.81,0,0,1-.57.2h-2.94v2.4H555A.77.77,0,0,1,555.55,78.49Z"/><path d="M564.54,75.07a.77.77,0,0,1,.22.57v2.75a.76.76,0,0,1-.4.7,5.19,5.19,0,0,1-2.8.8,4.75,4.75,0,0,1-4.1-2.34,4.43,4.43,0,0,1-.64-2.34,4.49,4.49,0,0,1,.64-2.35,4.7,4.7,0,0,1,1.73-1.7,4.65,4.65,0,0,1,2.37-.63,4.55,4.55,0,0,1,2.24.52.69.69,0,0,1,.29.27.65.65,0,0,1,.1.36.84.84,0,0,1-.21.57.69.69,0,0,1-.53.24,1.06,1.06,0,0,1-.43-.1,3.67,3.67,0,0,0-1.46-.3,2.94,2.94,0,0,0-1.53.42,3,3,0,0,0-1.11,1.14,3.08,3.08,0,0,0-.41,1.56,3.13,3.13,0,0,0,.41,1.56A3.19,3.19,0,0,0,560,77.91a2.94,2.94,0,0,0,1.53.42,4.26,4.26,0,0,0,.78-.07,3.94,3.94,0,0,0,.73-.17V76.4h-1.22a.76.76,0,0,1-.56-.22.7.7,0,0,1-.23-.56.73.73,0,0,1,.23-.56.8.8,0,0,1,.56-.22H564A.75.75,0,0,1,564.54,75.07Z"/><path d="M573.73,78.76a.73.73,0,0,1,.09.35.7.7,0,0,1-.15.43.75.75,0,0,1-.6.23,1.2,1.2,0,0,1-.57-.14,2.28,2.28,0,0,1-.94-2.17.94.94,0,0,0-.3-.74,1.26,1.26,0,0,0-.88-.28H568V79a.9.9,0,0,1-.19.58.65.65,0,0,1-.5.22,1,1,0,0,1-.66-.23.72.72,0,0,1-.28-.57V71.45a.77.77,0,0,1,.23-.56.74.74,0,0,1,.57-.23h3.74a2.4,2.4,0,0,1,1.27.36,2.71,2.71,0,0,1,1,1,2.87,2.87,0,0,1,.36,1.43,2.56,2.56,0,0,1-.35,1.27,2.86,2.86,0,0,1-.91,1,2,2,0,0,1,.89,1.54,1.81,1.81,0,0,1,0,.4,4,4,0,0,0,.11.58.42.42,0,0,0,.23.26A.81.81,0,0,1,573.73,78.76Zm-2.48-3.88a1.48,1.48,0,0,0,.36-.59,2.11,2.11,0,0,0,.15-.8,1.53,1.53,0,0,0-.15-.67,1.39,1.39,0,0,0-.36-.49.72.72,0,0,0-.46-.18H568V75.1h2.84A.64.64,0,0,0,571.25,74.88Z"/><path d="M582.46,79.06a.75.75,0,0,1-.23.55.69.69,0,0,1-.5.21.67.67,0,0,1-.43-.14,1.05,1.05,0,0,1-.29-.39l-.67-1.57h-3.88l-.67,1.58a.82.82,0,0,1-.28.39.71.71,0,0,1-.41.13.7.7,0,0,1-.52-.18.71.71,0,0,1-.17-.49.77.77,0,0,1,0-.25l3.23-7.77a.88.88,0,0,1,.32-.41.66.66,0,0,1,.46-.11.76.76,0,0,1,.44.13.78.78,0,0,1,.29.39l3.2,7.61A1,1,0,0,1,582.46,79.06Zm-5.36-2.84h2.6l-1.31-3Z"/><path d="M589.46,70.87a.69.69,0,0,1,.22.54.67.67,0,0,1-.22.54.76.76,0,0,1-.57.2h-2V79a.72.72,0,0,1-.25.57.87.87,0,0,1-.61.23.85.85,0,0,1-.6-.23.78.78,0,0,1-.23-.57V72.15h-2a.77.77,0,0,1-.57-.21.69.69,0,0,1-.22-.54.67.67,0,0,1,.22-.53.8.8,0,0,1,.57-.21h5.77A.77.77,0,0,1,589.46,70.87Z"/><path d="M596.76,78.49A.74.74,0,0,1,597,79a.7.7,0,0,1-.23.53.79.79,0,0,1-.56.21h-4.36a.77.77,0,0,1-.56-.23.74.74,0,0,1-.23-.57V71.45a.79.79,0,0,1,.79-.79h4.36a.79.79,0,0,1,.56.21.75.75,0,0,1,.23.55.67.67,0,0,1-.22.53.8.8,0,0,1-.57.2h-3.53v2.21h2.94a.77.77,0,0,1,.57.22.71.71,0,0,1,.22.55.68.68,0,0,1-.22.53.81.81,0,0,1-.57.2h-2.94v2.4h3.53A.77.77,0,0,1,596.76,78.49Z"/><path d="M604.48,71.26a3.81,3.81,0,0,1,1.34,1.64,6,6,0,0,1,0,4.62,3.84,3.84,0,0,1-1.34,1.63,3.54,3.54,0,0,1-2.1.61h-3.1a.79.79,0,0,1-.8-.8V71.45a.77.77,0,0,1,.23-.56.74.74,0,0,1,.57-.23h3.1A3.61,3.61,0,0,1,604.48,71.26ZM604,77.4a3.84,3.84,0,0,0,.58-2.19A3.72,3.72,0,0,0,604,73a2,2,0,0,0-1.75-.87h-2.14v6.11h2.14A2,2,0,0,0,604,77.4Z"/><path d="M619.22,77.57a4.36,4.36,0,0,1-1.58,1.69,4.4,4.4,0,0,1-4.54,0,4.33,4.33,0,0,1-1.57-1.69,5.17,5.17,0,0,1,0-4.72,4.36,4.36,0,0,1,1.57-1.7,4.47,4.47,0,0,1,4.54,0,4.39,4.39,0,0,1,1.58,1.7,5.17,5.17,0,0,1,0,4.72Zm-1.47-3.94a2.83,2.83,0,0,0-1-1.13,2.5,2.5,0,0,0-1.4-.41,2.43,2.43,0,0,0-1.41.41,2.77,2.77,0,0,0-1,1.12,3.63,3.63,0,0,0-.35,1.59,3.56,3.56,0,0,0,.35,1.58,2.73,2.73,0,0,0,1,1.13,2.51,2.51,0,0,0,1.41.41,2.43,2.43,0,0,0,1.4-.42,2.8,2.8,0,0,0,1-1.12,3.74,3.74,0,0,0,0-3.16Z"/><path d="M628.06,71.76a.93.93,0,0,1-.2.54.64.64,0,0,1-.53.27.91.91,0,0,1-.44-.12,3.23,3.23,0,0,0-1.38-.3,3.15,3.15,0,0,0-1.59.39,2.58,2.58,0,0,0-1,1.08,3.39,3.39,0,0,0-.36,1.59,3.1,3.1,0,0,0,.83,2.33,3,3,0,0,0,2.16.79,3,3,0,0,0,1.38-.3,1,1,0,0,1,.41-.11.73.73,0,0,1,.58.29.84.84,0,0,1,.19.53.67.67,0,0,1-.4.64,4.77,4.77,0,0,1-2.16.51,5.1,5.1,0,0,1-2.34-.54,4.13,4.13,0,0,1-1.7-1.59,4.83,4.83,0,0,1-.64-2.55,4.7,4.7,0,0,1,.6-2.38,4.37,4.37,0,0,1,1.68-1.65,4.9,4.9,0,0,1,2.4-.59,4.64,4.64,0,0,1,2.15.51A.71.71,0,0,1,628.06,71.76Z"/><path d="M635.15,78.49a.74.74,0,0,1,.23.53.7.7,0,0,1-.23.53.8.8,0,0,1-.57.21h-4.35a.79.79,0,0,1-.57-.23.77.77,0,0,1-.22-.57V71.45a.77.77,0,0,1,.79-.79h4.35a.8.8,0,0,1,.57.21.75.75,0,0,1,.23.55.7.7,0,0,1-.22.53.8.8,0,0,1-.58.2h-3.52v2.21H634a.78.78,0,0,1,.57.22.71.71,0,0,1,.22.55.68.68,0,0,1-.22.53.84.84,0,0,1-.57.2h-2.94v2.4h3.52A.78.78,0,0,1,635.15,78.49Z"/><path d="M644.07,79.06a.74.74,0,0,1-.22.55.69.69,0,0,1-.5.21.67.67,0,0,1-.43-.14,1.05,1.05,0,0,1-.29-.39L642,77.72h-3.88l-.67,1.58a.89.89,0,0,1-.28.39.71.71,0,0,1-.41.13.7.7,0,0,1-.52-.18.71.71,0,0,1-.17-.49.77.77,0,0,1,0-.25l3.23-7.77a.88.88,0,0,1,.32-.41.66.66,0,0,1,.46-.11.75.75,0,0,1,.73.52l3.2,7.61A1,1,0,0,1,644.07,79.06Zm-5.35-2.84h2.6l-1.31-3Z"/><path d="M652.59,70.87a.71.71,0,0,1,.19.52V79a.77.77,0,0,1-.22.57.78.78,0,0,1-.57.23,1.13,1.13,0,0,1-.36-.06.52.52,0,0,1-.25-.16l-4.77-6.06V79a.73.73,0,0,1-.2.52.71.71,0,0,1-.53.21.66.66,0,0,1-.51-.21.73.73,0,0,1-.19-.52V71.45a.79.79,0,0,1,.79-.79.91.91,0,0,1,.39.08.64.64,0,0,1,.27.2l4.74,6V71.39a.68.68,0,0,1,.2-.52.72.72,0,0,1,1,0Z"/><path d="M666.17,77.57a4.29,4.29,0,0,1-1.58,1.69,4.39,4.39,0,0,1-4.53,0,4.29,4.29,0,0,1-1.58-1.69,5.25,5.25,0,0,1,0-4.72,4.31,4.31,0,0,1,1.58-1.7,4.45,4.45,0,0,1,4.53,0,4.31,4.31,0,0,1,1.58,1.7,5.09,5.09,0,0,1,0,4.72Zm-1.47-3.94a2.81,2.81,0,0,0-1-1.13,2.52,2.52,0,0,0-1.4-.41,2.43,2.43,0,0,0-1.41.41,2.72,2.72,0,0,0-1,1.12,3.63,3.63,0,0,0-.34,1.59,3.55,3.55,0,0,0,.34,1.58,2.68,2.68,0,0,0,1,1.13,2.51,2.51,0,0,0,1.41.41,2.45,2.45,0,0,0,1.4-.42,2.78,2.78,0,0,0,1-1.12,3.65,3.65,0,0,0,0-3.16Z"/><path d="M674.83,75.55a2.26,2.26,0,0,1,.43,1.44,2.44,2.44,0,0,1-.88,2.16,3.69,3.69,0,0,1-2.11.61H669a.79.79,0,0,1-.79-.8V71.45a.77.77,0,0,1,.23-.56.73.73,0,0,1,.56-.23h3.28c1.65,0,2.47.77,2.47,2.31a1.85,1.85,0,0,1-.28,1,1.91,1.91,0,0,1-.8.71A2.71,2.71,0,0,1,674.83,75.55Zm-2-3.09a1,1,0,0,0-.74-.27h-2.15v2h2.18a1,1,0,0,0,.69-.26.9.9,0,0,0,.29-.7A1.07,1.07,0,0,0,672.82,72.46Zm.41,5.48a1.24,1.24,0,0,0,.34-1c0-.51-.13-.85-.4-1a1.91,1.91,0,0,0-1-.24h-2.25v2.51h2.34A1.37,1.37,0,0,0,673.23,77.94Z"/><path d="M678,79.65a3.82,3.82,0,0,1-1.37-.79.93.93,0,0,1-.35-.69.77.77,0,0,1,.75-.75.72.72,0,0,1,.45.15,3.63,3.63,0,0,0,1,.63,3.19,3.19,0,0,0,1.17.19,2.37,2.37,0,0,0,1.25-.32.94.94,0,0,0,.53-.81,1,1,0,0,0-.52-.91,4.4,4.4,0,0,0-1.65-.51c-1.9-.27-2.85-1.16-2.85-2.65a2.43,2.43,0,0,1,.43-1.42,2.76,2.76,0,0,1,1.17-.92,4,4,0,0,1,1.65-.32,4.82,4.82,0,0,1,1.54.24,4.07,4.07,0,0,1,1.21.65.87.87,0,0,1,.37.69.73.73,0,0,1-.22.53.71.71,0,0,1-.52.23.57.57,0,0,1-.35-.12,3.39,3.39,0,0,0-.94-.5,3.18,3.18,0,0,0-1.09-.23,2.15,2.15,0,0,0-1.26.31,1,1,0,0,0,0,1.64,4.37,4.37,0,0,0,1.45.47,7.86,7.86,0,0,1,1.79.5,2.31,2.31,0,0,1,1,.83,2.52,2.52,0,0,1,.34,1.4,2.32,2.32,0,0,1-.46,1.44,3.09,3.09,0,0,1-1.23,1,4.12,4.12,0,0,1-1.65.33A5.28,5.28,0,0,1,678,79.65Z"/><path d="M690.23,78.49a.74.74,0,0,1,.23.53.7.7,0,0,1-.23.53.8.8,0,0,1-.57.21h-4.35a.79.79,0,0,1-.57-.23.77.77,0,0,1-.22-.57V71.45a.77.77,0,0,1,.79-.79h4.35a.8.8,0,0,1,.57.21.75.75,0,0,1,.23.55.7.7,0,0,1-.22.53.8.8,0,0,1-.58.2h-3.52v2.21h2.94a.76.76,0,0,1,.56.22.76.76,0,0,1,0,1.08.84.84,0,0,1-.57.2h-2.94v2.4h3.52A.78.78,0,0,1,690.23,78.49Z"/><path d="M699.36,78.76a.73.73,0,0,1,.09.35.7.7,0,0,1-.15.43.75.75,0,0,1-.6.23,1.2,1.2,0,0,1-.57-.14,2.28,2.28,0,0,1-.94-2.17.91.91,0,0,0-.31-.74,1.21,1.21,0,0,0-.87-.28h-2.43V79a.9.9,0,0,1-.19.58.65.65,0,0,1-.5.22,1,1,0,0,1-.66-.23A.69.69,0,0,1,692,79V71.45a.77.77,0,0,1,.23-.56.73.73,0,0,1,.56-.23h3.75a2.42,2.42,0,0,1,1.27.36,2.71,2.71,0,0,1,1,1,2.87,2.87,0,0,1,.36,1.43,2.47,2.47,0,0,1-.36,1.27,2.68,2.68,0,0,1-.91,1,2,2,0,0,1,.9,1.54,1.81,1.81,0,0,1,0,.4c0,.27.07.46.1.58a.47.47,0,0,0,.24.26A.81.81,0,0,1,699.36,78.76Zm-2.48-3.88a1.48,1.48,0,0,0,.36-.59,2.11,2.11,0,0,0,.15-.8,1.53,1.53,0,0,0-.15-.67,1.39,1.39,0,0,0-.36-.49.72.72,0,0,0-.46-.18h-2.84V75.1h2.84A.64.64,0,0,0,696.88,74.88Z"/><path d="M707.9,70.85a.71.71,0,0,1,.24.54.93.93,0,0,1-.08.35l-3.21,7.51a.88.88,0,0,1-.33.38.74.74,0,0,1-.85,0,.75.75,0,0,1-.29-.36l-3.21-7.54a.61.61,0,0,1-.07-.32.72.72,0,0,1,.26-.57.85.85,0,0,1,.53-.21.72.72,0,0,1,.42.13.83.83,0,0,1,.3.38l2.61,6.14,2.4-6.14a.77.77,0,0,1,.29-.37.72.72,0,0,1,.42-.13A.8.8,0,0,1,707.9,70.85Z"/><path d="M710.88,79.53a.85.85,0,0,1-.57.23.79.79,0,0,1-.81-.8V71.45a.77.77,0,0,1,.23-.56.81.81,0,0,1,.6-.23.73.73,0,0,1,.56.23.74.74,0,0,1,.24.56V79A.76.76,0,0,1,710.88,79.53Z"/><path d="M720.49,70.87a.71.71,0,0,1,.19.52V79a.79.79,0,0,1-.79.8,1.13,1.13,0,0,1-.36-.06.47.47,0,0,1-.25-.16l-4.77-6.06V79a.7.7,0,0,1-.21.52.69.69,0,0,1-.52.21.66.66,0,0,1-.51-.21.73.73,0,0,1-.19-.52V71.45a.77.77,0,0,1,.79-.79.84.84,0,0,1,.38.08.61.61,0,0,1,.28.2l4.73,6V71.39a.72.72,0,0,1,.2-.52.7.7,0,0,1,.52-.21A.66.66,0,0,1,720.49,70.87Z"/><path d="M729.9,75.07a.81.81,0,0,1,.22.57v2.75a.77.77,0,0,1-.41.7,5.15,5.15,0,0,1-2.79.8,4.75,4.75,0,0,1-4.11-2.34,4.52,4.52,0,0,1-.64-2.34,4.58,4.58,0,0,1,.64-2.35,4.78,4.78,0,0,1,1.73-1.7,4.68,4.68,0,0,1,2.38-.63,4.58,4.58,0,0,1,2.24.52.76.76,0,0,1,.29.27.75.75,0,0,1,.1.36.85.85,0,0,1-.22.57.67.67,0,0,1-.52.24,1,1,0,0,1-.43-.1,3.7,3.7,0,0,0-1.46-.3,2.91,2.91,0,0,0-1.53.42,3.14,3.14,0,0,0-1.12,1.14,3.07,3.07,0,0,0-.4,1.56,3.12,3.12,0,0,0,.4,1.56,3.3,3.3,0,0,0,1.12,1.14,2.91,2.91,0,0,0,1.53.42,4.42,4.42,0,0,0,.78-.07,4.15,4.15,0,0,0,.73-.17V76.4h-1.22a.77.77,0,0,1-.57-.22.74.74,0,0,1-.23-.56.77.77,0,0,1,.23-.56.81.81,0,0,1,.57-.22h2.13A.77.77,0,0,1,729.9,75.07Z"/><path d="M736.58,79.65a3.82,3.82,0,0,1-1.37-.79.93.93,0,0,1-.35-.69.74.74,0,0,1,.22-.52.74.74,0,0,1,1-.08,3.78,3.78,0,0,0,1,.63,3.19,3.19,0,0,0,1.17.19,2.41,2.41,0,0,0,1.26-.32,1,1,0,0,0,.52-.81,1,1,0,0,0-.52-.91,4.27,4.27,0,0,0-1.65-.51C736,75.57,735,74.68,735,73.19a2.43,2.43,0,0,1,.42-1.42,2.76,2.76,0,0,1,1.17-.92,4.06,4.06,0,0,1,1.66-.32,4.87,4.87,0,0,1,1.54.24,4,4,0,0,1,1.2.65.88.88,0,0,1,.38.69.74.74,0,0,1-.23.53.7.7,0,0,1-.52.23.57.57,0,0,1-.35-.12,3.39,3.39,0,0,0-.94-.5,3.13,3.13,0,0,0-1.08-.23,2.19,2.19,0,0,0-1.27.31A1,1,0,0,0,737,74a4.37,4.37,0,0,0,1.45.47,7.71,7.71,0,0,1,1.79.5,2.4,2.4,0,0,1,1,.83,2.61,2.61,0,0,1,.33,1.4,2.32,2.32,0,0,1-.46,1.44,3,3,0,0,1-1.23,1,4.12,4.12,0,0,1-1.65.33A5.28,5.28,0,0,1,736.58,79.65Z"/><path d="M749.32,71.91l-2.72,3.88V79a.77.77,0,0,1-.22.57.72.72,0,0,1-.53.23.79.79,0,0,1-.56-.23.77.77,0,0,1-.22-.57V75.61L742.36,72a1.06,1.06,0,0,1-.23-.61.71.71,0,0,1,.27-.56.77.77,0,0,1,1.2.13l2.29,3.16L748,71a.75.75,0,0,1,1.2-.16.81.81,0,0,1,.23.57A.93.93,0,0,1,749.32,71.91Z"/><path d="M751.57,79.65a3.82,3.82,0,0,1-1.37-.79.93.93,0,0,1-.35-.69.75.75,0,0,1,1.2-.6,3.63,3.63,0,0,0,1,.63,3.19,3.19,0,0,0,1.17.19,2.43,2.43,0,0,0,1.26-.32,1,1,0,0,0,.52-.81,1,1,0,0,0-.52-.91,4.33,4.33,0,0,0-1.65-.51c-1.9-.27-2.85-1.16-2.85-2.65a2.43,2.43,0,0,1,.43-1.42,2.76,2.76,0,0,1,1.17-.92,4,4,0,0,1,1.65-.32,4.82,4.82,0,0,1,1.54.24,4,4,0,0,1,1.21.65.87.87,0,0,1,.37.69.73.73,0,0,1-.22.53.7.7,0,0,1-.52.23.57.57,0,0,1-.35-.12,3.39,3.39,0,0,0-.94-.5,3.18,3.18,0,0,0-1.09-.23,2.17,2.17,0,0,0-1.26.31A1,1,0,0,0,752,74a4.37,4.37,0,0,0,1.45.47,7.86,7.86,0,0,1,1.79.5,2.31,2.31,0,0,1,1,.83,2.52,2.52,0,0,1,.34,1.4,2.32,2.32,0,0,1-.46,1.44,3.09,3.09,0,0,1-1.23,1,4.12,4.12,0,0,1-1.65.33A5.28,5.28,0,0,1,751.57,79.65Z"/><path d="M764.62,70.87a.69.69,0,0,1,.22.54.67.67,0,0,1-.22.54.8.8,0,0,1-.57.2h-2V79a.76.76,0,0,1-.25.57.89.89,0,0,1-.61.23.85.85,0,0,1-.6-.23.74.74,0,0,1-.23-.57V72.15h-2a.81.81,0,0,1-.58-.21.72.72,0,0,1-.22-.54.67.67,0,0,1,.23-.53.8.8,0,0,1,.57-.21h5.77A.8.8,0,0,1,764.62,70.87Z"/><path d="M771.92,78.49a.74.74,0,0,1,.23.53.7.7,0,0,1-.23.53.8.8,0,0,1-.57.21H767a.79.79,0,0,1-.8-.8V71.45a.77.77,0,0,1,.23-.56.74.74,0,0,1,.57-.23h4.35a.8.8,0,0,1,.57.21.75.75,0,0,1,.23.55.67.67,0,0,1-.23.53.76.76,0,0,1-.57.2h-3.52v2.21h2.94a.76.76,0,0,1,.56.22.72.72,0,0,1,.23.55.68.68,0,0,1-.22.53.84.84,0,0,1-.57.2h-2.94v2.4h3.52A.78.78,0,0,1,771.92,78.49Z"/><path d="M782.1,70.87a.75.75,0,0,1,.24.57V79a.77.77,0,0,1-.81.8.84.84,0,0,1-.59-.22.78.78,0,0,1-.23-.58V73.73L778.57,77a1,1,0,0,1-.3.25.56.56,0,0,1-.35.09.53.53,0,0,1-.34-.09,1,1,0,0,1-.3-.25l-2.15-3.39V79a.8.8,0,0,1-.2.58.75.75,0,0,1-.55.22.69.69,0,0,1-.53-.23.8.8,0,0,1-.21-.57V71.44a.76.76,0,0,1,.24-.56.78.78,0,0,1,.58-.24.94.94,0,0,1,.39.1.77.77,0,0,1,.3.26L778,75.35,780.89,71a.87.87,0,0,1,.28-.26.77.77,0,0,1,.93.13Z"/></svg>