<svg xmlns="http://www.w3.org/2000/svg" viewBox="0 0 308.44 94.76"><path d="M92.48,35.8l-16-23.14L51,0,51,0,20.57,8.83H20.4L4.52,27.7l-.06.06v.16L0,58.81V59L16,82.1,41.5,94.73l.24,0,30-8.83h.17L87.82,67.06l.06-.07v-.24l4.55-30.14m-8.29,3.88-8.26-24L91.43,35.88ZM13.38,57.83,5,34.26l20.07-5.1Zm.24.73.16-.15.32-.33L25.86,29.43l13,24.46Zm25.5-3.72L38.5,80.21,14.39,59.43ZM26.63,29l31.58,2.89L39.62,53.44Zm32.69,1.78L47.12,9.43l26.55,5ZM74.42,15l8.79,25.37L60.07,31.29ZM66.54,63.34,40.28,54.05,59,32.48ZM58.35,31,26.94,28.12,46.11,9.58ZM40,54.89l26.22,9.28L39.46,80.29ZM66.79,65l-1.7,21-24.83-5ZM59.92,32.27l23.31,9.18L67.57,63ZM76.05,13.53l9.75,14L75.25,14.15ZM75.18,13l-.69.57L61.22,6ZM72,13.12,46.93,8.43l4-7.46Zm-22.24-12L45.92,8.37,24,8.71ZM45.07,9.25,26.13,27.57l-4.91-18ZM20.42,10.34l4.9,17.8L5.46,33.22ZM5.24,28.15l12-14.36L4.77,32.47Zm-.62,7.69,8.1,22.8L.92,58.38ZM1.21,59.35l11.65.27,2.71,20.5Zm12.67.92L37.71,80.8l-21.06.71Zm4.2,22.09,20.45-.7,2.46,12ZM42,94,39.52,81.81l24.09,4.86Zm29.52-8.74-4.72.63L84.18,70.29Zm-5.61.1,1.78-20.77,18.81,2.59Zm2.19-21.62L83.56,42.45,87,66.32Zm19.41.06-3-22.33,7.11-4.54Z" fill="#b9d6f2"/><path d="M16.73,57.79a3.88,3.88,0,0,0-2.15-2.08,3.9,3.9,0,0,0-5,5.18A3.87,3.87,0,0,0,11.71,63a3.94,3.94,0,0,0,3,0,3.9,3.9,0,0,0,2-5.13Z" fill="#006e90"/><path d="M62.45,28.29a4.7,4.7,0,0,0-6.1,7.14,4.6,4.6,0,0,0,3,1.12l.39,0a4.7,4.7,0,0,0,2.7-8.24Z" fill="#006e90"/><path d="M77.36,13.42a3.11,3.11,0,1,0-2.85,4.35,3,3,0,0,0,1.24-.26A3.11,3.11,0,0,0,77.36,13.42Z" fill="#006e90"/><path d="M42.87,52.81a3.12,3.12,0,0,0-4.1-1.61,3.12,3.12,0,0,0,.1,5.75,3.21,3.21,0,0,0,1.14.22,3.17,3.17,0,0,0,1.24-.26A3.13,3.13,0,0,0,42.87,52.81Z" fill="#006e90"/><path d="M86.8,39.7a3.11,3.11,0,1,0-4,4.13,3.05,3.05,0,0,0,1.15.22,3.17,3.17,0,0,0,1.24-.26A3.12,3.12,0,0,0,86.8,39.7Z" fill="#006e90"/><path d="M111.16,42.14A13.8,13.8,0,0,1,107,39.22a1.17,1.17,0,0,1-.1-1.79,1.14,1.14,0,0,1,.84-.39,1.2,1.2,0,0,1,.86.39,9.84,9.84,0,0,0,7.6,3.35,7.76,7.76,0,0,0,4.66-1.33A4.06,4.06,0,0,0,122.68,36a4.26,4.26,0,0,0-.91-2.79,6.85,6.85,0,0,0-2.4-1.81,31.18,31.18,0,0,0-3.78-1.44,23.62,23.62,0,0,1-4.2-1.64,7.8,7.8,0,0,1-2.75-2.4,6.48,6.48,0,0,1-1-3.8,6.29,6.29,0,0,1,1.11-3.67,7.48,7.48,0,0,1,3.12-2.51,11,11,0,0,1,4.62-.92,12.44,12.44,0,0,1,4.47.8,7.92,7.92,0,0,1,3.33,2.28,1.9,1.9,0,0,1,.59,1.13,1.09,1.09,0,0,1-.39.8,1.22,1.22,0,0,1-.86.37.9.9,0,0,1-.66-.27,7.69,7.69,0,0,0-2.81-2,8.93,8.93,0,0,0-3.67-.78,7.85,7.85,0,0,0-4.64,1.27A4,4,0,0,0,110,22a4,4,0,0,0,1.72,3.47,17.93,17.93,0,0,0,4.91,2.22,30.08,30.08,0,0,1,4.52,1.68A7.46,7.46,0,0,1,124,31.83,7.07,7.07,0,0,1,125.14,36,6.06,6.06,0,0,1,124,39.59a7.74,7.74,0,0,1-3.2,2.55,11,11,0,0,1-4.66.94A12.31,12.31,0,0,1,111.16,42.14Z" fill="#404041"/><path d="M134.15,42.34a1.18,1.18,0,0,1-.86.35,1.22,1.22,0,0,1-.88-.33,1.18,1.18,0,0,1-.33-.88V16.6a1.17,1.17,0,0,1,.35-.88,1.28,1.28,0,0,1,.9-.33,1.18,1.18,0,0,1,.86.35,1.19,1.19,0,0,1,.35.86V41.48A1.35,1.35,0,0,1,134.15,42.34Z" fill="#404041"/><path d="M165.9,36.26a12.83,12.83,0,0,1-22.78,0A15.31,15.31,0,0,1,141.44,29a15.35,15.35,0,0,1,1.68-7.25,12.52,12.52,0,0,1,4.64-5,13.6,13.6,0,0,1,13.49,0,12.54,12.54,0,0,1,4.65,5A15.47,15.47,0,0,1,167.57,29,15.43,15.43,0,0,1,165.9,36.26ZM163.73,23a10.28,10.28,0,0,0-18.45,0A13.37,13.37,0,0,0,143.94,29a13.37,13.37,0,0,0,1.34,6.06,10,10,0,0,0,9.23,5.64A10.2,10.2,0,0,0,160,39.26a10.08,10.08,0,0,0,3.74-4.16A13.24,13.24,0,0,0,165.08,29,13.24,13.24,0,0,0,163.73,23Z" fill="#404041"/><path d="M197.17,36.26a12.82,12.82,0,0,1-22.77,0A15.31,15.31,0,0,1,172.72,29a15.35,15.35,0,0,1,1.68-7.25,12.52,12.52,0,0,1,4.64-5,13.6,13.6,0,0,1,13.49,0,12.45,12.45,0,0,1,4.64,5A15.35,15.35,0,0,1,198.85,29,15.31,15.31,0,0,1,197.17,36.26ZM195,23a10.28,10.28,0,0,0-18.45,0A13.37,13.37,0,0,0,175.22,29a13.37,13.37,0,0,0,1.34,6.06,10,10,0,0,0,9.23,5.64,10.2,10.2,0,0,0,5.48-1.48A10.08,10.08,0,0,0,195,35.1,13.24,13.24,0,0,0,196.36,29,13.24,13.24,0,0,0,195,23Z" fill="#404041"/><path d="M226.31,18.39a1.4,1.4,0,0,1-.28.78,1.08,1.08,0,0,1-.89.43,1.18,1.18,0,0,1-.63-.19,12.08,12.08,0,0,0-6.82-2.07A11.12,11.12,0,0,0,212,18.82,10.52,10.52,0,0,0,208,23,12.35,12.35,0,0,0,206.5,29,12.43,12.43,0,0,0,208,35.18a10.63,10.63,0,0,0,4,4.14,11.3,11.3,0,0,0,5.68,1.46,12.08,12.08,0,0,0,6.78-2,1.24,1.24,0,0,1,.67-.19A1.06,1.06,0,0,1,226,39a1.08,1.08,0,0,1,.28.75,1,1,0,0,1-.55.93A14.27,14.27,0,0,1,222,42.4a14.89,14.89,0,0,1-4.33.68,13.74,13.74,0,0,1-6.85-1.77,13.25,13.25,0,0,1-5-5A14.31,14.31,0,0,1,204,29a14.23,14.23,0,0,1,1.83-7.16,13.31,13.31,0,0,1,5-5,13.47,13.47,0,0,1,6.9-1.81,15.05,15.05,0,0,1,4.27.62,13.68,13.68,0,0,1,3.76,1.76A1.09,1.09,0,0,1,226.31,18.39Z" fill="#404041"/><path d="M123,56.38a7,7,0,0,1,2.67,2.77,8.41,8.41,0,0,1,1,4,8.74,8.74,0,0,1-1,4.06,7.23,7.23,0,0,1-6.54,3.94H111.1V81.52a1.17,1.17,0,1,1-2.34,0v-25a1.13,1.13,0,0,1,1.17-1.17h9.24A7.63,7.63,0,0,1,123,56.38Zm-.2,10.87a6.07,6.07,0,0,0,1.4-4.1,5.57,5.57,0,0,0-1.4-3.94,4.78,4.78,0,0,0-3.67-1.52H111.1V68.88h8.07A4.61,4.61,0,0,0,122.84,67.25Z" fill="#404041"/><path d="M152.29,81.6a1.06,1.06,0,0,1-.35.82,1.2,1.2,0,0,1-.82.31,1.12,1.12,0,0,1-.69-.22A1.36,1.36,0,0,1,150,82l-2.93-7.14H134.39L131.5,82a1.08,1.08,0,0,1-1.05.78,1.11,1.11,0,0,1-.82-.27,1.14,1.14,0,0,1-.31-.74V81.6a1.5,1.5,0,0,1,0-.35l10.3-25.2a1.16,1.16,0,0,1,1.17-.78,1.13,1.13,0,0,1,.68.22,1.31,1.31,0,0,1,.45.56l10.26,25.08A2.38,2.38,0,0,1,152.29,81.6Zm-17-9.09h10.84l-5.46-13.34Z" fill="#404041"/><path d="M178.81,58.39a1.49,1.49,0,0,1-.28.78,1.08,1.08,0,0,1-.89.43,1.18,1.18,0,0,1-.63-.19,12.08,12.08,0,0,0-6.82-2.07,11.19,11.19,0,0,0-5.72,1.48,10.56,10.56,0,0,0-4,4.16,13.31,13.31,0,0,0,0,12.2,10.56,10.56,0,0,0,4,4.14,11.28,11.28,0,0,0,5.68,1.46,12.08,12.08,0,0,0,6.78-2,1.24,1.24,0,0,1,.67-.19,1.06,1.06,0,0,1,.89.46,1.12,1.12,0,0,1,.28.75,1,1,0,0,1-.55.93,14.27,14.27,0,0,1-3.74,1.7,14.94,14.94,0,0,1-4.33.68,13.74,13.74,0,0,1-6.85-1.77,13.18,13.18,0,0,1-5-5,15.1,15.1,0,0,1,0-14.45A13.38,13.38,0,0,1,170.19,55a15.05,15.05,0,0,1,4.27.62,13.68,13.68,0,0,1,3.76,1.76A1.09,1.09,0,0,1,178.81,58.39Z" fill="#404041"/><path d="M187.23,82.34a1.18,1.18,0,0,1-.86.35,1.2,1.2,0,0,1-.88-.33,1.18,1.18,0,0,1-.33-.88V56.6a1.17,1.17,0,0,1,.35-.88,1.28,1.28,0,0,1,.9-.33,1.2,1.2,0,0,1,1.21,1.21V81.48A1.35,1.35,0,0,1,187.23,82.34Z" fill="#404041"/><path d="M212.52,55.72a1.14,1.14,0,0,1,.33.84,1.09,1.09,0,0,1-.33.8,1.14,1.14,0,0,1-.84.33h-13v9.79h11.23a1.16,1.16,0,0,1,.84.31,1.18,1.18,0,0,1,0,1.64,1.16,1.16,0,0,1-.84.31H198.7V81.52a1.14,1.14,0,0,1-.33.84,1.17,1.17,0,0,1-.84.33,1.18,1.18,0,0,1-.88-.33,1.14,1.14,0,0,1-.33-.84v-25a1.13,1.13,0,0,1,1.17-1.17h14.19A1.14,1.14,0,0,1,212.52,55.72Z" fill="#404041"/><path d="M221.86,82.34a1.27,1.27,0,0,1-1.73,0,1.19,1.19,0,0,1-.34-.88V56.6a1.15,1.15,0,0,1,.36-.88,1.24,1.24,0,0,1,.89-.33,1.18,1.18,0,0,1,.86.35,1.19,1.19,0,0,1,.35.86V81.48A1.26,1.26,0,0,1,221.86,82.34Z" fill="#404041"/><path d="M257.9,85.19a1,1,0,0,1,.31.74,2.18,2.18,0,0,1-1.15,1.67A9.93,9.93,0,0,1,254.21,89a10.7,10.7,0,0,1-3.14.53,12.33,12.33,0,0,1-3.72-.49,24.91,24.91,0,0,1-3.3-1.39,18.09,18.09,0,0,0-2.45-1.13,7.41,7.41,0,0,0-2.38-.35,3.26,3.26,0,0,0-.92.12,7.62,7.62,0,0,0-1,.39,3.59,3.59,0,0,1-1.25.39,1.08,1.08,0,0,1-.8-.35,1.17,1.17,0,0,1-.33-.82,1,1,0,0,1,.66-1L240.7,83a12.17,12.17,0,0,1-6-2.24,12.84,12.84,0,0,1-4.07-4.93,16.55,16.55,0,0,1,.21-14,12.59,12.59,0,0,1,4.64-5,13.62,13.62,0,0,1,13.5,0,12.59,12.59,0,0,1,4.64,5A15.35,15.35,0,0,1,255.28,69,15.77,15.77,0,0,1,254,75.4a13,13,0,0,1-3.53,4.79,12,12,0,0,1-5.27,2.58l-4.09,1.36a7.6,7.6,0,0,1,2.05.49c.61.25,1.38.59,2.32,1a19.2,19.2,0,0,0,2.84,1.23,8.79,8.79,0,0,0,2.81.41,6.51,6.51,0,0,0,2.28-.35,9.58,9.58,0,0,0,1.85-.9,3.31,3.31,0,0,0,.75-.58,4.21,4.21,0,0,1,.56-.41,1.09,1.09,0,0,1,.57-.18A1,1,0,0,1,257.9,85.19ZM233,75.1a10,10,0,0,0,3.74,4.16,10.89,10.89,0,0,0,11,0,10,10,0,0,0,3.74-4.16,14.28,14.28,0,0,0,0-12.12,10.07,10.07,0,0,0-3.74-4.16,10.89,10.89,0,0,0-11,0A10.07,10.07,0,0,0,233,63a14.28,14.28,0,0,0,0,12.12Z" fill="#404041"/><path d="M282.72,55.72a1.14,1.14,0,0,1,.33.84V72.71a10.3,10.3,0,0,1-1.36,5.22,10.22,10.22,0,0,1-17.75,0,10.3,10.3,0,0,1-1.36-5.22V56.56a1.14,1.14,0,0,1,.33-.84,1.25,1.25,0,0,1,.92-.33,1.17,1.17,0,0,1,.82.33,1.12,1.12,0,0,1,.35.84V72.71a8,8,0,0,0,3.92,6.92,7.56,7.56,0,0,0,3.91,1.07,7.69,7.69,0,0,0,4-1.07,8.06,8.06,0,0,0,2.89-2.91,7.84,7.84,0,0,0,1.07-4V56.56a1.21,1.21,0,0,1,.31-.84,1.08,1.08,0,0,1,.82-.33A1.14,1.14,0,0,1,282.72,55.72Z" fill="#404041"/><path d="M308.11,80.74a1.16,1.16,0,0,1,.33.82,1.08,1.08,0,0,1-.33.82,1.16,1.16,0,0,1-.84.31H293a1.13,1.13,0,0,1-1.17-1.17v-25A1.13,1.13,0,0,1,293,55.39h14.31a1.13,1.13,0,0,1,1.17,1.17,1.08,1.08,0,0,1-.33.82,1.16,1.16,0,0,1-.84.31h-13v9.79h11.27a1.17,1.17,0,0,1,.84.33,1.14,1.14,0,0,1,.33.84,1.08,1.08,0,0,1-.33.82,1.2,1.2,0,0,1-.84.31H294.25V80.39h13A1.12,1.12,0,0,1,308.11,80.74Z" fill="#404041"/></svg>