<svg xmlns="http://www.w3.org/2000/svg" viewBox="0 0 465.88 94.76"><path d="M306.9,35.8l-16-23.14L265.44,0l-.05,0L235,8.83h-.18L218.94,27.7l-.06.06v.16l-4.46,30.89V59l16,23.12,25.47,12.63.24,0,30-8.83h.18l15.88-18.87.05-.07v-.24l4.55-30.14m-8.29,3.88-8.25-24,15.55,19.38ZM227.79,57.83l-8.33-23.57,20.07-5.1Zm.25.73.16-.15.32-.33,11.76-28.65,12.95,24.46Zm25.5-3.72-.63,25.37L228.8,59.43ZM241,29l31.58,2.89L254,53.44Zm32.7,1.78L261.54,9.43l26.54,5ZM288.84,15l8.79,25.37-23.14-9.05ZM281,63.34,254.7,54.05l18.68-21.57ZM272.77,31l-31.41-2.88L260.53,9.58ZM254.42,54.89l26.21,9.28L253.88,80.29ZM281.21,65l-1.7,21-24.84-5Zm-6.88-32.68,23.32,9.18L282,63Zm16.13-18.74,9.75,14L289.66,14.15Zm-.87-.58-.68.57L275.63,6Zm-3.17.17L261.34,8.43l4-7.46Zm-22.25-12-3.83,7.24-21.89.34Zm-4.68,8.12L240.55,27.57l-4.92-18Zm-24.65,1.09,4.89,17.8-19.85,5.08ZM219.65,28.15l12-14.36L219.19,32.47ZM219,35.84l8.1,22.8-11.8-.26Zm-3.42,23.51,11.65.27L230,80.12Zm12.68.92L252.12,80.8l-21.06.71Zm4.2,22.09,20.45-.7,2.45,12ZM256.41,94l-2.47-12.18L278,86.67Zm29.51-8.74-4.72.63,17.4-15.59Zm-5.6.1,1.78-20.77,18.8,2.59Zm2.19-21.62L298,42.45l3.39,23.87Zm19.41.06-3.05-22.33L306,36.92Z" fill="#b9d6f2"/><path d="M231.14,57.79a3.91,3.91,0,0,0-7.21.11,3.91,3.91,0,0,0,5.18,5,3.88,3.88,0,0,0,2.08-2.15A3.81,3.81,0,0,0,231.14,57.79Z" fill="#006e90"/><path d="M276.86,28.29a4.69,4.69,0,0,0-6.09,7.14,4.56,4.56,0,0,0,3,1.12l.39,0a4.62,4.62,0,0,0,3.19-1.64A4.68,4.68,0,0,0,276.86,28.29Z" fill="#006e90"/><path d="M291.78,13.42a3.11,3.11,0,1,0-2.85,4.35,3,3,0,0,0,1.23-.26A3.11,3.11,0,0,0,291.78,13.42Z" fill="#006e90"/><path d="M257.28,52.81a3.11,3.11,0,1,0-4,4.14,3.26,3.26,0,0,0,1.15.22,3.17,3.17,0,0,0,1.24-.26A3.13,3.13,0,0,0,257.28,52.81Z" fill="#006e90"/><path d="M301.22,39.7a3.11,3.11,0,1,0-4,4.13,3,3,0,0,0,1.14.22,3.12,3.12,0,0,0,2.86-4.35Z" fill="#006e90"/><path d="M85.08,42.14a13.68,13.68,0,0,1-4.19-2.92,1.16,1.16,0,0,1-.47-.94,1.19,1.19,0,0,1,.37-.85,1.13,1.13,0,0,1,.84-.39,1.18,1.18,0,0,1,.85.39,9.87,9.87,0,0,0,7.61,3.35,7.78,7.78,0,0,0,4.66-1.33A4.09,4.09,0,0,0,96.6,36a4.26,4.26,0,0,0-.91-2.79,6.85,6.85,0,0,0-2.4-1.81,30.76,30.76,0,0,0-3.79-1.44,23.49,23.49,0,0,1-4.19-1.64,7.71,7.71,0,0,1-2.75-2.4,6.48,6.48,0,0,1-1-3.8,6.29,6.29,0,0,1,1.11-3.67,7.48,7.48,0,0,1,3.12-2.51A11,11,0,0,1,90.36,15a12.44,12.44,0,0,1,4.47.8,7.92,7.92,0,0,1,3.33,2.28,1.9,1.9,0,0,1,.59,1.13,1.09,1.09,0,0,1-.39.8,1.22,1.22,0,0,1-.86.37.9.9,0,0,1-.66-.27,7.78,7.78,0,0,0-2.81-2,8.93,8.93,0,0,0-3.67-.78,7.83,7.83,0,0,0-4.64,1.27A4,4,0,0,0,83.93,22a4,4,0,0,0,1.71,3.47,18.16,18.16,0,0,0,4.92,2.22,30.5,30.5,0,0,1,4.52,1.68A7.46,7.46,0,0,1,98,31.83,7.07,7.07,0,0,1,99.06,36a6.06,6.06,0,0,1-1.15,3.61,7.74,7.74,0,0,1-3.2,2.55,11,11,0,0,1-4.66.94A12.31,12.31,0,0,1,85.08,42.14Z" fill="#404041"/><path d="M108.07,42.34a1.19,1.19,0,0,1-2.07-.86V16.6a1.17,1.17,0,0,1,.35-.88,1.28,1.28,0,0,1,.9-.33,1.2,1.2,0,0,1,1.21,1.21V41.48A1.35,1.35,0,0,1,108.07,42.34Z" fill="#404041"/><path d="M139.81,36.26a12.82,12.82,0,0,1-22.77,0A15.31,15.31,0,0,1,115.36,29,15.35,15.35,0,0,1,117,21.79a12.52,12.52,0,0,1,4.64-5,13.6,13.6,0,0,1,13.49,0,12.45,12.45,0,0,1,4.64,5A15.35,15.35,0,0,1,141.49,29,15.31,15.31,0,0,1,139.81,36.26ZM137.65,23a10.28,10.28,0,0,0-18.45,0A13.37,13.37,0,0,0,117.86,29a13.37,13.37,0,0,0,1.34,6.06,10,10,0,0,0,9.23,5.64,9.94,9.94,0,0,0,9.22-5.64A13.24,13.24,0,0,0,139,29,13.24,13.24,0,0,0,137.65,23Z" fill="#404041"/><path d="M171.09,36.26a12.82,12.82,0,0,1-22.77,0A15.31,15.31,0,0,1,146.64,29a15.35,15.35,0,0,1,1.68-7.25,12.45,12.45,0,0,1,4.64-5,13.6,13.6,0,0,1,13.49,0,12.52,12.52,0,0,1,4.64,5A15.35,15.35,0,0,1,172.77,29,15.31,15.31,0,0,1,171.09,36.26ZM168.93,23a10.28,10.28,0,0,0-18.45,0A13.24,13.24,0,0,0,149.14,29a13.24,13.24,0,0,0,1.34,6.06,10.28,10.28,0,0,0,18.45,0A13.24,13.24,0,0,0,170.27,29,13.24,13.24,0,0,0,168.93,23Z" fill="#404041"/><path d="M200.23,18.39a1.49,1.49,0,0,1-.28.78,1.08,1.08,0,0,1-.89.43,1.18,1.18,0,0,1-.63-.19,12.08,12.08,0,0,0-6.82-2.07,11.19,11.19,0,0,0-5.72,1.48,10.56,10.56,0,0,0-4,4.16A12.35,12.35,0,0,0,180.41,29a12.43,12.43,0,0,0,1.49,6.14,10.56,10.56,0,0,0,4,4.14,11.28,11.28,0,0,0,5.68,1.46,12.08,12.08,0,0,0,6.78-2,1.24,1.24,0,0,1,.67-.19A1.06,1.06,0,0,1,200,39a1.12,1.12,0,0,1,.28.75,1,1,0,0,1-.55.93,14.27,14.27,0,0,1-3.74,1.7,14.94,14.94,0,0,1-4.33.68,13.74,13.74,0,0,1-6.85-1.77,13.18,13.18,0,0,1-5-5A14.31,14.31,0,0,1,177.92,29a14.23,14.23,0,0,1,1.83-7.16A13.38,13.38,0,0,1,191.61,15a15.05,15.05,0,0,1,4.27.62,13.68,13.68,0,0,1,3.76,1.76A1.09,1.09,0,0,1,200.23,18.39Z" fill="#404041"/><path d="M14.27,56.38A7,7,0,0,1,17,59.15a8.41,8.41,0,0,1,.95,4A8.74,8.74,0,0,1,17,67.21a7.26,7.26,0,0,1-6.54,3.94H2.34V81.52a1.13,1.13,0,0,1-1.17,1.17A1.13,1.13,0,0,1,0,81.52v-25a1.13,1.13,0,0,1,1.17-1.17h9.24A7.57,7.57,0,0,1,14.27,56.38Zm-.19,10.87a6.12,6.12,0,0,0,1.4-4.1,5.62,5.62,0,0,0-1.4-3.94,4.78,4.78,0,0,0-3.67-1.52H2.34V68.88h8.07A4.61,4.61,0,0,0,14.08,67.25Z" fill="#404041"/><path d="M43.52,81.6a1,1,0,0,1-.35.82,1.16,1.16,0,0,1-.82.31,1.09,1.09,0,0,1-.68-.22,1.47,1.47,0,0,1-.45-.56L38.3,74.81H25.62L22.74,82a1.09,1.09,0,0,1-1.06.78,1.1,1.1,0,0,1-.81-.27,1.15,1.15,0,0,1-.32-.74V81.6a1.4,1.4,0,0,1,0-.35l10.3-25.2a1.16,1.16,0,0,1,1.17-.78,1.13,1.13,0,0,1,.68.22,1.31,1.31,0,0,1,.45.56L43.45,81.13A2.19,2.19,0,0,1,43.52,81.6Zm-17-9.09H37.36L31.9,59.17Z" fill="#404041"/><path d="M70,58.39a1.47,1.47,0,0,1-.27.78,1.09,1.09,0,0,1-.9.43,1.17,1.17,0,0,1-.62-.19,12.09,12.09,0,0,0-6.83-2.07,11.15,11.15,0,0,0-5.71,1.48,10.66,10.66,0,0,0-4,4.16,13.39,13.39,0,0,0,0,12.2,10.65,10.65,0,0,0,4,4.14,11.24,11.24,0,0,0,5.67,1.46,12.08,12.08,0,0,0,6.79-2,1.23,1.23,0,0,1,.66-.19,1.07,1.07,0,0,1,.9.46,1.11,1.11,0,0,1,.27.75,1,1,0,0,1-.54.93,14.35,14.35,0,0,1-3.75,1.7,14.84,14.84,0,0,1-4.33.68,13.7,13.7,0,0,1-6.84-1.77,13.18,13.18,0,0,1-5-5,15.1,15.1,0,0,1,0-14.45A13.38,13.38,0,0,1,61.42,55a15.12,15.12,0,0,1,4.28.62,13.68,13.68,0,0,1,3.76,1.76A1.08,1.08,0,0,1,70,58.39Z" fill="#404041"/><path d="M78.47,82.34a1.19,1.19,0,0,1-2.07-.86V56.6a1.17,1.17,0,0,1,.35-.88,1.28,1.28,0,0,1,.9-.33,1.2,1.2,0,0,1,1.21,1.21V81.48A1.35,1.35,0,0,1,78.47,82.34Z" fill="#404041"/><path d="M103.76,55.72a1.14,1.14,0,0,1,.33.84,1.09,1.09,0,0,1-.33.8,1.14,1.14,0,0,1-.84.33h-13v9.79h11.24a1.16,1.16,0,0,1,.83.31,1.16,1.16,0,0,1,0,1.64,1.16,1.16,0,0,1-.83.31H89.93V81.52a1.13,1.13,0,0,1-1.17,1.17,1.18,1.18,0,0,1-.87-.33,1.14,1.14,0,0,1-.33-.84v-25a1.13,1.13,0,0,1,1.17-1.17h14.19A1.14,1.14,0,0,1,103.76,55.72Z" fill="#404041"/><path d="M113.1,82.34a1.18,1.18,0,0,1-.86.35,1.2,1.2,0,0,1-.88-.33,1.18,1.18,0,0,1-.33-.88V56.6a1.17,1.17,0,0,1,.35-.88,1.28,1.28,0,0,1,.9-.33,1.18,1.18,0,0,1,.86.35,1.19,1.19,0,0,1,.35.86V81.48A1.35,1.35,0,0,1,113.1,82.34Z" fill="#404041"/><path d="M149.14,85.19a1,1,0,0,1,.31.74,2.21,2.21,0,0,1-1.15,1.67A9.93,9.93,0,0,1,145.45,89a10.7,10.7,0,0,1-3.14.53,12.33,12.33,0,0,1-3.72-.49,24.91,24.91,0,0,1-3.3-1.39,17.6,17.6,0,0,0-2.46-1.13,7.31,7.31,0,0,0-2.37-.35,3.26,3.26,0,0,0-.92.12,7.67,7.67,0,0,0-1,.39,3.5,3.5,0,0,1-1.24.39,1.06,1.06,0,0,1-.8-.35,1.17,1.17,0,0,1-.33-.82,1,1,0,0,1,.66-1L131.94,83a12.17,12.17,0,0,1-6-2.24,12.84,12.84,0,0,1-4.07-4.93,16.45,16.45,0,0,1,.21-14,12.59,12.59,0,0,1,4.64-5,13.62,13.62,0,0,1,13.5,0,12.59,12.59,0,0,1,4.64,5A15.47,15.47,0,0,1,146.52,69a15.77,15.77,0,0,1-1.26,6.36,13.15,13.15,0,0,1-3.53,4.79,12,12,0,0,1-5.27,2.58l-4.09,1.36a7.44,7.44,0,0,1,2,.49c.61.25,1.39.59,2.32,1a19.73,19.73,0,0,0,2.85,1.23,8.79,8.79,0,0,0,2.81.41,6.51,6.51,0,0,0,2.28-.35,9.87,9.87,0,0,0,1.85-.9,3.27,3.27,0,0,0,.74-.58,4.3,4.3,0,0,1,.57-.41,1.09,1.09,0,0,1,.57-.18A1,1,0,0,1,149.14,85.19ZM124.24,75.1A10,10,0,0,0,128,79.26a10.89,10.89,0,0,0,11,0,10,10,0,0,0,3.74-4.16,14.28,14.28,0,0,0,0-12.12,10.07,10.07,0,0,0-3.74-4.16,10.89,10.89,0,0,0-11,0A10.07,10.07,0,0,0,124.24,63a14.28,14.28,0,0,0,0,12.12Z" fill="#404041"/><path d="M174,55.72a1.14,1.14,0,0,1,.33.84V72.71a10.3,10.3,0,0,1-1.36,5.22,10.22,10.22,0,0,1-17.75,0,10.3,10.3,0,0,1-1.36-5.22V56.56a1.14,1.14,0,0,1,.33-.84,1.22,1.22,0,0,1,.91-.33,1.14,1.14,0,0,1,.82.33,1.08,1.08,0,0,1,.35.84V72.71a8,8,0,0,0,3.92,6.92,7.79,7.79,0,0,0,7.88,0,8.06,8.06,0,0,0,2.89-2.91,7.84,7.84,0,0,0,1.07-4V56.56a1.16,1.16,0,0,1,.31-.84,1.08,1.08,0,0,1,.82-.33A1.14,1.14,0,0,1,174,55.72Z" fill="#404041"/><path d="M199.35,80.74a1.16,1.16,0,0,1,.33.82,1.08,1.08,0,0,1-.33.82,1.16,1.16,0,0,1-.84.31H184.2A1.13,1.13,0,0,1,183,81.52v-25a1.13,1.13,0,0,1,1.17-1.17h14.31a1.13,1.13,0,0,1,1.17,1.17,1.08,1.08,0,0,1-.33.82,1.16,1.16,0,0,1-.84.31h-13v9.79h11.27a1.15,1.15,0,0,1,1.18,1.17,1.08,1.08,0,0,1-.34.82,1.16,1.16,0,0,1-.84.31H185.48V80.39h13A1.12,1.12,0,0,1,199.35,80.74Z" fill="#404041"/><path d="M343.69,18.39a1.47,1.47,0,0,1-.27.78,1.1,1.1,0,0,1-.9.43,1.15,1.15,0,0,1-.62-.19,12.11,12.11,0,0,0-6.83-2.07,11.15,11.15,0,0,0-5.71,1.48,10.66,10.66,0,0,0-4,4.16A12.46,12.46,0,0,0,323.88,29a12.43,12.43,0,0,0,1.48,6.14,10.65,10.65,0,0,0,4,4.14,11.24,11.24,0,0,0,5.67,1.46,12.13,12.13,0,0,0,6.79-2,1.23,1.23,0,0,1,.66-.19,1.08,1.08,0,0,1,.9.46,1.11,1.11,0,0,1,.27.75,1,1,0,0,1-.54.93,14.5,14.5,0,0,1-3.75,1.7,14.84,14.84,0,0,1-4.33.68,13.68,13.68,0,0,1-6.84-1.77,13.11,13.11,0,0,1-5-5A14.22,14.22,0,0,1,321.38,29a14.14,14.14,0,0,1,1.84-7.16A13.38,13.38,0,0,1,335.07,15a15,15,0,0,1,4.27.62,13.74,13.74,0,0,1,3.77,1.76A1.08,1.08,0,0,1,343.69,18.39Z" fill="#404041"/><path d="M352.12,42.34a1.19,1.19,0,0,1-2.07-.86V16.6a1.17,1.17,0,0,1,.35-.88,1.25,1.25,0,0,1,.9-.33,1.21,1.21,0,0,1,.86.35,1.19,1.19,0,0,1,.35.86V41.48A1.35,1.35,0,0,1,352.12,42.34Z" fill="#404041"/><path d="M383.86,36.26a12.83,12.83,0,0,1-22.78,0A15.43,15.43,0,0,1,359.41,29a15.47,15.47,0,0,1,1.67-7.25,12.54,12.54,0,0,1,4.65-5,13.6,13.6,0,0,1,13.49,0,12.52,12.52,0,0,1,4.64,5A15.35,15.35,0,0,1,385.54,29,15.31,15.31,0,0,1,383.86,36.26ZM381.7,23a10.28,10.28,0,0,0-18.45,0A13.24,13.24,0,0,0,361.9,29a13.24,13.24,0,0,0,1.35,6.06A10.08,10.08,0,0,0,367,39.26a10.89,10.89,0,0,0,11,0,10.1,10.1,0,0,0,3.75-4.16A13.37,13.37,0,0,0,383,29,13.37,13.37,0,0,0,381.7,23Z" fill="#404041"/><path d="M415.14,36.26a12.83,12.83,0,0,1-22.78,0A15.43,15.43,0,0,1,390.69,29a15.47,15.47,0,0,1,1.67-7.25,12.59,12.59,0,0,1,4.64-5,13.62,13.62,0,0,1,13.5,0,12.59,12.59,0,0,1,4.64,5A15.35,15.35,0,0,1,416.82,29,15.31,15.31,0,0,1,415.14,36.26ZM413,23a10.07,10.07,0,0,0-3.74-4.16,10.89,10.89,0,0,0-11,0A10.07,10.07,0,0,0,394.53,23,13.24,13.24,0,0,0,393.18,29a13.24,13.24,0,0,0,1.35,6.06,10,10,0,0,0,3.74,4.16,10.89,10.89,0,0,0,11,0A10,10,0,0,0,413,35.1,13.24,13.24,0,0,0,414.32,29,13.24,13.24,0,0,0,413,23Z" fill="#404041"/><path d="M426.16,42.14a13.84,13.84,0,0,1-4.2-2.92,1.18,1.18,0,0,1-.46-.94,1.19,1.19,0,0,1,.37-.85,1.11,1.11,0,0,1,.84-.39,1.18,1.18,0,0,1,.85.39,9.87,9.87,0,0,0,7.61,3.35,7.78,7.78,0,0,0,4.66-1.33A4.09,4.09,0,0,0,437.68,36a4.26,4.26,0,0,0-.91-2.79,7,7,0,0,0-2.4-1.81,30.76,30.76,0,0,0-3.79-1.44,23.49,23.49,0,0,1-4.19-1.64,7.71,7.71,0,0,1-2.75-2.4,6.48,6.48,0,0,1-1.05-3.8,6.29,6.29,0,0,1,1.11-3.67,7.48,7.48,0,0,1,3.12-2.51,11,11,0,0,1,4.62-.92,12.44,12.44,0,0,1,4.47.8,7.92,7.92,0,0,1,3.33,2.28,1.9,1.9,0,0,1,.59,1.13,1.09,1.09,0,0,1-.39.8,1.22,1.22,0,0,1-.86.37.9.9,0,0,1-.66-.27,7.78,7.78,0,0,0-2.81-2,8.93,8.93,0,0,0-3.67-.78,7.83,7.83,0,0,0-4.64,1.27A4,4,0,0,0,425,22a4,4,0,0,0,1.71,3.47,18,18,0,0,0,4.92,2.22,30.5,30.5,0,0,1,4.52,1.68A7.46,7.46,0,0,1,439,31.83,7.07,7.07,0,0,1,440.14,36,6.13,6.13,0,0,1,439,39.59a7.74,7.74,0,0,1-3.2,2.55,11,11,0,0,1-4.66.94A12.31,12.31,0,0,1,426.16,42.14Z" fill="#404041"/><path d="M337.45,56.38a6.91,6.91,0,0,1,2.67,2.77,8.3,8.3,0,0,1,1,4,8.62,8.62,0,0,1-1,4.06,7.23,7.23,0,0,1-6.53,3.94h-8.07V81.52a1.14,1.14,0,0,1-.33.84,1.15,1.15,0,0,1-.84.33,1.13,1.13,0,0,1-1.17-1.17v-25a1.13,1.13,0,0,1,1.17-1.17h9.24A7.57,7.57,0,0,1,337.45,56.38Zm-.19,10.87a6.12,6.12,0,0,0,1.4-4.1,5.62,5.62,0,0,0-1.4-3.94,4.78,4.78,0,0,0-3.67-1.52h-8.07V68.88h8.07A4.61,4.61,0,0,0,337.26,67.25Z" fill="#404041"/><path d="M366.7,81.6a1,1,0,0,1-.35.82,1.18,1.18,0,0,1-.82.31,1.07,1.07,0,0,1-.68-.22,1.38,1.38,0,0,1-.45-.56l-2.92-7.14H348.8L345.92,82a1.09,1.09,0,0,1-1.06.78,1.14,1.14,0,0,1-.82-.27,1.19,1.19,0,0,1-.31-.74V81.6a1,1,0,0,1,0-.35l10.3-25.2a1.23,1.23,0,0,1,1.85-.56,1.47,1.47,0,0,1,.45.56l10.26,25.08A2.19,2.19,0,0,1,366.7,81.6Zm-17-9.09h10.84l-5.46-13.34Z" fill="#404041"/><path d="M393.22,58.39a1.47,1.47,0,0,1-.27.78,1.1,1.1,0,0,1-.9.43,1.15,1.15,0,0,1-.62-.19,12.11,12.11,0,0,0-6.83-2.07,11.15,11.15,0,0,0-5.71,1.48,10.66,10.66,0,0,0-4,4.16,13.39,13.39,0,0,0,0,12.2,10.65,10.65,0,0,0,4,4.14,11.24,11.24,0,0,0,5.67,1.46,12.13,12.13,0,0,0,6.79-2,1.23,1.23,0,0,1,.66-.19,1.08,1.08,0,0,1,.9.46,1.11,1.11,0,0,1,.27.75,1,1,0,0,1-.54.93,14.5,14.5,0,0,1-3.75,1.7,14.84,14.84,0,0,1-4.33.68,13.68,13.68,0,0,1-6.84-1.77,13.18,13.18,0,0,1-5-5,15,15,0,0,1,0-14.45A13.38,13.38,0,0,1,384.6,55a15,15,0,0,1,4.27.62,13.74,13.74,0,0,1,3.77,1.76A1.08,1.08,0,0,1,393.22,58.39Z" fill="#404041"/><path d="M401.65,82.34a1.19,1.19,0,0,1-2.07-.86V56.6a1.17,1.17,0,0,1,.35-.88,1.25,1.25,0,0,1,.9-.33A1.2,1.2,0,0,1,402,56.6V81.48A1.35,1.35,0,0,1,401.65,82.34Z" fill="#404041"/><path d="M426.94,55.72a1.14,1.14,0,0,1,.33.84,1.09,1.09,0,0,1-.33.8,1.14,1.14,0,0,1-.84.33h-13v9.79h11.23a1.16,1.16,0,0,1,.84.31,1.18,1.18,0,0,1,0,1.64,1.16,1.16,0,0,1-.84.31H413.11V81.52a1.13,1.13,0,0,1-1.17,1.17,1.22,1.22,0,0,1-.88-.33,1.14,1.14,0,0,1-.33-.84v-25a1.14,1.14,0,0,1,.33-.84,1.17,1.17,0,0,1,.84-.33h14.2A1.14,1.14,0,0,1,426.94,55.72Z" fill="#404041"/><path d="M436.28,82.34a1.19,1.19,0,0,1-2.07-.86V56.6a1.17,1.17,0,0,1,.35-.88,1.26,1.26,0,0,1,.9-.33,1.2,1.2,0,0,1,1.21,1.21V81.48A1.35,1.35,0,0,1,436.28,82.34Z" fill="#404041"/><path d="M465.88,58.39a1.47,1.47,0,0,1-.27.78,1.12,1.12,0,0,1-.9.43,1.18,1.18,0,0,1-.63-.19,12.08,12.08,0,0,0-6.82-2.07,11.12,11.12,0,0,0-5.71,1.48,10.52,10.52,0,0,0-4,4.16,13.39,13.39,0,0,0,0,12.2,10.59,10.59,0,0,0,4,4.14,11.24,11.24,0,0,0,5.67,1.46,12.13,12.13,0,0,0,6.79-2,1.21,1.21,0,0,1,.66-.19,1.09,1.09,0,0,1,.9.46,1.11,1.11,0,0,1,.27.75,1,1,0,0,1-.55.93,14.27,14.27,0,0,1-3.74,1.7,14.89,14.89,0,0,1-4.33.68,13.68,13.68,0,0,1-6.84-1.77,13.21,13.21,0,0,1-5-5,15.1,15.1,0,0,1,0-14.45A13.41,13.41,0,0,1,457.26,55a15,15,0,0,1,4.27.62,13.54,13.54,0,0,1,3.76,1.76A1.09,1.09,0,0,1,465.88,58.39Z" fill="#404041"/></svg>